<svg width="148px" height="148px" viewBox="0 0 148 148" version="1.1" xmlns="http://www.w3.org/2000/svg" xmlns:xlink="http://www.w3.org/1999/xlink">
    <!-- Generator: Sketch 52.3 (67297) - http://www.bohemiancoding.com/sketch -->
    <title>Trello Copy 7</title>
    <desc>Created with Sketch.</desc>
    <defs>
        <linearGradient x1="0%" y1="50%" x2="100%" y2="50%" id="linearGradient-1">
            <stop stop-color="#FFFFFF" stop-opacity="0.1" offset="0%"></stop>
            <stop stop-color="#FFFFFF" stop-opacity="0" offset="100%"></stop>
        </linearGradient>
        <linearGradient x1="-49.6146435%" y1="25.2403846%" x2="93.1791908%" y2="96.5%" id="linearGradient-2">
            <stop stop-color="#BF360C" stop-opacity="0.2" offset="0%"></stop>
            <stop stop-color="#BF360C" stop-opacity="0.02" offset="100%"></stop>
        </linearGradient>
        <linearGradient x1="33.5322368%" y1="33.5730263%" x2="98.2203947%" y2="98.2611842%" id="linearGradient-3">
            <stop stop-color="#FFFFFF" stop-opacity="0.1" offset="0%"></stop>
            <stop stop-color="#FFFFFF" stop-opacity="0" offset="100%"></stop>
        </linearGradient>
    </defs>
    <g id="Trello-Copy-7" stroke="none" stroke-width="1" fill="none" fill-rule="evenodd">
        <g id="google-analytics-seeklogo.com" transform="translate(36.000000, 36.000000)">
            <path d="M69.9277955,0 L56.0722881,0 C52.720956,0 49.9698625,2.75 49.9698625,6.1 L49.9698625,24 L29.9118896,24 C26.6605973,24 24.0095435,26.65 24.0095435,29.95 L24.0095435,50 L5.952366,50 C2.65105376,50 0,52.65 0,55.95 L0,69.95 C0,73.25 2.65105376,75.9 5.952366,76 L69.9778154,76 C73.3291475,76 76.080241,73.25 76.080241,69.9 L76.080241,6.1 C76.0302212,2.75 73.2791276,0 69.9277955,0 Z" id="Path" fill="url(#linearGradient-1)"></path>
            <path d="M69.9277955,0 L56.0722881,0 C52.720956,0 49.9698625,2.75 49.9698625,6.1 L49.9698625,24 L29.9118896,24 C26.6605973,24 24.0095435,26.65 24.0095435,29.95 L24.0095435,50 L5.952366,50 C2.65105376,50 0,52.65 0,55.95 L0,69.95 C0,73.25 2.65105376,75.9 5.952366,76 L69.9778154,76 C73.3291475,76 76.080241,73.25 76.080241,69.9 L76.080241,6.1 C76.0302212,2.75 73.2791276,0 69.9277955,0 Z" id="Path" fill="url(#linearGradient-1)"></path>
            <g id="Group">
                <path d="M69.9277955,0 L56.1723279,0 C52.8209958,0 50.0699022,2.75 50.0699022,6.1 L50.0699022,76 L69.9277955,76 C73.2791276,76 76.0302212,73.25 76.0302212,69.9 L76.0302212,6.1 C76.0302212,2.75 73.2791276,0 69.9277955,0 Z" id="Path" fill="#F57C00"></path>
                <path d="M24.0095435,30 L24.0095435,50 L6.00238588,50 C2.70107365,50 0,52.7 0,56 L0,70 C0,73.3 2.70107365,76 6.00238588,76 L50.0198823,76 L50.0198823,24 L30.0119294,24 C26.7106172,24 24.0095435,26.7 24.0095435,30 Z" id="Path" fill="#FFC107"></path>
            </g>
            <path d="M50.0198823,24 L50.0198823,76 L69.8777756,76 C73.2291078,76 75.9802013,73.25 75.9802013,69.9 L75.9802013,50 L50.0198823,24 Z" id="Path" fill="url(#linearGradient-2)"></path>
            <path d="M30.0119294,24.5 L50.0198823,24.5 L50.0198823,24 L30.0119294,24 C26.7106172,24 24.0095435,26.7 24.0095435,30 L24.0095435,30.5 C24.0095435,27.2 26.7106172,24.5 30.0119294,24.5 Z" id="Path" fill="#FFFFFF" opacity="0.2"></path>
            <path d="M6.00238588,50.5 L24.0095435,50.5 L24.0095435,50 L6.00238588,50 C2.70107365,50 0,52.7 0,56 L0,56.5 C0,53.2 2.70107365,50.5 6.00238588,50.5 Z" id="Path" fill="#FFFFFF" opacity="0.2"></path>
            <path d="M69.9277955,0 L56.1723279,0 C52.8209958,0 50.0699022,2.75 50.0699022,6.1 L50.0699022,6.6 C50.0699022,3.25 52.8209958,0.5 56.1723279,0.5 L69.9277955,0.5 C73.2791276,0.5 76.0302212,3.25 76.0302212,6.6 L76.0302212,6.1 C76.0302212,2.75 73.2791276,0 69.9277955,0 Z" id="Path" fill="#FFFFFF" opacity="0.2"></path>
            <path d="M69.9277955,75.5 L6.00238588,75.5 C2.70107365,75.5 0,72.8 0,69.5 L0,70 C0,73.3 2.70107365,76 6.00238588,76 L69.8777756,76 C73.2291078,76 75.9802013,73.25 75.9802013,69.9 L75.9808728,69.4 C76.0302212,72.75 73.2791276,75.5 69.9277955,75.5 Z" id="Path" fill="#BF360C" opacity="0.2"></path>
            <path d="M69.9277955,0 L56.1723279,0 C52.8209958,0 50.0699022,2.75 50.0699022,6.1 L50.0699022,24 L30.0619493,24 C26.7606371,24 24.0595634,26.7 24.0595634,30 L24.0595634,50 L6.00238588,50 C2.70107365,50 0,52.7 0,56 L0,70 C0,73.3 2.70107365,76 6.00238588,76 L69.9277955,76 C73.2791276,76 76.0302212,73.25 76.0302212,69.9 L76.0302212,6.1 C76.0302212,2.75 73.2791276,0 69.9277955,0 Z" id="Path" fill="url(#linearGradient-3)"></path>
        </g>
    </g>
</svg>
