<?xml version="1.0" encoding="UTF-8"?>
<svg width="148px" height="148px" viewBox="0 0 148 148" version="1.1" xmlns="http://www.w3.org/2000/svg" xmlns:xlink="http://www.w3.org/1999/xlink">
    <!-- Generator: Sketch 52.3 (67297) - http://www.bohemiancoding.com/sketch -->
    <title>Xamarin Copy</title>
    <desc>Created with Sketch.</desc>
    <g id="Xamarin-Copy" stroke="none" stroke-width="1" fill="none" fill-rule="evenodd">
        <g id="android" transform="translate(34.000000, 29.000000)">
            <path d="M27.4058824,53.7615686 C30.4901961,53.7615686 32.9905882,56.2619608 32.9905882,59.3462745 L32.9905882,83.3031373 C32.9905882,86.387451 30.4901961,88.887451 27.4058824,88.887451 C24.3219608,88.887451 21.8215686,86.387451 21.8215686,83.3031373 L21.8215686,59.3462745 C21.8215686,56.2623529 24.3219608,53.7619608 27.4058824,53.7619608 L27.4058824,53.7615686 Z" id="Path" fill="#A4C639"></path>
            <path d="M14.6564706,24.9588235 C14.6380392,25.1705882 14.6219608,25.3847059 14.6219608,25.6011765 L14.6219608,61.8980392 C14.6219608,65.8015686 17.7117647,68.9462745 21.547451,68.9462745 L58.4588235,68.9462745 C62.294902,68.9462745 65.3847059,65.8011765 65.3847059,61.8980392 L65.3847059,25.6011765 C65.3847059,25.3847059 65.3768627,25.1698039 65.3588235,24.9588235 L14.6564706,24.9588235 Z" id="Path" fill="#A4C639"></path>
            <path d="M52.6011765,53.7615686 C55.6854902,53.7615686 58.1858824,56.2619608 58.1858824,59.3462745 L58.1858824,83.3031373 C58.1858824,86.387451 55.6854902,88.887451 52.6011765,88.887451 C49.5172549,88.887451 47.0168627,86.387451 47.0168627,83.3031373 L47.0168627,59.3462745 C47.0168627,56.2623529 49.5172549,53.7619608 52.6011765,53.7619608 L52.6011765,53.7615686 Z M5.64901961,28.1890196 C8.73294118,28.1890196 11.2333333,30.6894118 11.2333333,33.7737255 L11.2333333,57.7305882 C11.2333333,60.814902 8.73294118,63.3152941 5.64901961,63.3152941 C2.56470588,63.3152941 0.0643137255,60.814902 0.0643137255,57.7309804 L0.0643137255,33.7741176 C0.0639215686,30.6898039 2.56431373,28.1890196 5.64901961,28.1890196 Z M74.3584314,28.1890196 C77.4423529,28.1890196 79.9427451,30.6894118 79.9427451,33.7737255 L79.9427451,57.7305882 C79.9427451,60.814902 77.4423529,63.3152941 74.3584314,63.3152941 C71.2741176,63.3152941 68.7737255,60.814902 68.7737255,57.7309804 L68.7737255,33.7741176 C68.7737255,30.6898039 71.2741176,28.1890196 74.3584314,28.1890196 Z M14.8196078,22.5745098 C14.974902,11.4254902 24.7058824,2.28431373 37.1968627,1.07960784 L42.8094118,1.07960784 C55.3011765,2.28470588 65.0313725,11.4262745 65.1866667,22.5745098 L14.8196078,22.5745098 Z" id="Shape" fill="#A4C639" fill-rule="nonzero"></path>
            <path d="M15.9746564,0.458060025 C15.7236261,0.0232438166 15.872614,-0.532744653 16.3074302,-0.783774978 C16.7422464,-1.0348053 17.2982348,-0.885817409 17.5492652,-0.451001201 L23.4402456,9.75292037 C23.6912759,10.1877366 23.542288,10.743725 23.1074718,10.9947554 C22.6726556,11.2457857 22.1166671,11.0967978 21.8656368,10.6619816 L15.9746564,0.458060025 Z M62.4581989,-0.451023894 C62.7092418,-0.885832867 63.2652345,-1.03480474 63.7000435,-0.783761877 C64.1348525,-0.532719018 64.2838243,0.0232737456 64.0327815,0.458082718 L58.1414089,10.6620043 C57.8903661,11.0968133 57.3343733,11.2457851 56.8995643,10.9947423 C56.4647554,10.7436994 56.3157835,10.1877066 56.5668264,9.75289767 L62.4581989,-0.451023894 Z" id="Shape" fill="#A4C639" fill-rule="nonzero"></path>
            <path d="M32.5011765,12.5831373 C32.5058824,14.1415686 31.2160784,15.4086275 29.62,15.4129412 C28.0247059,15.4168627 26.727451,14.1572549 26.7227451,12.5988235 L26.7227451,12.5831373 C26.7184314,11.0243137 28.0082353,9.75764706 29.6039216,9.75333333 C31.1992157,9.74901961 32.4964706,11.0082353 32.5011765,12.567451 L32.5011765,12.5831373 Z M54.0682353,12.5831373 C54.0729412,14.1415686 52.7831373,15.4086275 51.1870588,15.4129412 C49.5917647,15.4168627 48.2945098,14.1572549 48.2898039,12.5988235 L48.2898039,12.5831373 C48.2854902,11.0243137 49.5752941,9.75764706 51.1709804,9.75333333 C52.7662745,9.74901961 54.0635294,11.0082353 54.0682353,12.567451 L54.0682353,12.5831373 Z" id="Shape" fill="#FFFFFF" fill-rule="nonzero"></path>
        </g>
    </g>
</svg>