<?xml version="1.0" encoding="UTF-8"?>
<svg width="148px" height="148px" viewBox="0 0 148 148" version="1.1" xmlns="http://www.w3.org/2000/svg" xmlns:xlink="http://www.w3.org/1999/xlink">
    <!-- Generator: Sketch 52.3 (67297) - http://www.bohemiancoding.com/sketch -->
    <title>cypress-logo-light</title>
    <desc>Created with Sketch.</desc>
    <g id="Symbols" stroke="none" stroke-width="1" fill="none" fill-rule="evenodd">
        <g id="tech-Cypress-Copy" fill="#F4F4F4">
            <g id="cypress" transform="translate(14.000000, 53.000000)">
                <path d="M53.2002159,11.7647059 C55.5423637,11.7647059 57.2800863,12.5828262 58.3378305,14.2190669 C59.4711279,15.8553076 60,18.2352941 60,21.2102772 C60,23.0696416 59.6977874,24.6315078 59.1689153,26.1189993 C58.56449,27.5321163 57.7334053,28.7221095 56.6756611,29.5402299 C55.6179169,30.3583502 54.3335132,30.8045977 52.8224501,30.8045977 C50.9336212,30.8045977 49.422558,30.1352265 48.3648138,28.8708587 L48.3648138,37.1264368 L43.5294118,37.6470588 L43.5294118,12.2853279 L47.8359417,12.2853279 L48.0626012,14.3678161 C48.7425796,13.4753212 49.5736643,12.80595 50.4803022,12.3597025 C51.3869401,11.9878296 52.293578,11.7647059 53.2002159,11.7647059 Z M51.3869401,27.1602434 C53.729088,27.1602434 54.9379385,25.2265044 54.9379385,21.2846518 C54.9379385,19.127789 54.6357258,17.5659229 54.1068538,16.673428 C53.5779817,15.7809331 52.7468969,15.3346856 51.6891527,15.3346856 C51.0847275,15.3346856 50.4047491,15.5578093 49.875877,15.9296822 C49.2714517,16.3759297 48.8181328,16.8965517 48.3648138,17.5659229 L48.3648138,25.3752535 C49.1203454,26.5652468 50.1780896,27.1602434 51.3869401,27.1602434 Z" id="Shape" fill-rule="nonzero"></path>
                <path d="M71.2241653,11.7647059 C71.7249603,11.7647059 72.2972973,11.8406072 72.9411765,12.0683112 L72.154213,16.7741935 C71.581876,16.6223909 71.009539,16.5464896 70.6518283,16.5464896 C69.6502385,16.5464896 68.863275,16.9259962 68.290938,17.6850095 C67.718601,18.4440228 67.2893482,19.5825427 66.9316375,21.1764706 L66.9316375,30.5882353 L62.3529412,30.5882353 L62.3529412,12.2960152 L66.3593005,12.2960152 L66.7885533,15.8633776 C67.217806,14.573055 67.7901431,13.5863378 68.5771065,12.8273245 C69.36407,12.1442125 70.2225755,11.7647059 71.2241653,11.7647059 Z" id="Path"></path>
                <path d="M88.2352941,20.7704729 C88.2352941,20.9919262 88.2352941,21.5824683 88.1641587,22.615917 L77.493844,22.615917 C77.6361149,24.2399077 78.0629275,25.3471742 78.7742818,26.011534 C79.4856361,26.6758939 80.4103967,27.0449827 81.619699,27.0449827 C82.3310534,27.0449827 83.0424077,26.8973472 83.6826265,26.6758939 C84.3228454,26.4544406 85.0341997,26.011534 85.8166895,25.4948097 L87.7373461,28.1522491 C85.8166895,29.7762399 83.6826265,30.5882353 81.2640219,30.5882353 C78.5608755,30.5882353 76.497948,29.7762399 75.0752394,28.0784314 C73.6525308,26.3806228 72.9411765,24.16609 72.9411765,21.2871972 C72.9411765,19.4417532 73.2257182,17.8177624 73.8659371,16.4152249 C74.506156,14.9388697 75.3597811,13.8316032 76.5690834,13.0196078 C77.7783858,12.2076125 79.129959,11.7647059 80.7660739,11.7647059 C83.1846785,11.7647059 85.1053352,12.5767013 86.4569083,14.1268743 C87.5950752,15.6770473 88.2352941,17.8915802 88.2352941,20.7704729 Z M83.6826265,19.4417532 C83.6826265,16.4890427 82.6867305,15.0126874 80.623803,15.0126874 C79.6990424,15.0126874 78.9165527,15.3817762 78.4186047,16.1199539 C77.9206566,16.8581315 77.5649795,18.0392157 77.4227086,19.6632065 L83.6826265,19.6632065 L83.6826265,19.4417532 Z" id="Shape" fill-rule="nonzero"></path>
                <path d="M97.5131043,11.7647059 C100.087362,11.7647059 102.283052,12.5 104.100175,13.8970588 L102.207338,16.6176471 C100.693069,15.6617647 99.1788002,15.2205882 97.6645312,15.2205882 C96.8316832,15.2205882 96.2259755,15.3676471 95.7716948,15.6617647 C95.3174141,15.9558824 95.0902737,16.3235294 95.0902737,16.8382353 C95.0902737,17.2058824 95.1659872,17.5 95.3931275,17.7205882 C95.6202679,17.9411765 95.9231217,18.2352941 96.5288294,18.4558824 C97.0588235,18.6764706 97.8916715,18.9705882 98.9516599,19.2647059 C100.844496,19.7794118 102.283052,20.4411765 103.267327,21.3235294 C104.175888,22.2058824 104.705882,23.3823529 104.705882,24.8529412 C104.705882,26.0294118 104.327315,27.0588235 103.645894,27.9411765 C102.964473,28.8235294 101.980198,29.4852941 100.844496,29.9264706 C99.633081,30.3676471 98.3459522,30.5882353 96.8316832,30.5882353 C95.3174141,30.5882353 93.8788585,30.3676471 92.6674432,29.9264706 C91.3803145,29.4852941 90.3203262,28.8235294 89.4117647,28.0147059 L91.8345952,25.4411765 C93.3488643,26.6176471 95.0145603,27.2058824 96.6802563,27.2058824 C97.5888177,27.2058824 98.3459522,27.0588235 98.8759464,26.6911765 C99.4059406,26.3235294 99.7087944,25.8823529 99.7087944,25.2941176 C99.7087944,24.8529412 99.633081,24.4852941 99.4059406,24.1911765 C99.1788002,23.8970588 98.800233,23.6764706 98.2702388,23.4558824 C97.7402446,23.2352941 96.8316832,22.9411765 95.6959814,22.6470588 C93.8788585,22.1323529 92.5160163,21.4705882 91.6074549,20.5882353 C90.6988934,19.7058824 90.3203262,18.6029412 90.3203262,17.2058824 C90.3203262,16.1764706 90.62318,15.2941176 91.2288876,14.4852941 C91.8345952,13.6764706 92.6674432,13.0882353 93.7274316,12.5735294 C94.7874199,11.9852941 96.0745486,11.7647059 97.5131043,11.7647059 Z" id="Path"></path>
                <path d="M112.807222,11.7647059 C115.381479,11.7647059 117.577169,12.5 119.394292,13.8970588 L117.501456,16.6176471 C115.987187,15.6617647 114.472918,15.2205882 112.958649,15.2205882 C112.125801,15.2205882 111.520093,15.3676471 111.065812,15.6617647 C110.611532,15.9558824 110.384391,16.3235294 110.384391,16.8382353 C110.384391,17.2058824 110.460105,17.5 110.687245,17.7205882 C110.914386,17.9411765 111.217239,18.2352941 111.822947,18.4558824 C112.352941,18.6764706 113.185789,18.9705882 114.245778,19.2647059 C116.138614,19.7794118 117.577169,20.4411765 118.561444,21.3235294 C119.470006,22.2058824 120,23.3823529 120,24.8529412 C120,26.0294118 119.621433,27.0588235 118.940012,27.9411765 C118.258591,28.8235294 117.274316,29.4852941 116.138614,29.9264706 C114.927199,30.3676471 113.64007,30.5882353 112.125801,30.5882353 C110.611532,30.5882353 109.172976,30.3676471 107.961561,29.9264706 C106.674432,29.4852941 105.614444,28.8235294 104.705882,28.0147059 L107.128713,25.4411765 C108.642982,26.6176471 110.308678,27.2058824 111.974374,27.2058824 C112.882935,27.2058824 113.64007,27.0588235 114.170064,26.6911765 C114.700058,26.3235294 115.002912,25.8823529 115.002912,25.2941176 C115.002912,24.8529412 114.927199,24.4852941 114.700058,24.1911765 C114.472918,23.8970588 114.094351,23.6764706 113.564356,23.4558824 C113.034362,23.2352941 112.125801,22.9411765 110.990099,22.6470588 C109.172976,22.1323529 107.810134,21.4705882 106.901573,20.5882353 C105.993011,19.7058824 105.614444,18.6029412 105.614444,17.2058824 C105.614444,16.1764706 105.917298,15.2941176 106.523005,14.4852941 C107.128713,13.6764706 107.961561,13.0882353 109.021549,12.5735294 C110.157251,11.9852941 111.368666,11.7647059 112.807222,11.7647059 Z" id="Path"></path>
                <path d="M20,0 C8.94545455,0 0,9.20855615 0,20.5882353 C0,31.9679144 8.94545455,41.1764706 20,41.1764706 C31.0545455,41.1764706 40,31.9679144 40,20.5882353 C40,9.20855615 30.9818182,0 20,0 Z M10.6181818,25.0053476 C11.2727273,25.9037433 12.1454545,26.2780749 13.3818182,26.2780749 C13.9636364,26.2780749 14.5454545,26.2032086 15.0545455,25.9786096 C15.5636364,25.7540107 16.1454545,25.4545455 16.8727273,25.0053476 L18.9090909,28 C17.2363636,29.4224599 15.3454545,30.0962567 13.1636364,30.0962567 C11.4181818,30.0962567 9.96363636,29.7219251 8.65454545,28.973262 C7.41818182,28.2245989 6.4,27.1016043 5.74545455,25.6791444 C5.09090909,24.2566845 4.72727273,22.6096257 4.72727273,20.6631016 C4.72727273,18.7914439 5.09090909,17.0695187 5.74545455,15.6470588 C6.4,14.1497326 7.41818182,13.026738 8.65454545,12.2032086 C9.89090909,11.3796791 11.4181818,11.0053476 13.0909091,11.0053476 C14.2545455,11.0053476 15.3454545,11.1550802 16.2181818,11.5294118 C17.1636364,11.9037433 18.0363636,12.4278075 18.9090909,13.1764706 L16.8727273,16.0213904 C16.2909091,15.5721925 15.7090909,15.2727273 15.2,15.0481283 C14.6909091,14.8235294 14.0363636,14.7486631 13.4545455,14.7486631 C10.9818182,14.7486631 9.74545455,16.6951872 9.74545455,20.6631016 C9.67272727,22.684492 10.0363636,24.1069519 10.6181818,25.0053476 Z M30.6181818,29.6470588 C29.8909091,31.9679144 28.8,33.6898396 27.2727273,34.9625668 C25.7454545,36.2352941 23.7090909,36.9090909 21.1636364,37.1336898 L20.6545455,33.6149733 C22.3272727,33.3903743 23.5636364,33.0160428 24.3636364,32.4171123 C24.6545455,32.1925134 25.2363636,31.5187166 25.2363636,31.5187166 L19.2,11.6042781 L24.2181818,11.6042781 L27.7090909,26.5026738 L31.4181818,11.6042781 L36.2909091,11.6042781 L30.6181818,29.6470588 Z" id="Shape"></path>
            </g>
        </g>
    </g>
</svg>
