<?xml version="1.0" encoding="UTF-8"?>
<svg width="148px" height="148px" viewBox="0 0 148 148" version="1.1" xmlns="http://www.w3.org/2000/svg" xmlns:xlink="http://www.w3.org/1999/xlink">
    <!-- Generator: Sketch 52.3 (67297) - http://www.bohemiancoding.com/sketch -->
    <title>docker copy</title>
    <desc>Created with Sketch.</desc>
    <g id="docker-copy" stroke="none" stroke-width="1" fill="none" fill-rule="evenodd">
        <g id="docker" transform="translate(26.000000, 41.000000)" fill="#0097F4">
            <path d="M95.0532216,24.6692439 C94.7928475,24.4710311 92.3622858,22.711715 87.2364891,22.711715 C85.8830272,22.7173819 84.5323868,22.8286593 83.1977342,23.0445168 C82.2056792,16.5260319 76.583855,13.3479292 76.3318107,13.2053551 L74.9553746,12.4444444 L74.050111,13.6967014 C72.916449,15.3788703 72.0888408,17.2332358 71.6030241,19.1809764 C70.6852657,22.9019427 71.2433638,26.3968768 73.2151135,29.3847519 C70.8341277,30.6567142 67.0146352,30.9698106 66.2417083,30.9975012 L3.00505298,30.9975012 C1.35332974,30.9996906 0.0130343927,32.2792518 0.00403281005,33.8625074 C-0.0697264267,39.1731691 0.868856502,44.4521475 2.77356451,49.4395381 C4.95194751,54.9159567 8.19278596,58.9498906 12.4091541,61.4186 C17.1339102,64.1924206 24.8101105,65.7774794 33.5114165,65.7774794 C37.4422867,65.7893283 41.3657676,65.4482838 45.2304022,64.759111 C50.6026005,63.8135108 55.7720616,62.0134961 60.5248972,59.4332518 C64.4411231,57.2592214 67.9657129,54.4935147 70.9624338,51.242515 C75.9724191,45.8057648 78.9570484,39.7508069 81.1766774,34.3696953 C81.474267,34.3696953 81.771991,34.3696953 82.0612508,34.3696953 C87.5465735,34.3696953 90.9197486,32.2654709 92.7798518,30.5021622 C94.0160243,29.3775394 94.9810746,28.0075654 95.6072892,26.4880624 L96,25.3864936 L95.0532216,24.6692439 Z" id="Path"></path>
            <path d="M9.54961281,30.2222222 L17.1170433,30.2222222 C17.4820192,30.2222222 17.7777672,29.8961628 17.7777672,29.4940756 L17.7777672,22.0655788 C17.7798069,21.6633595 17.4856186,21.3355811 17.1207627,21.3333333 C17.1195629,21.3333333 17.1182431,21.3333333 17.1170433,21.3333333 L9.54961281,21.3333333 C9.18463693,21.3333333 8.88888889,21.6593928 8.88888889,22.0614799 C8.88888889,22.0628021 8.88888889,22.0642566 8.88888889,22.0655788 L8.88888889,29.4939434 C8.88888889,29.8961628 9.18463693,30.2222222 9.54961281,30.2222222" id="Path"></path>
            <path d="M20.2198319,30.2222222 L27.7839952,30.2222222 C28.1488136,30.2222222 28.4444339,29.8961628 28.4444339,29.4940756 L28.4444339,22.0655788 C28.4464727,21.6633595 28.1524114,21.3355811 27.7875931,21.3333333 C27.7863938,21.3333333 27.7850746,21.3333333 27.7838753,21.3333333 L20.219712,21.3333333 C19.8528549,21.3333333 19.5555556,21.6611117 19.5555556,22.0655788 L19.5555556,29.4939434 C19.5577142,29.8968239 19.8544139,30.2222222 20.2198319,30.2222222" id="Path"></path>
            <path d="M30.8830572,30.2222222 L38.4503856,30.2222222 C38.8153565,30.2222222 39.1111006,29.8961628 39.1111006,29.4940756 L39.1111006,22.0655788 C39.1131402,21.6633595 38.8189558,21.3355811 38.4539849,21.3333333 C38.4527851,21.3333333 38.4514654,21.3333333 38.4502656,21.3333333 L30.8829372,21.3333333 C30.5179663,21.3333333 30.2222222,21.6593928 30.2222222,22.0614799 C30.2222222,22.0628021 30.2222222,22.0642566 30.2222222,22.0655788 L30.2222222,29.4939434 C30.2223422,29.8961628 30.5182062,30.2222222 30.8830572,30.2222222" id="Path"></path>
            <path d="M41.5493372,30.2222222 L49.1136116,30.2222222 C49.4790349,30.2222222 49.775739,29.8969561 49.7777778,29.4940756 L49.7777778,22.0655788 C49.7777778,21.6611117 49.4804741,21.3333333 49.1136116,21.3333333 L41.5493372,21.3333333 C41.1845136,21.3333333 40.8888889,21.6593928 40.8888889,22.0614799 C40.8888889,22.0628021 40.8888889,22.0642566 40.8888889,22.0655788 L40.8888889,29.4939434 C40.8888889,29.8961628 41.1846335,30.2222222 41.5493372,30.2222222" id="Path"></path>
            <path d="M20.2197217,19.5555556 L27.7839961,19.5555556 C28.1492995,19.5533077 28.4444444,19.2260534 28.4444444,18.8232992 L28.4444444,11.3948241 C28.4444444,10.9925988 28.1486998,10.6666667 27.7839961,10.6666667 L20.2197217,10.6666667 C19.8544183,10.6666667 19.5575943,10.9919376 19.5555556,11.3948241 L19.5555556,18.8232992 C19.5575943,19.2268468 19.8536988,19.5533077 20.2197217,19.5555556" id="Path"></path>
            <path d="M30.8829469,19.5555556 L38.4503864,19.5555556 C38.8158426,19.5533077 39.1111111,19.2260534 39.1111111,18.8232992 L39.1111111,11.3948241 C39.1111111,10.9925988 38.8152427,10.6666667 38.4503864,10.6666667 L30.8829469,10.6666667 C30.5179706,10.6666667 30.2222222,10.992731 30.2222222,11.3948241 L30.2222222,18.8232992 C30.2222222,19.2260534 30.5174907,19.5533077 30.8829469,19.5555556" id="Path"></path>
            <path d="M41.5493372,19.5555556 L49.1136116,19.5555556 C49.4796346,19.5533077 49.775739,19.2268468 49.7777778,18.8232992 L49.7777778,11.3948241 C49.775739,10.9919376 49.4790349,10.6666667 49.1136116,10.6666667 L41.5493372,10.6666667 C41.1845136,10.6666667 40.8888889,10.992731 40.8888889,11.3948241 L40.8888889,18.8232992 C40.8888889,19.2260534 41.1840339,19.5533077 41.5493372,19.5555556" id="Path"></path>
            <path d="M41.5493372,8.88888889 L49.1136116,8.88888889 C49.4790349,8.88888889 49.775739,8.56349053 49.7777778,8.16074229 L49.7777778,0.728146595 C49.775739,0.325266138 49.4790349,0 49.1136116,0 L41.5493372,0 C41.1845136,0 40.8888889,0.325927248 40.8888889,0.728146595 L40.8888889,8.16061007 C40.8888889,8.56282942 41.1846335,8.88888889 41.5493372,8.88888889" id="Path"></path>
            <path d="M52.2160039,30.2222222 L59.7802783,30.2222222 C60.1457016,30.2222222 60.4424057,29.8969561 60.4444444,29.4940756 L60.4444444,22.0655788 C60.4444444,21.6611117 60.1471407,21.3333333 59.7802783,21.3333333 L52.2160039,21.3333333 C51.8513002,21.3333333 51.5555556,21.6593928 51.5555556,22.0614799 C51.5555556,22.0628021 51.5555556,22.0642566 51.5555556,22.0655788 L51.5555556,29.4939434 C51.5555556,29.8961628 51.8513002,30.2222222 52.2160039,30.2222222" id="Path"></path>
        </g>
    </g>
</svg>