<?xml version="1.0" encoding="UTF-8"?>
<svg width="148px" height="148px" viewBox="0 0 148 148" version="1.1" xmlns="http://www.w3.org/2000/svg" xmlns:xlink="http://www.w3.org/1999/xlink">
    <!-- Generator: Sketch 52.3 (67297) - http://www.bohemiancoding.com/sketch -->
    <title>docker-logo-light</title>
    <desc>Created with Sketch.</desc>
    <g id="Symbols" stroke="none" stroke-width="1" fill="none" fill-rule="evenodd">
        <g id="tech-docker-copy">
            <rect id="Rectangle-9" fill-rule="nonzero" x="0" y="0" width="148" height="148"></rect>
            <g id="docker" transform="translate(0.000000, 55.000000)" fill="#FFFFFF">
                <path d="M69.4995723,11.0007596 C68.7054322,10.975758 68.0405038,11.5710142 68.0142825,12.3304115 C68.0132216,12.3606309 68.0132216,12.3908502 68.0142825,12.4210696 L68.0142825,19.2505004 C64.5683859,16.6041684 59.5315567,17.1302172 56.7642296,20.4252871 C55.6226201,21.7846511 55.0006611,23.4759208 55.0011916,25.2192953 C54.9257108,29.4436287 58.4456483,32.9266094 62.8633226,32.9988605 C67.2809212,33.0710392 70.9232498,29.7050951 70.9988064,25.4807617 C71.0003979,25.3935821 71.0003979,25.3064749 70.9988064,25.2193678 L70.9988064,12.4278092 C71.0107045,12.0444508 70.852316,11.6742093 70.5628213,11.4088297 C70.2793135,11.1437399 69.8959982,10.9990204 69.4995723,11.0074992 M67.6202059,27.0610821 C67.1093463,28.21007 66.1559841,29.1273762 64.9574608,29.6229883 C63.7017964,30.1313547 62.2842574,30.1313547 61.0285172,29.6229883 C59.8324948,29.1320142 58.8827702,28.2157951 58.3797921,27.0677492 C57.8542303,25.8804979 57.8542303,24.540338 58.3797921,23.3531592 C58.8838312,22.2089541 59.8338589,21.297373 61.0285172,20.8113268 C62.2841816,20.3029603 63.7017206,20.3029603 64.9574608,20.8113268 C66.1559083,21.3069388 67.1093463,22.2241001 67.6202059,23.3732329 C68.1456161,24.5558463 68.1456161,25.8918754 67.6202059,27.0744888" id="Shape" fill-rule="nonzero"></path>
                <path d="M85.6554906,20.1760789 C82.5299328,17.2727977 77.4646088,17.2749115 74.341855,20.1807995 C72.8436819,21.5748057 72.0019494,23.4645524 72.0011916,25.4351142 C71.9257108,29.5423065 75.4456483,32.9286458 79.8633226,32.9988922 C84.2809212,33.0690681 87.9232498,29.7964475 87.9988064,25.6893256 C88.0003979,25.6046354 88.0003979,25.5199453 87.9988064,25.4351846 C87.9994885,24.4570904 87.7983578,23.4879444 87.4065548,22.580167 C87.0029294,21.6773921 86.4073433,20.8597302 85.6554906,20.1760789 M84.6225552,27.2257973 C84.3670875,27.7769881 84.0034003,28.2791403 83.5499849,28.7064665 C83.0925529,29.1336517 82.5522133,29.476499 81.957385,29.7166189 C80.7025542,30.2110208 79.2856973,30.2110208 78.0308665,29.7166189 C76.83348,29.2403247 75.8826186,28.3493162 75.3797921,27.2323499 C74.8542303,26.0780409 74.8542303,24.7750662 75.3797921,23.6207572 C75.8852711,22.5099911 76.8362082,21.625958 78.0308665,21.156005 C79.2856973,20.6616031 80.7025542,20.6616031 81.957385,21.156005 C82.5522133,21.3961249 83.0925529,21.7389017 83.5499849,22.1662279 C84.0034003,22.5934131 84.3670875,23.0955653 84.6225552,23.6468266 C85.1449341,24.7971899 85.1449341,26.0950212 84.6225552,27.2453846" id="Shape" fill-rule="nonzero"></path>
                <path d="M118.99679,19.0333401 C118.997787,18.8440832 118.956821,18.6567955 118.8765,18.4835836 C118.794721,18.3173731 118.683714,18.1656029 118.548387,18.0347641 C118.414749,17.9023208 118.254106,17.796935 118.076356,17.7250976 C117.888556,17.651437 117.687178,17.6140961 117.483882,17.6151171 C117.196812,17.6132939 116.915342,17.6912575 116.674225,17.8395269 L108.028378,23.1867801 L108.028378,12.4497548 C108.03605,12.0654066 107.876328,11.6951341 107.587033,11.426528 C107.308862,11.1486596 106.921142,10.9941181 106.517771,11.0001714 C105.68487,10.995212 105.005323,11.6331425 105.000107,12.425031 C105.000107,12.4310843 105.000107,12.4370647 105.000107,12.4430451 L105.000107,31.5498172 C104.995274,31.9316857 105.154765,32.298895 105.441528,32.5663343 C105.72177,32.8451508 106.112099,32.9997652 106.517771,32.9926909 C106.919838,32.9988901 107.306101,32.8441297 107.582277,32.5663343 C107.86904,32.298895 108.028531,31.9316857 108.023698,31.5498172 L108.023698,26.5952993 L109.786853,25.4957864 L116.469011,32.6292011 C116.739664,32.8766571 117.103833,33.0101215 117.479202,32.9994006 C117.682498,33.0015885 117.884107,32.9641747 118.071677,32.8894201 C118.24981,32.8192602 118.410606,32.7146037 118.543708,32.5820145 C118.681182,32.4477479 118.792343,32.2912372 118.871743,32.1197756 C118.952141,31.9465637 118.993108,31.759276 118.992187,31.5700192 C118.993108,31.1971941 118.843512,30.8381531 118.574394,30.5669944 L112.362042,23.9137597 L118.418661,20.1754449 C118.809834,19.9185078 119.029547,19.4844204 118.99679,19.0333401" id="Path"></path>
                <path d="M93.5175961,21.1715353 C93.9878302,20.744365 94.5421423,20.4033956 95.1510896,20.1665915 C95.7816746,19.9200597 96.4605581,19.7952317 97.1458557,19.799563 C97.752562,19.7944506 98.3549407,19.8937166 98.9219263,20.0923195 C99.4901483,20.3022834 100.016409,20.5975962 100.479224,20.9661868 C100.760592,21.1721034 101.111046,21.2818072 101.470695,21.2764108 C101.880576,21.292245 102.278942,21.1495946 102.569196,20.8831811 C102.854891,20.6156316 103.010219,20.2529345 102.999478,19.8782373 C103.004501,19.4714456 102.811848,19.0838255 102.47399,18.8208203 C101.014603,17.6206108 99.1159703,16.9706956 97.1576019,17.001015 C92.6522418,17.001015 89.0000262,20.3568868 89.0000262,24.4965197 C88.9887436,28.630188 92.6265856,31.9895391 97.1253771,31.999977 C99.089155,32.0044503 100.988638,31.3569493 102.474067,30.1766214 C102.780473,29.9087168 102.95257,29.5362209 102.949556,29.1476776 C102.976294,28.4036088 102.341536,27.7806047 101.531745,27.7560367 C101.49952,27.7550427 101.467218,27.7550427 101.434993,27.7560367 C101.088403,27.7574569 100.751164,27.8599181 100.472037,28.0487933 C100.016718,28.4172419 99.4944759,28.7094304 98.9289585,28.9116547 C98.3613547,29.1077724 97.7592078,29.2055473 97.152888,29.2000799 C96.4676677,29.2044822 95.7887069,29.0795832 95.1581218,28.8330513 C94.5497155,28.5954662 93.9954807,28.2545678 93.5247057,27.8281785 C91.5261529,26.0027638 91.516416,23.0342991 93.5029907,21.1979494 C93.5102548,21.1912749 93.5175188,21.1846714 93.5247057,21.1780678" id="Path"></path>
                <path d="M147.609859,17.9388441 C147.322842,17.6837708 146.981703,17.489436 146.609326,17.3685292 C146.183505,17.2237406 145.741274,17.1265732 145.291591,17.0790232 C144.846725,17.0272671 144.398924,17.00089 143.950672,17.0000345 C143.041068,16.9973968 142.138089,17.1458213 141.282758,17.4387493 C140.444439,17.7282554 139.662048,18.1461536 138.966748,18.6758335 L138.966748,18.395096 C138.934305,17.6192539 138.243898,17.0151479 137.424699,17.0458023 C136.650964,17.0747458 136.030561,17.6622414 136,18.395096 L136,30.6495231 C136.032368,31.4254364 136.722775,32.0294712 137.541974,31.9988881 C138.315784,31.9699446 138.936112,31.382449 138.966748,30.6495231 L138.966748,24.5233432 C138.962307,23.8905076 139.094638,23.2634464 139.355761,22.680941 C139.605518,22.1223176 139.966454,21.6144522 140.418846,21.1850764 C140.874024,20.7571264 141.410798,20.4147236 142.00064,20.1761181 C142.615774,19.9286014 143.277803,19.8032747 143.94608,19.8076234 C144.610367,19.8014212 145.269912,19.9153416 145.889111,20.1431824 C146.084746,20.2323654 146.297619,20.2824105 146.514482,20.2901811 C146.713881,20.291892 146.911624,20.2553206 147.095818,20.1826767 C147.270376,20.1128131 147.427999,20.0098 147.558974,19.8800534 C147.691305,19.7522316 147.799398,19.6038784 147.878585,19.44141 C147.958977,19.2678917 148.000076,19.0803293 147.999022,18.8908422 C148.0134,18.5378173 147.868649,18.1956997 147.600751,17.9498227" id="Path"></path>
                <path d="M134.416042,21.6119256 C133.145218,18.8279621 130.232747,17.0162688 127.00183,17.0000003 C122.583852,16.9987926 119.001289,20.3543539 119,24.4949206 C119,24.4956311 119,24.4964125 119,24.4970519 C118.999166,28.6400341 122.582108,31.9992894 127.002664,31.9999999 C128.921748,32.0003551 130.777234,31.3544482 132.230741,30.1799947 C132.251738,30.1603873 132.284408,30.1341021 132.289108,30.1275663 C132.419412,30.0286769 132.533343,29.9123824 132.627262,29.7822349 C133.107544,29.1339837 132.936231,28.243624 132.24484,27.7932227 C131.665256,27.4403609 130.903293,27.5044401 130.399966,27.9484477 C130.350998,27.9900068 130.211067,28.1124109 130.187796,28.129887 L130.166799,28.1473632 C129.741018,28.4867271 129.254671,28.7530606 128.73012,28.9342158 C128.175248,29.1175021 127.590282,29.2077955 127.001982,29.2009045 C126.459769,29.203391 125.920739,29.1221909 125.406649,28.96043 C124.906127,28.803642 124.434259,28.5758838 124.007341,28.2850411 C123.581939,27.9934168 123.208083,27.6408392 122.899568,27.2402378 C122.584382,26.8312534 122.34318,26.3763765 122.18589,25.8938645 L133.499593,25.8938645 C133.896569,25.9023184 134.28028,25.7595255 134.563022,25.4982359 C134.854027,25.2398589 135.012832,24.8769804 134.999188,24.5015275 C135.008284,23.5131309 134.809379,22.532691 134.413768,21.6164012 L134.416042,21.6119256 Z M122.183464,23.1091195 C122.332946,22.6261812 122.569601,22.170807 122.883043,21.7627462 C123.193453,21.3615053 123.569735,21.0088567 123.997865,20.7179429 C124.430848,20.4273842 124.908098,20.1996971 125.413547,20.0425539 C125.924984,19.8829243 126.460527,19.8017242 126.99948,19.8020794 C127.535402,19.801511 128.067912,19.8827822 128.57609,20.0425539 C129.58479,20.3566982 130.46364,20.9580622 131.090221,21.7627462 C131.410182,22.1703097 131.654568,22.6255418 131.813222,23.1091195 L122.183464,23.1091195 Z" id="Shape" fill-rule="nonzero"></path>
                <path d="M142.984168,31.000063 C142.432013,31.0087744 141.991416,31.4635229 142.000127,32.0157803 C142.008838,32.5680376 142.463636,33.0085844 143.015791,32.999873 C143.564432,32.9912348 144.003565,32.5420499 143.999978,31.9933064 C143.993756,31.43856 143.539032,30.9939138 142.984314,31.000063 C142.984314,31.000063 142.984241,31.000063 142.984168,31.000063 M142.984168,32.7861149 C142.546792,32.8060266 142.176102,32.4675274 142.156191,32.0302016 C142.136354,31.5927295 142.474762,31.2220201 142.912138,31.2021084 C143.349514,31.1822699 143.720204,31.5206959 143.740115,31.9580948 C143.740773,31.9720038 143.741066,31.9860591 143.74092,32.0000412 C143.755853,32.4189925 143.428352,32.7706686 143.009496,32.7856024 C143.001077,32.7859684 142.992659,32.7861149 142.984168,32.7861149" id="Shape" fill-rule="nonzero"></path>
                <path d="M143.711633,31.5249836 L143.711633,31.5117629 C143.839271,31.4908956 143.935337,31.4014236 143.947999,31.2919418 C143.952811,31.2079724 143.911531,31.1267902 143.836316,31.0720493 C143.714334,31.0173799 143.57665,30.9930109 143.438967,31.0017294 C143.291828,31.0000143 143.144859,31.010305 143,31.0325301 L143,32 L143.25975,32 L143.25975,31.610811 L143.384434,31.610811 C143.5325,31.610811 143.600034,31.6569762 143.623333,31.7647429 C143.638865,31.8464254 143.66858,31.9256782 143.711717,32 L144,32 C143.955259,31.924106 143.926304,31.8422805 143.914233,31.7580968 C143.902583,31.6528314 143.822387,31.5620015 143.706399,31.5228397 M143.392115,31.4524483 L143.264815,31.4524483 L143.264815,31.1731698 C143.31403,31.1682389 143.363751,31.1682389 143.412882,31.1731698 C143.579183,31.1731698 143.657099,31.2325558 143.657099,31.3205271 C143.657099,31.4084984 143.53765,31.4634537 143.397434,31.4634537" id="Shape" fill-rule="nonzero"></path>
                <path d="M53.4674372,13.8764497 C53.3209767,13.764955 51.9537858,12.7753397 49.0705251,12.7753397 C48.3092028,12.7785273 47.5494676,12.8411209 46.7987255,12.9625407 C46.2406946,9.29589295 43.0784184,7.50821019 42.9366435,7.42801223 L42.1623982,7 L41.6531874,7.70439453 C41.0155026,8.65061453 40.549973,9.69369511 40.276701,10.7892992 C39.7604619,12.8823428 40.0743921,14.8482432 41.1835013,16.5289229 C39.8441968,17.2444017 37.6957323,17.4205185 37.2609609,17.4360944 L1.6903423,17.4360944 C0.761247979,17.437326 0.00733184588,18.1570791 0.00226845565,19.0476604 C-0.039221115,22.0349076 0.488731782,25.004333 1.56013004,27.8097402 C2.78547047,30.8902256 4.6084421,33.1593135 6.9801492,34.5479625 C9.63782448,36.1082366 13.9556872,36.9998321 18.8501718,36.9998321 C21.0612863,37.0064972 23.2682443,36.8146596 25.4421013,36.4269999 C28.4639628,35.8950998 31.3717847,34.8825916 34.0452547,33.4312041 C36.2481317,32.208312 38.2307135,30.652602 39.916369,28.8239147 C42.7344858,25.7657427 44.4133397,22.3598289 45.661881,19.3329536 C45.8292752,19.3329536 45.996745,19.3329536 46.1594536,19.3329536 C49.2449476,19.3329536 51.1423586,18.1493274 52.1886666,17.1574663 C52.8840137,16.5248659 53.4268545,15.7542556 53.7791002,14.8995351 L54,14.2799027 L53.4674372,13.8764497 Z" id="Path"></path>
                <path d="M4.3716572,17 L8.62833687,17 C8.8336358,17 8.99999407,16.8165915 8.99999407,16.5904175 L8.99999407,12.4118881 C9.00114137,12.1856397 8.83566044,12.0012644 8.630429,12 C8.62975412,12 8.62901175,12 8.62833687,12 L4.3716572,12 C4.16635827,12 4,12.1834085 4,12.4095825 C4,12.4103262 4,12.4111443 4,12.4118881 L4,16.5903432 C4,16.8165915 4.16635827,17 4.3716572,17" id="Path"></path>
                <path d="M11.3736554,17 L15.6284973,17 C15.8337076,17 15.9999941,16.8165915 15.9999941,16.5904175 L15.9999941,12.4118881 C16.0011409,12.1856397 15.8357314,12.0012644 15.6305211,12 C15.6298465,12 15.6291045,12 15.6284299,12 L11.373588,12 C11.1672309,12 11,12.1843753 11,12.4118881 L11,16.5903432 C11.0012143,16.8169634 11.1681078,17 11.3736554,17" id="Path"></path>
                <path d="M17.3717197,17 L21.6283419,17 C21.833638,17 21.9999941,16.8165915 21.9999941,16.5904175 L21.9999941,12.4118881 C22.0011414,12.1856397 21.8356627,12.0012644 21.6303665,12 C21.6296916,12 21.6289493,12 21.6282744,12 L17.3716522,12 C17.166356,12 17,12.1834085 17,12.4095825 C17,12.4103262 17,12.4111443 17,12.4118881 L17,16.5903432 C17.0000675,16.8165915 17.166491,17 17.3717197,17" id="Path"></path>
                <path d="M24.3715022,17 L28.6264065,17 C28.8319571,17 28.9988532,16.8170378 29,16.5904175 L29,12.4118881 C29,12.1843753 28.8327667,12 28.6264065,12 L24.3715022,12 C24.1662889,12 24,12.1834085 24,12.4095825 C24,12.4103262 24,12.4111443 24,12.4118881 L24,16.5903432 C24,16.8165915 24.1663564,17 24.3715022,17" id="Path"></path>
                <path d="M11.3735935,10 L15.6284978,10 C15.8339809,9.99873561 16,9.81465504 16,9.58810579 L16,5.40958855 C16,5.1833368 15.8336436,5 15.6284978,5 L11.3735935,5 C11.1681103,5 11.0011468,5.18296492 11,5.40958855 L11,9.58810579 C11.0011468,9.8151013 11.1677056,9.99873561 11.3735935,10" id="Path"></path>
                <path d="M17.3716576,10 L21.6283424,10 C21.8339115,9.99873561 22,9.81465504 22,9.58810579 L22,5.40958855 C22,5.1833368 21.833574,5 21.6283424,5 L17.3716576,5 C17.1663585,5 17,5.18341118 17,5.40958855 L17,9.58810579 C17,9.81465504 17.1660885,9.99873561 17.3716576,10" id="Path"></path>
                <path d="M24.3715022,10 L28.6264065,10 C28.8322944,9.99873561 28.9988532,9.8151013 29,9.58810579 L29,5.40958855 C28.9988532,5.18296492 28.8319571,5 28.6264065,5 L24.3715022,5 C24.1662889,5 24,5.18341118 24,5.40958855 L24,9.58810579 C24,9.81465504 24.1660191,9.99873561 24.3715022,10" id="Path"></path>
                <path d="M24.3715022,5 L28.6264065,5 C28.8319571,5 28.9988532,4.81696342 29,4.59041754 L29,0.409582459 C28.9988532,0.182962203 28.8319571,0 28.6264065,0 L24.3715022,0 C24.1662889,0 24,0.183334077 24,0.409582459 L24,4.59034317 C24,4.81659155 24.1663564,5 24.3715022,5" id="Path"></path>
                <path d="M31.3715022,17 L35.6264065,17 C35.8319571,17 35.9988532,16.8170378 36,16.5904175 L36,12.4118881 C36,12.1843753 35.8327667,12 35.6264065,12 L31.3715022,12 C31.1663564,12 31,12.1834085 31,12.4095825 C31,12.4103262 31,12.4111443 31,12.4118881 L31,16.5903432 C31,16.8165915 31.1663564,17 31.3715022,17" id="Path"></path>
            </g>
        </g>
    </g>
</svg>