<?xml version="1.0" encoding="UTF-8"?>
<svg width="148px" height="148px" viewBox="0 0 148 148" version="1.1" xmlns="http://www.w3.org/2000/svg" xmlns:xlink="http://www.w3.org/1999/xlink">
    <!-- Generator: Sketch 52.3 (67297) - http://www.bohemiancoding.com/sketch -->
    <title>tech  shopify copy</title>
    <desc>Created with Sketch.</desc>
    <g id="tech--shopify-copy" stroke="none" stroke-width="1" fill="none" fill-rule="evenodd">
        <rect id="Rectangle-9" fill-rule="nonzero" x="0" y="0" width="148" height="148"></rect>
        <g id="etsy" transform="translate(19.000000, 48.000000)" fill="#F27224" fill-rule="nonzero">
            <path d="M11.7968033,18.7799068 L11.7968033,4.08229316 C11.7968033,3.53768557 11.85131,3.21105037 12.7801947,3.21105037 L25.2859094,3.21105037 C27.4707189,3.21105037 28.672137,5.06219875 29.5461906,8.54587632 L30.2560752,11.3225989 L32.3857292,11.3225989 C32.7676004,3.42966957 33.0949649,0 33.0949649,0 C33.0949649,0 27.7432523,0.598615594 24.5757003,0.598615594 L8.57539354,0.598615594 L0,0.326311796 L0,2.61275818 L2.8950186,3.15704237 C4.91565917,3.53833237 5.40621931,3.97330696 5.57136158,5.82477875 C5.57136158,5.82477875 5.73553051,11.2682675 5.73553051,20.2507354 C5.73553051,29.2319097 5.57136158,34.6217139 5.57136158,34.6217139 C5.57136158,36.2545665 4.91565917,36.8531821 2.8950186,37.2354423 L0,37.7800499 L0,40.0652027 L8.57539354,39.7935457 L22.883722,39.7935457 C26.1057807,39.7935457 33.5874717,40.0652027 33.5874717,40.0652027 C33.7506673,38.1050681 34.843721,29.2319097 35.0075655,28.2532978 L32.9869249,28.2532978 L30.8569465,33.0981709 C29.1636705,36.9078369 26.706652,37.1804641 23.9754779,37.1804641 L15.83776,37.1804641 C13.1069104,37.1804641 11.7961544,36.0915723 11.7961544,33.7511179 L11.7961544,21.3393038 C11.7961544,21.3393038 17.7487384,21.3393038 19.8235612,21.5029448 C21.3529927,21.6122544 22.2809041,22.0475524 22.7730864,24.1703578 L23.4287888,27.0010884 L25.7758206,27.0010884 L25.612625,19.869122 L25.9399896,12.6841179 L23.5923089,12.6841179 L22.828242,15.8411603 C22.3360597,17.9096342 22.0090196,18.291571 19.8787167,18.5085732 C17.4762049,18.7815238 11.79583,18.726869 11.79583,18.726869 L11.79583,18.780877 L11.7968033,18.780877 L11.7968033,18.7799068 Z M44.1815592,5.60680635 C43.4168434,8.98182112 42.6521276,11.5945793 39.9761091,13.3367415 C38.3379886,14.4249865 36.6992193,14.8056297 36.0448146,14.8602845 L36.0448146,16.9287585 L40.9049938,16.9287585 L40.9049938,33.6405147 C40.9049938,38.3227171 44.0183636,40.6094868 48.1683336,40.6094868 C51.3907168,40.6094868 54.7214644,39.2486147 55.8687002,36.4172373 L54.7214644,34.9473789 C54.1750998,35.8732765 52.4286148,37.2338253 50.2438053,37.2338253 C47.8412935,37.2338253 46.5305376,35.6003259 46.5305376,31.4640247 L46.5305376,16.7120797 L54.6137488,17.3113421 L55.0501267,13.6087219 L46.530862,13.9356805 L46.530862,5.66081435 L44.1815592,5.60680635 Z M61.4394129,31.3120262 L59.3642657,31.3663576 C59.473279,32.5635888 59.5284346,34.0884253 59.5284346,35.5036289 C59.5284346,36.9734873 59.4739279,38.3343595 59.3642657,38.9873065 C59.3642657,38.9873065 63.5148846,40.5102027 67.7200103,40.5102027 C73.3997363,40.5102027 77.9328754,37.7884583 77.9328754,32.4536324 C77.9328754,23.3094638 64.170587,24.6706594 64.170587,18.5182753 C64.170587,15.9601719 66.4640855,14.9799429 68.9762595,14.9799429 C70.9423934,14.9799429 72.5805139,15.6875447 72.9082028,16.7227519 L74.2737899,20.8053685 L76.2947549,20.6967057 C76.4589238,18.5189221 76.5676128,16.0148267 76.8956262,14.0010075 C75.147519,13.2387509 71.4881091,12.8024827 69.1962329,12.8024827 C63.8428981,12.8024827 59.5294079,15.1435839 59.5294079,20.3697471 C59.5294079,29.460231 72.9633584,27.609406 72.9633584,34.3060743 C72.9633584,36.7002133 71.4881091,38.3880441 68.1576859,38.3880441 C65.1001206,38.3880441 63.5703646,36.8098463 62.9707911,35.2303549 L61.4394129,31.3120262 Z M94.3552845,37.6008856 C91.1935725,46.4041893 87.3232736,48.6848144 83.8348459,48.6848144 C82.3621922,48.6848144 81.6542542,48.0321909 81.4352541,47.0015113 L80.6176539,42.7620451 L78.3277244,42.8707079 C77.8916709,45.3705991 77.4556175,48.1427941 76.8566928,50.4243894 C78.2196843,51.4553924 80.5079917,52 82.3076855,52 C86.0699443,52 91.793146,51.5100472 97.025463,39.1218414 L105.802661,18.4742927 C106.511897,16.7893725 106.783457,16.6263783 108.855035,15.8107606 L110,15.3770796 L110,13.4751572 L104.820892,13.7468142 L99.2608859,13.4751572 L99.2608859,15.3770796 L100.677411,15.8107606 C102.09426,16.2463819 102.749638,16.7893725 102.749638,17.7676611 C102.749638,18.2563203 102.585469,18.7456263 102.312287,19.5056191 C101.494686,21.5718293 96.4249162,33.8513723 95.0635469,36.4602496 L96.4245917,35.9702968 C94.0256488,30.0478509 90.3749989,20.1575959 89.8292832,18.4746161 C89.7202698,18.1483043 89.6657631,17.8766473 89.6657631,17.6036967 C89.6657631,16.7347177 90.2653366,16.0280861 91.5738215,15.7567526 L93.3728664,15.377403 L93.3728664,13.4754806 L85.9038287,13.7471376 L79.9622759,13.4754806 L79.9622759,15.377403 L80.9437207,15.703068 C82.3063877,16.1377192 82.6337523,16.5183623 83.4513525,18.4199613 C87.9744338,28.7445442 90.1018166,34.3946863 92.9896974,41.7853736 L94.3552845,37.6008856 Z" id="Shape"></path>
        </g>
    </g>
</svg>