<?xml version="1.0" encoding="UTF-8"?>
<svg width="148px" height="148px" viewBox="0 0 148 148" version="1.1" xmlns="http://www.w3.org/2000/svg" xmlns:xlink="http://www.w3.org/1999/xlink">
    <!-- Generator: Sketch 52.3 (67297) - http://www.bohemiancoding.com/sketch -->
    <title>Trello Copy 2</title>
    <desc>Created with Sketch.</desc>
    <g id="Trello-Copy-2" stroke="none" stroke-width="1" fill="none" fill-rule="evenodd">
        <g id="facebook-logo-primary" transform="translate(38.000000, 38.000000)">
            <path d="M68.0264321,72 C70.2206529,72 72,70.2206667 72,68.0259042 L72,3.97381644 C72,1.77877456 70.2209323,0 68.0264321,0 L3.97384728,0 C1.77878836,0 0,1.77877456 0,3.97381644 L0,68.0259042 C0,70.2203873 1.77850898,72 3.97384728,72 L68.0264321,72 Z" id="Blue_1_" fill="#3C5A99"></path>
            <path d="M49.9099281,72 L49.9099281,44.2100329 L59.1630061,44.2100329 L60.5485232,33.3797897 L49.9099281,33.3797897 L49.9099281,26.4653636 C49.9099281,23.3297583 50.7736665,21.1929467 55.2340595,21.1929467 L60.9230769,21.1904406 L60.9230769,11.5037842 C59.939183,11.3717997 56.562123,11.0769231 52.6331764,11.0769231 C44.4308375,11.0769231 38.8152944,16.1240754 38.8152944,25.3927811 L38.8152944,33.3797897 L29.5384615,33.3797897 L29.5384615,44.2100329 L38.8152944,44.2100329 L38.8152944,72 L49.9099281,72 Z" id="f" fill="#FFFFFF"></path>
        </g>
    </g>
</svg>