<?xml version="1.0" encoding="UTF-8"?>
<svg width="148px" height="148px" viewBox="0 0 148 148" version="1.1" xmlns="http://www.w3.org/2000/svg" xmlns:xlink="http://www.w3.org/1999/xlink">
    <!-- Generator: Sketch 52.3 (67297) - http://www.bohemiancoding.com/sketch -->
    <title>graphql-logo</title>
    <desc>Created with Sketch.</desc>
    <g id="Symbols" stroke="none" stroke-width="1" fill="none" fill-rule="evenodd">
        <g id="golang" fill="#00ACD7" fill-rule="nonzero">
            <g id="golang-official" transform="translate(11.000000, 52.000000)">
                <path d="M9.06192018,13.9660911 C8.82738406,13.9660911 8.76968817,13.8455224 8.88648716,13.6656339 L10.1140492,12.0427795 C10.2313173,11.8624088 10.5230803,11.7423224 10.7566782,11.7423224 L31.6289863,11.7423224 C31.8635224,11.7423224 31.9212183,11.9226931 31.8044193,12.1030639 L30.8099861,13.6656339 C30.6927181,13.8460047 30.4009551,14.0263754 30.2255221,14.0263754 L9.06098204,13.9660911 L9.06192018,13.9660911 Z M0.233980375,19.4963351 C-0.000555751512,19.4963351 -0.0582516387,19.3757664 0.0585473524,19.195878 L1.28610944,17.5730236 C1.4033775,17.3926529 1.69514044,17.2725664 1.92873843,17.2725664 L28.5893981,17.2725664 C28.8239342,17.2725664 28.9402641,17.4529372 28.8816301,17.6333079 L28.4139651,19.0753093 C28.355331,19.3164467 28.1217331,19.4360508 27.887666,19.4360508 L0.233980375,19.4963351 Z M14.3826068,25.0265792 C14.1480706,25.0265792 14.0903747,24.8462084 14.2071737,24.6658377 L15.0257048,23.1630697 C15.1429729,22.982699 15.3765709,22.8023282 15.6101688,22.8023282 L27.303202,22.8023282 C27.5377381,22.8023282 27.654068,22.982699 27.654068,23.2228718 L27.5368,24.6648731 C27.5368,24.9060105 27.3022638,25.0854167 27.1277689,25.0854167 L14.3821377,25.0251324 L14.3826068,25.0265792 Z M75.0711749,12.8838666 L65.2473947,15.5286611 C64.3702296,15.7697985 64.3120646,15.8291183 63.5516985,14.9277468 C62.6745334,13.9053245 62.0319044,13.2397854 60.8038732,12.6436938 C57.1207179,10.7801844 53.5538925,11.3212966 50.2216032,13.5455475 C46.2457468,16.190342 44.1996536,20.0977317 44.2578186,24.9667771 C44.3164526,29.7750559 47.5319429,33.7432122 52.1508974,34.4048931 C56.1267538,34.9460053 59.4590431,33.5030394 62.0905384,30.4377014 C62.6168375,29.776985 63.0849716,29.0550198 63.6689666,28.2134504 L52.3854335,28.2134504 C51.1578714,28.2134504 50.8656394,27.4321654 51.2746704,26.409743 C52.0345675,24.5462336 53.4380316,21.4206112 54.2565627,19.8575589 C54.4319957,19.4968174 54.8410268,18.8959031 55.7181919,18.8959031 L77,18.8959031 C76.8827319,20.5187575 76.8827319,22.1416119 76.649134,23.7649485 C76.006505,28.0928818 74.4276078,32.0600735 71.8552155,35.5469196 C67.6457611,41.2570521 62.1501106,44.8041826 55.1923619,45.7663206 C49.4626443,46.5476057 44.1424268,45.4055792 39.4643692,41.7991289 C35.132956,38.4318869 32.6820535,33.983385 32.0389554,28.4536232 C31.2790584,21.9014391 33.1497185,16.0109358 37.008776,10.840951 C41.1600654,5.25042257 46.6557159,1.70377439 53.3793976,0.44166148 C58.8750481,-0.580760897 64.1371007,0.0809199997 68.8728541,3.38691311 C71.9715454,5.49059538 74.1930716,8.37604495 75.6556389,11.8628911 C76.006505,12.4040033 75.772907,12.7044604 75.0711749,12.8853134 L75.0711749,12.8838666 Z" id="Shape"></path>
                <path d="M95.0829154,46 C89.709488,45.8809407 84.8079292,44.3331693 80.6743412,40.7756763 C77.1902833,37.7482355 75.0052853,33.8892842 74.2974824,29.3193106 C73.2343567,22.6115076 75.0649795,16.6752091 79.0806003,11.3927844 C83.3918496,5.69412828 88.5876156,2.72621713 95.614952,1.47990399 C101.638383,0.411227378 107.307439,1.00509535 112.444459,4.50734481 C117.109609,7.71242216 120.002884,12.046182 120.770855,17.7443619 C121.775234,25.7580078 119.471795,32.2872218 113.979927,37.8672948 C110.082747,41.8438767 105.299629,44.3374554 99.8077604,45.4651855 C98.2135457,45.7618813 96.619331,45.821411 95.0843367,45.9995238 L95.0829154,46 Z M109.137114,22.0190683 C109.077894,21.2475638 109.077894,20.6536959 108.959927,20.0603041 C107.896801,14.1835352 102.523374,10.8593986 96.9135382,12.1657176 C91.4216699,13.4120307 87.8788652,16.913804 86.5798052,22.4943532 C85.5166796,27.1243327 87.7608981,31.8143181 92.0124531,33.7130764 C95.260103,35.1370261 98.5077529,34.9593896 101.637909,33.3568509 C106.30306,30.9280404 108.84196,27.1243327 109.137588,22.0190683 L109.137114,22.0190683 Z" id="Shape"></path>
            </g>
        </g>
    </g>
</svg>