<?xml version="1.0" encoding="UTF-8"?>
<svg width="148px" height="148px" viewBox="0 0 148 148" version="1.1" xmlns="http://www.w3.org/2000/svg" xmlns:xlink="http://www.w3.org/1999/xlink">
    <!-- Generator: Sketch 52.3 (67297) - http://www.bohemiancoding.com/sketch -->
    <title>tech google cloud copy</title>
    <desc>Created with Sketch.</desc>
    <g id="tech-google-cloud-copy" stroke="none" stroke-width="1" fill="none" fill-rule="evenodd">
        <g id="google_cloud-ar21" transform="translate(5.000000, 43.000000)" fill-rule="nonzero">
            <g id="g948" transform="translate(35.000000, 0.000000)">
                <path d="M45.3094725,14.7743119 L47.6074031,14.8110093 L53.8514342,9.02752305 L54.1525424,6.57614683 C49.1921824,2.48807335 42.6628908,0 35.5155353,0 C22.5758104,0 11.6566799,8.15412861 8.42372881,19.2 C9.10518505,18.7596332 10.5631807,19.0899078 10.5631807,19.0899078 L23.0433205,17.1889904 C23.0433205,17.1889904 23.685156,16.2055042 24.0100358,16.2642199 C26.8626391,13.3724766 30.9672181,11.5522931 35.5234592,11.5522931 C39.2239193,11.5596424 42.6311952,12.7706418 45.3094725,14.7743119 Z" id="path14" fill="#EA4335"></path>
                <path d="M62.2502035,18.948802 C60.8050659,13.8759979 57.8279243,9.39689986 53.8083885,6 L44.9954178,14.3870359 C48.5253442,17.1000468 50.7917624,21.2484732 50.7917624,25.8929071 L50.7917624,27.3734143 C55.0797937,27.3734143 58.5623386,30.6951604 58.5623386,34.7684342 C58.5623386,38.8492239 55.0718967,42.1634568 50.7917624,42.1634568 L35.2506098,42.1634568 L33.6949153,43.6514779 L33.6949153,52.5270057 L35.2506098,54 L50.7917624,54 C61.9343265,54 71,45.3724737 71,34.7684342 C70.992218,28.2226392 67.5253516,22.4208545 62.2502035,18.948802 Z" id="path16" fill="#4285F4"></path>
                <path d="M20.6042392,54 L36.1016949,54 L36.1016949,42.6349989 L20.6042392,42.6349989 C19.461824,42.6349989 18.3824383,42.404089 17.4133548,42 L15.1757964,42.6277826 L8.96736039,48.3138913 L8.42372881,50.2333139 C11.811579,52.592905 16.0345777,54 20.6042392,54 Z" id="path18" fill="#34A853"></path>
                <path d="M20.0966367,15.6 C9.01560879,15.6 0,24.2905372 0,34.9720246 C0,41.2628226 3.12562032,46.8571673 7.96326272,50.4 L16.923897,41.7624532 C14.2380624,40.5890788 12.3689733,37.9925172 12.3689733,34.9720246 C12.3689733,30.8614301 15.8401396,27.5229932 20.0966367,27.5229932 C23.2301099,27.5229932 25.9237974,29.3322607 27.1410613,31.9136834 L36.1016949,23.2761365 C32.426343,18.6129215 26.6227424,15.6 20.0966367,15.6 Z" id="path20" fill="#FBBC05"></path>
            </g>
        </g>
    </g>
</svg>