<?xml version="1.0" encoding="UTF-8"?>
<svg width="148px" height="148px" viewBox="0 0 148 148" version="1.1" xmlns="http://www.w3.org/2000/svg" xmlns:xlink="http://www.w3.org/1999/xlink">
    <!-- Generator: Sketch 52.3 (67297) - http://www.bohemiancoding.com/sketch -->
    <title>Trello Copy 4</title>
    <desc>Created with Sketch.</desc>
    <g id="Trello-Copy-4" stroke="none" stroke-width="1" fill="none" fill-rule="evenodd">
        <g id="Group" transform="translate(34.000000, 38.000000)">
            <path d="M27.2771084,9.18875502 C28.0481928,7.16465863 29.1084337,5.30120482 30.6827309,3.79116466 C36.9799197,-2.34538153 47.3895582,-0.803212851 51.6626506,6.90763052 C54.875502,12.7550201 58.2811245,18.4738956 61.5903614,24.2570281 C67.1164659,33.8634538 72.7068273,43.4698795 78.1686747,53.1084337 C82.7630522,61.1726908 77.7831325,71.3574297 68.6586345,72.7389558 C63.0682731,73.5742972 57.8313253,71.0040161 54.939759,65.9919679 C50.0883534,57.5421687 45.2048193,49.0923695 40.3534137,40.6746988 C40.2570281,40.4819277 40.1285141,40.3212851 40,40.1606426 C39.4859438,39.7429719 39.2610442,39.1325301 38.939759,38.5863454 C36.7871486,34.7951807 34.5702811,31.0361446 32.4176707,27.2771084 C31.0361446,24.8353414 29.5903614,22.4257028 28.2088353,19.9839357 C26.9558233,17.7991968 26.37751,15.4216867 26.4417671,12.9156627 C26.5381526,11.6305221 26.6987952,10.3453815 27.2771084,9.18875502" id="Path" fill="#3C8BD9"></path>
            <path d="M27.2771084,9.18875502 C26.9879518,10.3453815 26.7309237,11.502008 26.6666667,12.7228916 C26.5702811,15.4216867 27.2449799,17.9277108 28.5943775,20.2730924 C32.1285141,26.3453815 35.6626506,32.4497992 39.1646586,38.5542169 C39.4859438,39.1004016 39.7429719,39.6465863 40.064257,40.1606426 C38.1365462,43.502008 36.2088353,46.811245 34.248996,50.1526104 C31.5502008,54.811245 28.8514056,59.502008 26.1204819,64.1606426 C25.9919679,64.1606426 25.9598394,64.0963855 25.9277108,64 C25.8955823,63.7429719 25.9919679,63.5180723 26.0562249,63.2610442 C27.373494,58.4417671 26.2811245,54.1686747 22.9718876,50.5060241 C20.9477912,48.2891566 18.37751,47.0361446 15.4216867,46.6184739 C11.5662651,46.0722892 8.16064257,47.0682731 5.10843373,49.4779116 C4.562249,49.8955823 4.20883534,50.5060241 3.56626506,50.8273092 C3.437751,50.8273092 3.37349398,50.7630522 3.34136546,50.6666667 C4.88353414,48 6.3935743,45.3333333 7.93574297,42.6666667 C14.2971888,31.6144578 20.6586345,20.562249 27.0522088,9.54216867 C27.1164659,9.41365462 27.2128514,9.31726908 27.2771084,9.18875502" id="Path" fill="#FABC04"></path>
            <path d="M3.46987952,50.7630522 C4.08032129,50.2168675 4.65863454,49.6385542 5.30120482,49.124498 C13.1084337,42.9558233 24.8353414,47.4216867 26.5381526,57.188755 C26.9558233,59.5341365 26.7309237,61.7831325 26.0240964,64.0321285 C25.9919679,64.2248996 25.9598394,64.3855422 25.8955823,64.5783133 C25.6064257,65.0923695 25.3493976,65.6385542 25.0281124,66.1526104 C22.1686747,70.875502 17.9598394,73.2208835 12.4337349,72.8674699 C6.10441767,72.4176707 1.12449799,67.6626506 0.257028112,61.3654618 C-0.16064257,58.313253 0.449799197,55.4538153 2.02409639,52.8192771 C2.34538153,52.2409639 2.73092369,51.7269076 3.08433735,51.1485944 C3.24497992,51.0200803 3.18072289,50.7630522 3.46987952,50.7630522" id="Path" fill="#34A852"></path>
            <path d="M3.46987952,50.7630522 C3.34136546,50.8915663 3.34136546,51.1164659 3.11646586,51.1485944 C3.08433735,50.9236948 3.21285141,50.7951807 3.34136546,50.6345382 L3.46987952,50.7630522" id="Path" fill="#FABC04"></path>
            <path d="M25.8955823,64.5783133 C25.7670683,64.3534137 25.8955823,64.1927711 26.0240964,64.0321285 C26.0562249,64.064257 26.1204819,64.1285141 26.1526104,64.1606426 L25.8955823,64.5783133" id="Path" fill="#E1C025"></path>
        </g>
    </g>
</svg>