<?xml version="1.0" encoding="UTF-8"?>
<svg width="148px" height="148px" viewBox="0 0 148 148" version="1.1" xmlns="http://www.w3.org/2000/svg" xmlns:xlink="http://www.w3.org/1999/xlink">
    <!-- Generator: Sketch 52.3 (67297) - http://www.bohemiancoding.com/sketch -->
    <title>tech node copy</title>
    <desc>Created with Sketch.</desc>
    <g id="tech-node-copy" stroke="none" stroke-width="1" fill="none" fill-rule="evenodd">
        <g id="GraphQL_Logo" transform="translate(38.000000, 34.000000)" fill="#E535AB">
            <polygon id="Rectangle" transform="translate(21.713726, 31.800020) rotate(-149.999272) translate(-21.713726, -31.800020) " points="20.1473496 -0.956527434 23.56017 -0.971042323 23.2801026 64.5565683 19.8672822 64.5710831"></polygon>
            <rect id="Rectangle" x="3" y="54" width="67" height="4"></rect>
            <polygon id="Rectangle" transform="translate(21.721579, 64.609776) rotate(-149.999272) translate(-21.721579, -64.609776) " points="2.71161415 62.9926262 40.7460579 62.8308639 40.731543 66.2269248 2.69709926 66.3886872"></polygon>
            <polygon id="Rectangle" transform="translate(50.405557, 15.409980) rotate(-149.999272) translate(-50.405557, -15.409980) " points="31.3955925 13.7928303 69.4300363 13.6310679 69.4155214 17.0271289 31.3810776 17.1888912"></polygon>
            <polygon id="Rectangle" transform="translate(21.730729, 15.397082) rotate(-120.000728) translate(-21.730729, -15.397082) " points="20.1135801 -3.6128828 23.5096411 -3.62739768 23.3478788 34.4070461 19.9518178 34.4215609"></polygon>
            <polygon id="Rectangle" transform="translate(50.429032, 31.800633) rotate(-120.000728) translate(-50.429032, -31.800633) " points="17.672484 30.2342562 83.2000946 29.9541888 83.1855797 33.3670091 17.6579691 33.6470765"></polygon>
            <rect id="Rectangle" x="6" y="21" width="4" height="38"></rect>
            <rect id="Rectangle" x="62" y="21" width="4" height="38"></rect>
            <polygon id="Rectangle" transform="translate(50.405413, 64.590939) rotate(-120.000728) translate(-50.405413, -64.590939) " points="48.992538 48.0574349 51.9589768 48.0447562 51.8182873 81.1244427 48.8518485 81.1371213"></polygon>
            <path d="M71.0531937,60.4989907 C69.1300732,63.847595 64.8431171,64.9905318 61.4976888,63.0655856 C58.1522604,61.1406394 57.0104076,56.8496136 58.9335281,53.5010093 C60.8566486,50.152405 65.1436047,49.0094682 68.489033,50.9344144 C71.8544939,52.8794121 72.9963467,57.1503864 71.0531937,60.4989907" id="Path"></path>
            <path d="M13.0655856,26.4989907 C11.1406394,29.847595 6.84961358,30.9905318 3.50100928,29.0655856 C0.152404978,27.1406394 -0.99053182,22.8496136 0.934414365,19.5010093 C2.85936055,16.152405 7.15038642,15.0094682 10.4989907,16.9344144 C13.847595,18.8794121 14.9905318,23.1503864 13.0655856,26.4989907" id="Path"></path>
            <path d="M0.934414365,60.4989907 C-0.99053182,57.1503864 0.152404978,52.8794121 3.50100928,50.9344144 C6.84961358,49.0094682 11.1205879,50.152405 13.0655856,53.5010093 C14.9905318,56.8496136 13.847595,61.1205879 10.4989907,63.0655856 C7.1303349,64.9905318 2.85936055,63.847595 0.934414365,60.4989907" id="Path"></path>
            <path d="M58.9344144,26.4989907 C57.0094682,23.1503864 58.152405,18.8794121 61.5010093,16.9344144 C64.8496136,15.0094682 69.1205879,16.152405 71.0655856,19.5010093 C72.9905318,22.8496136 71.847595,27.1205879 68.4989907,29.0655856 C65.1503864,30.9905318 60.8593606,29.847595 58.9344144,26.4989907" id="Path"></path>
            <path d="M37,80 C33.1289398,80 30,76.8710602 30,73 C30,69.1289398 33.1289398,66 37,66 C40.8710602,66 44,69.1289398 44,73 C44,76.8510029 40.8710602,80 37,80" id="Path"></path>
            <path d="M37,14 C33.1289398,14 30,10.8710602 30,7 C30,3.12893983 33.1289398,0 37,0 C40.8710602,0 44,3.12893983 44,7 C44,10.8710602 40.8710602,14 37,14" id="Path"></path>
        </g>
    </g>
</svg>