<?xml version="1.0" encoding="UTF-8"?>
<svg width="148px" height="148px" viewBox="0 0 148 148" version="1.1" xmlns="http://www.w3.org/2000/svg" xmlns:xlink="http://www.w3.org/1999/xlink">
    <!-- Generator: Sketch 52.3 (67297) - http://www.bohemiancoding.com/sketch -->
    <title>Trello Copy 3</title>
    <desc>Created with Sketch.</desc>
    <defs>
        <radialGradient cx="1.81949774%" cy="90.8445653%" fx="1.81949774%" fy="90.8445653%" r="144.576101%" id="radialGradient-1">
            <stop stop-color="#FED576" offset="0%"></stop>
            <stop stop-color="#F47133" offset="26.34%"></stop>
            <stop stop-color="#BC3081" offset="60.91%"></stop>
            <stop stop-color="#4C63D2" offset="100%"></stop>
        </radialGradient>
        <radialGradient cx="1.81367144%" cy="90.830228%" fx="1.81367144%" fy="90.830228%" r="144.603851%" id="radialGradient-2">
            <stop stop-color="#FED576" offset="0%"></stop>
            <stop stop-color="#F47133" offset="26.34%"></stop>
            <stop stop-color="#BC3081" offset="60.91%"></stop>
            <stop stop-color="#4C63D2" offset="100%"></stop>
        </radialGradient>
    </defs>
    <g id="Trello-Copy-3" stroke="none" stroke-width="1" fill="none" fill-rule="evenodd">
        <g id="instagram-logo-outline" transform="translate(37.000000, 37.000000)">
            <path d="M12.7695122,1.94063834 C10.3329268,2.88839195 8.27235772,4.15206343 6.21178862,6.21305143 C4.15121951,8.25899573 2.88780488,10.3350274 1.9402439,12.7570644 C1.02276423,15.1038829 0.406097561,17.7967066 0.225609756,21.7381582 C0.0451219512,25.6796097 0,26.9432812 0,36.9924781 C0,47.0416751 0.0451219512,48.3053466 0.225609756,52.2467981 C0.406097561,56.1882496 1.03780488,58.8810734 1.9402439,61.2278918 C2.88780488,63.6649726 4.15121951,65.7259606 6.21178862,67.7869486 C8.27235772,69.8479366 10.3329268,71.1116081 12.7695122,72.0593617 C15.1158537,72.9770279 17.8081301,73.5938199 21.7487805,73.7743444 C25.6894309,73.9548689 26.9528455,74 37,74 C47.0471545,74 48.3105691,73.9548689 52.2512195,73.7743444 C56.1918699,73.5938199 58.8841463,72.9619841 61.2304878,72.0593617 C63.6670732,71.1116081 65.7276423,69.8479366 67.7882114,67.7869486 C69.8487805,65.7259606 71.1121951,63.6649726 72.0597561,61.2278918 C72.9772358,58.8810734 73.5939024,56.1882496 73.7743902,52.2467981 C73.954878,48.3053466 74,47.0416751 74,36.9924781 C74,26.9432812 73.954878,25.6796097 73.7743902,21.7381582 C73.5939024,17.7967066 72.9621951,15.1038829 72.0597561,12.7570644 C71.1121951,10.3350274 69.8487805,8.25899573 67.803252,6.21305143 C65.7426829,4.15206343 63.6821138,2.88839195 61.2455285,1.94063834 C58.899187,1.02297215 56.2069106,0.406180118 52.2662602,0.225655621 C48.3256098,0.0451311242 47.0621951,0 37.0150407,0 C26.9678862,0 25.7044715,0.0451311242 21.7638211,0.225655621 C17.8081301,0.39113641 15.1158537,1.02297215 12.7695122,1.94063834 Z M51.9504065,6.87497459 C55.5601626,7.04045538 57.5154472,7.6422037 58.8239837,8.15368977 C60.5536585,8.83065664 61.7869919,9.62797317 63.0804878,10.9217321 C64.3739837,12.215491 65.1711382,13.449075 65.8479675,15.1791014 C66.3593496,16.487904 66.9609756,18.4435861 67.1264228,22.054076 C67.3069106,25.9503964 67.3369919,27.1238057 67.3369919,37.0075219 C67.3369919,46.8912381 67.2918699,48.0646473 67.1264228,51.9609677 C66.9609756,55.5714576 66.3593496,57.5271397 65.8479675,58.8359423 C65.1711382,60.5659687 64.3739837,61.7995528 63.0804878,63.0933116 C61.7869919,64.3870705 60.5536585,65.1843871 58.8239837,65.8613539 C57.5154472,66.37284 55.5601626,66.9745883 51.9504065,67.1400691 C48.054878,67.3205936 46.8817073,67.350681 37,67.350681 C27.1182927,67.350681 25.945122,67.3055499 22.0495935,67.1400691 C18.4398374,66.9745883 16.4845528,66.37284 15.1760163,65.8613539 C13.4463415,65.1843871 12.2130081,64.3870705 10.9195122,63.0933116 C9.62601626,61.7995528 8.82886179,60.5659687 8.15203252,58.8359423 C7.64065041,57.5271397 7.03902439,55.5714576 6.87357724,51.9609677 C6.69308943,48.0646473 6.66300813,46.8912381 6.66300813,37.0075219 C6.66300813,27.1238057 6.70813008,25.9503964 6.87357724,22.054076 C7.03902439,18.4435861 7.64065041,16.487904 8.15203252,15.1791014 C8.82886179,13.449075 9.62601626,12.215491 10.9195122,10.9217321 C12.2130081,9.62797317 13.4463415,8.83065664 15.1760163,8.15368977 C16.4845528,7.6422037 18.4398374,7.04045538 22.0495935,6.87497459 C25.945122,6.69445009 27.1182927,6.66436268 37,6.66436268 C46.8817073,6.66436268 48.054878,6.69445009 51.9504065,6.87497459 Z" id="Shape" fill="url(#radialGradient-1)" fill-rule="nonzero"></path>
            <path d="M17.4722222,36.4861111 C17.4722222,46.9941827 25.993094,55.5 36.4861111,55.5 C46.9791282,55.5 55.5,46.9791282 55.5,36.4861111 C55.5,25.993094 46.9941827,17.4722222 36.4861111,17.4722222 C25.9780395,17.4722222 17.4722222,25.9780395 17.4722222,36.4861111 Z M48.8308371,36.4861111 C48.8308371,43.3058195 43.3058195,48.8308371 36.4861111,48.8308371 C29.6664027,48.8308371 24.1413851,43.3058195 24.1413851,36.4861111 C24.1413851,29.6664027 29.6664027,24.1413851 36.4861111,24.1413851 C43.3058195,24.1413851 48.8308371,29.6664027 48.8308371,36.4861111 Z" id="Shape" fill="url(#radialGradient-2)" fill-rule="nonzero"></path>
            <circle id="Oval" fill="#654C9F" cx="57.0416667" cy="16.9583333" r="4.625"></circle>
        </g>
    </g>
</svg>