<?xml version="1.0" encoding="UTF-8"?>
<svg width="148px" height="148px" viewBox="0 0 148 148" version="1.1" xmlns="http://www.w3.org/2000/svg" xmlns:xlink="http://www.w3.org/1999/xlink">
    <!-- Generator: Sketch 52.3 (67297) - http://www.bohemiancoding.com/sketch -->
    <title>invision-logo</title>
    <desc>Created with Sketch.</desc>
    <g id="Symbols" stroke="none" stroke-width="1" fill="none" fill-rule="evenodd">
        <g id="tech-InVision">
            <g id="invision-seeklogo.com" transform="translate(39.000000, 39.000000)">
                <path d="M63.6543939,0 L6.34560607,0 C2.84109848,0 0,2.84109848 0,6.34560607 L0,63.6543939 C0,67.1589015 2.84109848,70 6.34560607,70 L63.6543939,70 C67.1589015,70 70,67.1589015 70,63.6543939 L70,6.34560607 C70,2.84109848 67.1589015,0 63.6543939,0" id="Path" fill="#DC395F"></path>
                <path d="M22.8470866,21.3888889 C25.2279504,21.3888889 27.2222222,19.4948911 27.2222222,17.0127876 C27.2222222,14.532336 25.2279504,12.6388889 22.8470866,12.6388889 C20.4662228,12.6388889 18.4722222,14.532336 18.4722222,17.0127876 C18.4722222,19.4948911 20.4662228,21.3888889 22.8470866,21.3888889" id="Path" fill="#FFFFFF"></path>
                <path d="M14.4032922,44.9051153 C14.1516521,45.9970576 14.0251678,47.1762037 14.0251678,48.1381529 C14.0251678,51.9282651 16.0417426,54.4444444 20.3273294,54.4444444 C23.8816454,54.4444444 26.7628841,52.2930581 28.8373867,48.8198043 L27.5706831,54.0013846 L34.6282965,54.0013846 L38.6619775,37.5128395 C39.6701319,33.3378934 41.6237302,31.1710705 44.5860146,31.1710705 C46.9177374,31.1710705 48.3672585,32.6489298 48.3672585,35.0887384 C48.3672585,35.7958469 48.3040163,36.5657852 48.0521104,37.4009912 L45.9720277,44.9798613 C45.6568799,46.0718038 45.5314585,47.1645585 45.5314585,48.1912333 C45.5314585,51.7893348 47.6104782,54.421154 51.9590415,54.421154 C55.6773087,54.421154 58.6390617,51.9816164 60.2777778,46.1365294 L57.50522,45.0453996 C56.1184095,48.9614425 54.9210601,49.6693635 53.975882,49.6693635 C53.0304381,49.6693635 52.5260951,49.0275224 52.5260951,47.7435695 C52.5260951,47.1656418 52.6525795,46.5240716 52.8412432,45.7516957 L54.8583492,38.3678151 C55.3621609,36.6340317 55.5516217,35.0965921 55.5516217,33.6840002 C55.5516217,28.1603753 52.2741893,25.2777778 48.3040163,25.2777778 C44.5860146,25.2777778 40.804505,28.6957845 38.9144147,32.2930736 L40.3004277,25.8362066 L29.5242815,25.8362066 L28.0115182,31.5234059 L33.0533539,31.5234059 L29.9489075,44.191778 C27.5106298,49.7154029 23.0321278,49.8050438 22.4701228,49.6766757 C21.5472655,49.4646243 20.9570938,49.1074141 20.9570938,47.885208 C20.9570938,47.1799952 21.0830467,46.167132 21.3981946,44.9457383 L26.125148,25.8362066 L14.1516521,25.8362066 L12.6388889,31.5234059 L17.6172165,31.5234059 L14.4032922,44.9051153" id="Path" fill="#FFFFFF"></path>
            </g>
        </g>
    </g>
</svg>