<?xml version="1.0" encoding="UTF-8"?>
<svg width="148px" height="148px" viewBox="0 0 148 148" version="1.1" xmlns="http://www.w3.org/2000/svg" xmlns:xlink="http://www.w3.org/1999/xlink">
    <!-- Generator: Sketch 52.3 (67297) - http://www.bohemiancoding.com/sketch -->
    <title>iOS</title>
    <desc>Created with Sketch.</desc>
    <g id="iOS" stroke="none" stroke-width="1" fill="none" fill-rule="evenodd">
        <g id="apple-ios" transform="translate(30.000000, 46.000000)" fill="#000000" fill-rule="nonzero">
            <path d="M3.0754629,4.52778401 C3.0754629,5.48973595 2.48585171,6.20135537 1.47438187,6.20135537 C0.632080176,6.20135537 0,5.48973595 0,4.52778401 C0,3.60661659 0.673841353,2.85350948 1.55861204,2.85350948 C2.48585171,2.85350948 3.0754629,3.60661659 3.0754629,4.52778401 Z M0.743915191,54.8298541 L0.743915191,16.3517766 L2.33154771,16.3517766 L2.33154771,54.8298541 L0.743915191,54.8298541 Z M55.1374934,27.4142239 C55.1374934,46.813588 44.2972829,55.6321839 32.4314464,55.6321839 C20.310088,55.6321839 10.4940881,46.0935304 10.4940881,28.2165537 C10.4940881,9.86071055 20.6519634,0 33.2850731,0 C45.6619533,-0.00140636248 55.1374934,9.69827568 55.1374934,27.4142239 Z M12.1029551,27.8150372 C12.1029551,42.5241824 19.2787993,53.9508776 32.5064749,53.9508776 C45.8261667,53.9508776 53.4656307,42.1725918 53.4656307,27.64768 C53.4656307,14.1782434 47.3444332,1.88593209 33.3763814,1.88593209 C19.4083297,1.88593209 12.1029551,13.4595921 12.1029551,27.8150372 Z M60.9642392,50.6606925 C63.6277528,52.4242711 68.2250213,54.1273761 72.1788845,54.1273761 C79.6831556,54.1273761 86.3571578,48.9118808 86.3571578,41.2352512 C86.3571578,34.111322 81.9113621,30.394306 74.3632064,27.20116 C67.6078053,24.3434314 61.5340315,21.2416989 61.5340315,13.6262461 C61.5340315,5.69084579 67.8272284,0.0780531178 76.3804836,0.0780531178 C80.9798755,0.0780531178 84.4495922,1.3606557 86.0634139,2.48293296 L85.4221321,3.86679365 C84.0503837,2.90554489 80.3428406,1.68060317 76.3097019,1.68060317 C67.2701768,1.68060317 63.3325933,8.46630215 63.3325933,13.4617017 C63.3325933,20.361316 68.716246,22.6684537 75.6556794,25.9551228 C83.7240802,29.88239 88,33.3455576 88,40.881551 C88,48.9779798 82.1909496,55.5499117 71.8624905,55.5499117 C67.5851552,55.5499117 62.6637067,54.107687 60.2429741,52.2632426 L60.9642392,50.6606925 Z" id="Shape"></path>
        </g>
    </g>
</svg>