<?xml version="1.0" encoding="UTF-8"?>
<svg width="154px" height="154px" viewBox="0 0 154 154" version="1.1" xmlns="http://www.w3.org/2000/svg" xmlns:xlink="http://www.w3.org/1999/xlink">
    <!-- Generator: Sketch 63.1 (92452) - https://sketch.com -->
    <title>Artboard</title>
    <desc>Created with Sketch.</desc>
    <g id="Artboard" stroke="none" stroke-width="1" fill="none" fill-rule="evenodd">
        <g id="jest-logo" transform="translate(34.000000, 30.000000)" fill-rule="nonzero">
            <path d="M80.9682302,46.2797579 C80.9682302,41.4327825 77.0013185,37.5035776 72.1078288,37.5035776 C71.7930213,37.5035776 71.4825907,37.5202522 71.1765372,37.551934 L83.3462898,2 L31.6289659,2 L43.7815471,37.5212527 C43.6034367,37.510581 43.4243163,37.5035776 43.2431757,37.5035776 C38.349686,37.5035776 34.3827743,41.4327825 34.3827743,46.2797579 C34.3827743,50.197624 36.9749703,53.5145373 40.5530021,54.6430748 C38.6631468,57.8852858 36.285424,60.8053433 33.585823,63.3278782 C29.914864,66.7581788 25.7136143,69.3590843 21.1699482,70.9618477 C15.7599722,68.2092033 13.205149,62.0869538 15.510483,56.7193971 C15.7707463,56.1134418 16.0363967,55.4988158 16.2905996,54.8871911 C20.209701,53.9810928 23.1301723,50.5007684 23.1301723,46.3427879 C23.1301723,41.4958125 19.1632605,37.5666077 14.2697709,37.5666077 C9.37594453,37.5666077 5.4090328,41.4958125 5.4090328,46.3427879 C5.4090328,49.3152037 6.9022643,51.9401207 9.18436647,53.527877 C6.99115113,58.4738995 3.76765657,63.6496982 2.76330267,69.6485555 C1.55962677,76.8383135 2.75959905,84.4699485 9.03723182,88.779668 C23.6577695,98.8164487 39.52811,82.5577044 56.2613935,78.4704242 C62.3255632,76.9890519 68.9823118,77.2278323 74.325286,74.1627057 C78.3376512,71.8609427 80.982708,68.0464591 81.7335324,63.7637525 C82.4749294,59.5330707 81.3938096,55.3207309 78.9076717,51.905104 C80.1935006,50.3817117 80.9682302,48.4207777 80.9682302,46.2797579 L80.9682302,46.2797579 Z M52.1029037,46.3107727 C52.1029037,46.3004344 52.1039138,46.2900961 52.1039138,46.2797579 C52.1039138,43.0969085 50.3928422,40.3095809 47.832632,38.7711814 L57.5051358,19.3982871 L67.1944743,38.9766126 C64.815068,40.5500287 63.2470907,43.2333068 63.2470907,46.2797579 C63.2470907,46.3437884 63.2507943,46.4068184 63.2521411,46.4705154 L52.1029037,46.3107727 L52.1029037,46.3107727 Z" id="Shape" fill="#C63D14"></path>
            <path d="M83.1209543,46.2816851 C83.1209543,40.967053 79.2519626,36.5324854 74.1554555,35.5852607 L86.3462898,0 L28.7215946,0 L40.9309055,35.657408 C36.0117734,36.7409479 32.3218362,41.0917316 32.3218362,46.2816851 C32.3218362,50.1793037 34.4029689,53.6028111 37.5221482,55.5265185 C36.0218515,57.7384827 34.2427268,59.8201162 32.2039222,61.7235424 C28.9708602,64.7424264 25.3686028,67.0318575 21.4851659,68.5379747 C17.5738461,66.1062438 15.920362,61.520732 17.6376742,57.5256979 L17.7720492,57.2131703 C17.8560336,57.0176742 17.9403539,56.8215133 18.0243383,56.6253523 C22.3203064,55.1428409 25.4126107,51.0956081 25.4126107,46.3445231 C25.4126107,40.3416652 20.4780254,35.4582548 14.4126747,35.4582548 C8.34732399,35.4582548 3.41307469,40.3416652 3.41307469,46.3445231 C3.41307469,49.3743788 4.67116045,52.1179724 6.69619141,54.093546 C6.32901177,54.8682156 5.94301964,55.6555192 5.54627751,56.4621065 C3.69459028,60.2260696 1.59598901,64.4924043 0.802168812,69.2298577 C-0.774385654,78.6386018 1.76832493,86.1598785 7.96200373,90.4082595 C11.720472,92.98628 15.5370574,94 19.3778303,94 C26.6102277,94 33.9259376,90.4039373 41.0814055,86.886339 C46.235022,84.3532028 51.5636618,81.7336228 56.8274658,80.4489348 C58.7859811,79.970834 60.8012699,79.6832421 62.9348087,79.3786939 C67.1656049,78.7745846 71.5408543,78.1501943 75.4162288,75.9289208 C79.9080485,73.3538926 82.9832199,69.0343617 83.852626,64.0781389 C84.5990791,59.8234409 83.7004464,55.5624259 81.5094623,51.9484096 C82.5310481,50.2966678 83.1209543,48.3563366 83.1209543,46.2816851 L83.1209543,46.2816851 Z M78.8028143,46.2816851 C78.8028143,49.9279517 75.8055803,52.8946368 72.1210183,52.8946368 C68.4371282,52.8946368 65.4395583,49.9279517 65.4395583,46.2816851 C65.4395583,42.6354186 68.4371282,39.6690659 72.1210183,39.6690659 C75.8055803,39.6690659 78.8028143,42.6354186 78.8028143,46.2816851 L78.8028143,46.2816851 Z M80.3225953,4.27364913 L69.5574796,35.6969727 C69.0908625,35.8076872 68.6360032,35.9473272 68.1942454,36.1152277 L57.5598094,14.6445794 L46.8944672,35.9882218 C46.433561,35.8309606 45.9592173,35.7016273 45.4727799,35.6058742 L34.7446173,4.27364913 L80.3225953,4.27364913 L80.3225953,4.27364913 Z M43.3214364,39.6690659 C47.0056625,39.6690659 50.0028964,42.6354186 50.0028964,46.2816851 C50.0028964,49.9279517 47.0056625,52.8946368 43.3214364,52.8946368 C39.6375463,52.8946368 36.6399764,49.9279517 36.6399764,46.2816851 C36.6399764,42.6354186 39.6375463,39.6690659 43.3214364,39.6690659 L43.3214364,39.6690659 Z M14.4126747,39.7319039 C18.0972367,39.7319039 21.0944706,42.6982566 21.0944706,46.3445231 C21.0944706,49.9907897 18.0972367,52.9574748 14.4126747,52.9574748 C10.7287846,52.9574748 7.7312147,49.9907897 7.7312147,46.3445231 C7.7312147,42.6982566 10.7287846,39.7319039 14.4126747,39.7319039 L14.4126747,39.7319039 Z M79.5979782,63.3470238 C78.9479392,67.0534685 76.6346739,70.2914542 73.2517838,72.2304555 C70.0983389,74.0381286 66.3193785,74.5777375 62.3183634,75.1485991 C60.1750825,75.4544772 57.9585672,75.7709946 55.7934503,76.2996317 C50.0684042,77.6966967 44.5230847,80.4226691 39.1605151,83.058873 C28.428993,88.3342729 19.1608147,92.8898619 10.4220737,86.8956484 C4.02078554,82.5049676 4.31641049,74.3809116 5.06219164,69.9290552 C5.75321498,65.8046879 7.62169909,62.0061472 9.42870665,58.3326176 C9.74146442,57.6969231 10.0451519,57.0741952 10.3431284,56.455457 C11.2394095,56.8102091 12.1924641,57.0519193 13.1858311,57.1616364 C11.3465736,63.1698139 14.239331,69.7023064 20.3107286,72.789348 L21.1415019,73.2119252 L22.021658,72.9017249 C26.8215323,71.210086 31.2441489,68.4950853 35.1672266,64.832195 C37.7032185,62.4646319 39.8824447,59.8450519 41.6743351,57.0459347 C42.211835,57.1260615 42.7617646,57.168286 43.3214364,57.168286 C49.3867871,57.168286 54.3213724,52.2848755 54.3213724,46.2816851 C54.3213724,43.0533412 52.8926304,40.150159 50.6297557,38.1546368 L57.5426766,24.3196369 L64.5258084,38.4182904 C62.4305666,40.4018434 61.1214183,43.1923162 61.1214183,46.2816851 C61.1214183,52.2848755 66.0556676,57.168286 72.1210183,57.168286 C74.4514164,57.168286 76.6131739,56.4454827 78.3936424,55.2173156 C79.6298923,57.7218588 80.0904625,60.5399272 79.5979782,63.3470238 L79.5979782,63.3470238 Z" id="Shape" fill="#FFFFFF"></path>
        </g>
    </g>
</svg>