<?xml version="1.0" encoding="UTF-8"?>
<svg width="148px" height="148px" viewBox="0 0 148 148" version="1.1" xmlns="http://www.w3.org/2000/svg" xmlns:xlink="http://www.w3.org/1999/xlink">
    <!-- Generator: Sketch 52.3 (67297) - http://www.bohemiancoding.com/sketch -->
    <title>kubernetes-logo-light</title>
    <desc>Created with Sketch.</desc>
    <g id="kubernetes-logo-light" stroke="none" stroke-width="1" fill="none" fill-rule="evenodd">
        <rect id="Rectangle-9" fill-rule="nonzero" x="0" y="0" width="148" height="148"></rect>
        <g id="kubernetes-ar21" transform="translate(9.000000, 46.000000)" fill-rule="nonzero">
            <g id="layer1" transform="translate(36.000000, 0.000000)">
                <g id="g3052">
                    <path d="M27.414527,0.375 C26.9273562,0.404113178 26.4509367,0.531633207 26.0135135,0.75 L7.06081081,9.88125 C6.07046964,10.3570723 5.34937336,11.2628399 5.10236486,12.34125 L0.460810811,32.83125 C0.239517231,33.7915073 0.418169872,34.8013282 0.955067568,35.625 C1.01948198,35.725 1.08761261,35.82125 1.15945946,35.91375 L14.2665541,52.3575 C14.9596316,53.2138715 15.9988979,53.7086001 17.0945946,53.70375 L38.1135135,53.70375 C39.2129963,53.7060693 40.2542963,53.2055073 40.9452703,52.3425 L54.0449324,35.895 C54.7319009,35.0348336 54.9894554,33.9040097 54.7435811,32.8275 L50.0685811,12.31875 C49.8215726,11.2403399 49.1004763,10.3345723 48.1101351,9.85875 L29.1722973,0.75 C28.6265502,0.478986466 28.0222774,0.350071842 27.414527,0.375 Z" id="path3055" fill="#326CE5"></path>
                    <path d="M27.6040541,7.3575 C26.9511051,7.40363953 26.4551668,7.96914447 26.4891892,8.62875 C26.4891892,8.62875 26.4891892,8.65125 26.4891892,8.65875 C26.4891892,8.7525 26.4891892,8.86875 26.4891892,8.95125 C26.520467,9.31647498 26.5725804,9.67957715 26.6452703,10.03875 C26.749324,10.7259408 26.7866632,11.4217391 26.7567568,12.11625 C26.6915037,12.3455119 26.5625451,12.5511188 26.3851351,12.70875 L26.3591216,13.1925 C25.6700161,13.2501852 24.9857835,13.3566979 24.3114865,13.51125 C21.4749795,14.1562511 18.8943998,15.6424081 16.9013514,17.77875 L16.4925676,17.48625 C16.2682255,17.5532715 16.0267997,17.529044 15.8199324,17.41875 C15.2672404,17.0061583 14.755702,16.540207 14.2925676,16.0275 C14.0602071,15.7470852 13.8120492,15.4803945 13.5493243,15.22875 C13.4787162,15.16875 13.3746622,15.08625 13.2966216,15.02625 C13.0724585,14.8439837 12.7963913,14.7388603 12.5087838,14.72625 C12.1610105,14.7083175 11.8255964,14.8587457 11.6057432,15.13125 C11.2218079,15.6751133 11.3464783,16.4299363 11.8844595,16.81875 C11.9587838,16.87875 12.0516892,16.9575 12.1185811,17.01 C12.4211426,17.213094 12.7350652,17.398402 13.0587838,17.565 C13.661821,17.9031802 14.2306326,18.3000697 14.7570946,18.75 C14.8922478,18.9443245 14.9707756,19.1729563 14.9837838,19.41 L15.3554054,19.73625 C13.3517651,22.7702224 12.5286479,26.4438252 13.0439189,30.0525 L12.5682432,30.19125 C12.4443668,30.3906488 12.2780736,30.5597347 12.0814189,30.68625 C11.4163171,30.8651856 10.7355027,30.9782209 10.0486486,31.02375 C9.68435762,31.031369 9.32080444,31.0601668 8.9597973,31.11 L8.65878378,31.18125 L8.62533784,31.18125 C8.19761763,31.2387043 7.83896923,31.5354891 7.69937766,31.9474907 C7.55978608,32.3594922 7.66330227,32.8157245 7.96663624,33.1253936 C8.26997021,33.4350626 8.72085906,33.5448139 9.13074324,33.40875 L9.15304054,33.40875 L9.46148649,33.375 C9.80771583,33.2697144 10.1476867,33.1445095 10.4797297,33 C11.1183404,32.7406521 11.7804791,32.544726 12.4567568,32.415 C12.690833,32.4295265 12.9161642,32.5100838 13.1070946,32.6475 L13.6013514,32.56125 C14.7074599,36.025216 17.0329634,38.9601891 20.1381757,40.81125 L19.9300676,41.25 C20.0259635,41.4502641 20.0608802,41.6747183 20.0304054,41.895 C19.7487901,42.5516946 19.4053212,43.1795773 19.0047297,43.77 C18.7843411,44.0629432 18.5808512,44.3684488 18.3952703,44.685 C18.3506757,44.77125 18.2949324,44.9025 18.2503378,44.9925 C18.0332734,45.366951 18.0440271,45.8329146 18.2781303,46.1967632 C18.5122335,46.5606118 18.9296618,46.7601385 19.3569561,46.7124316 C19.7842503,46.6647247 20.1483565,46.3779404 20.297973,45.97125 C20.3425676,45.88125 20.402027,45.765 20.4391892,45.67875 C20.5681242,45.3353896 20.6773147,44.9848068 20.7662162,44.62875 C21.0672297,43.87875 21.2307432,43.0725 21.6432432,42.57375 C21.7778901,42.4461427 21.9475581,42.362498 22.1300676,42.33375 L22.3864865,41.865 C25.7518178,43.1708915 29.4759093,43.1802363 32.8476351,41.89125 L33.0743243,42.33 C33.3058215,42.3664559 33.5139433,42.4930028 33.6540541,42.6825 C33.9743253,43.2967393 34.2344536,43.9410404 34.4307432,44.60625 C34.5209093,44.9623711 34.6313401,45.3129524 34.7614865,45.65625 C34.7986486,45.7425 34.8581081,45.85875 34.9027027,45.94875 C35.0523192,46.3554404 35.4164253,46.6422247 35.8437196,46.6899316 C36.2710138,46.7376385 36.6884422,46.5381118 36.9225454,46.1742632 C37.1566486,45.8104146 37.1674023,45.344451 36.9503378,44.97 C36.9057432,44.88 36.8462838,44.74875 36.8016892,44.6625 C36.6160703,44.3471764 36.4125791,44.042921 36.1922297,43.75125 C35.8001313,43.1805801 35.4640833,42.5727067 35.1888514,41.93625 C35.1340664,41.7011801 35.1756035,41.4537478 35.3040541,41.25 C35.2312531,41.1004594 35.1679497,40.9463985 35.114527,40.78875 C38.2142125,38.9248362 40.5292808,35.9790106 41.6216216,32.50875 L42.1047297,32.595 C42.2777462,32.4353551 42.5059,32.3505343 42.7402027,32.35875 C43.4164803,32.488476 44.0786191,32.6844021 44.7172297,32.94375 C45.0487886,33.0958939 45.3887676,33.2286143 45.735473,33.34125 C45.8172297,33.36375 45.9361486,33.3825 46.0290541,33.405 L46.0513514,33.405 C46.4612355,33.5410639 46.9121244,33.4313126 47.2154584,33.1216436 C47.5187923,32.8119745 47.6223085,32.3557422 47.4827169,31.9437407 C47.3431254,31.5317391 46.984477,31.2349543 46.5567568,31.1775 C46.4601351,31.155 46.3226351,31.1175 46.2260135,31.09875 C45.8650064,31.0489168 45.5014532,31.020119 45.1371622,31.0125 C44.4503055,30.9669947 43.7694888,30.8539589 43.1043919,30.675 C42.8985528,30.5590954 42.7287118,30.3877103 42.6138514,30.18 L42.1567568,30.045 C42.6466038,26.4378877 41.8068657,22.7748382 39.7969595,19.75125 L40.1983108,19.37625 C40.182097,19.1403644 40.2581426,18.9074612 40.4101351,18.7275 C40.932582,18.2742677 41.4976524,17.8736154 42.0972973,17.53125 C42.4209843,17.3645937 42.7349036,17.1792877 43.0375,16.97625 C43.1118243,16.92 43.2084459,16.8375 43.2864865,16.77375 C43.6595336,16.5395746 43.866182,16.1100511 43.817794,15.6694154 C43.769406,15.2287796 43.47458,14.8553309 43.0597757,14.7092528 C42.6449715,14.5631747 42.1838982,14.6704247 41.8743243,14.985 C41.7962838,15.045 41.6922297,15.1275 41.6216216,15.1875 C41.3589605,15.4392085 41.1108062,15.7058954 40.8783784,15.98625 C40.4290794,16.5046306 39.9312791,16.9780727 39.3918919,17.4 C39.1740952,17.489025 38.9360113,17.5149977 38.7043919,17.475 L38.2733108,17.78625 C35.7874135,15.1563242 32.4398152,13.5266074 28.8527027,13.2 C28.8527027,13.04625 28.8304054,12.7725 28.8266892,12.69 C28.6337685,12.5562956 28.5003781,12.3516991 28.4550676,12.12 C28.4316645,11.4261291 28.4752257,10.7316067 28.5851351,10.04625 C28.657825,9.68707715 28.7099384,9.32397498 28.7412162,8.95875 C28.7412162,8.865 28.7412162,8.73375 28.7412162,8.6325 C28.7752386,7.97289447 28.2793003,7.40738953 27.6263514,7.36125 L27.6040541,7.3575 Z M26.1844595,16.23 L25.8462838,22.23 L25.8202703,22.23 C25.8044846,22.6013289 25.5876279,22.9338172 25.255893,23.0953129 C24.924158,23.2568085 24.5312924,23.221146 24.2334459,23.0025 L19.3577703,19.515 C20.9100659,17.9764828 22.8574932,16.9062461 24.9804054,16.425 C25.3782045,16.3393539 25.7800795,16.2742691 26.1844595,16.23 Z M29.0236486,16.23 C31.5844694,16.5506444 33.9699638,17.711414 35.8131757,19.53375 L30.9820946,22.99875 C30.6836239,23.2396376 30.2751647,23.2877165 29.9297633,23.1226179 C29.5843618,22.9575194 29.3624757,22.6081414 29.3581081,22.2225 L29.0236486,16.23 Z M17.5851351,21.7725 L22.0445946,25.78875 L22.0445946,25.815 C22.3218293,26.059502 22.4434288,26.4379933 22.3610904,26.8001267 C22.278752,27.1622602 22.0058067,27.4494052 21.6506757,27.5475 L21.6506757,27.56625 L15.9277027,29.2275 C15.6439585,26.6256942 16.2271294,24.0026373 17.5851351,21.7725 Z M37.589527,21.7725 C38.9442109,23.9967931 39.5430696,26.6062232 39.2952703,29.205 L33.5648649,27.54 L33.5648649,27.5175 C33.2097339,27.4194052 32.9367885,27.1322602 32.8544501,26.7701267 C32.7721118,26.4079933 32.8937113,26.029502 33.1709459,25.785 L37.5969595,21.7875 L37.589527,21.7725 Z M26.6898649,26.1 L28.514527,26.1 L29.6293919,27.52875 L29.2243243,29.31375 L27.585473,30.10875 L25.9429054,29.31375 L25.5564189,27.525 L26.6898649,26.1 Z M32.535473,30.975 C32.6120161,30.9660053 32.6893352,30.9660053 32.7658784,30.975 L38.6672297,31.98 C37.7985022,34.4547628 36.136289,36.5662646 33.9439189,37.98 L31.6621622,32.4075 C31.5346887,32.1042957 31.5613321,31.7574716 31.7335892,31.4777134 C31.9058463,31.1979553 32.2021884,31.0202274 32.5280405,31.00125 L32.535473,30.975 Z M22.6243243,31.00125 C22.9575831,31.0065269 23.2663151,31.1790583 23.4475662,31.4613096 C23.6288173,31.7435609 23.6587434,32.098401 23.5273649,32.4075 L23.5273649,32.43 L21.260473,37.9575 C19.0925855,36.5523227 17.4432182,34.4662702 16.5668919,32.02125 L22.4162162,31.02 C22.4817128,31.0135301 22.5476791,31.0135301 22.6131757,31.02 L22.6243243,31.00125 Z M27.5668919,33.42375 C27.9459753,33.4122414 28.2993222,33.6166106 28.4810811,33.9525 L28.5033784,33.9525 L31.3871622,39.2025 C31.0087904,39.3305856 30.6243,39.439472 30.2351351,39.52875 C28.113898,40.018758 25.8993584,39.9031939 23.839527,39.195 L26.7158784,33.945 C26.8913292,33.6367192 27.2146361,33.4443908 27.5668919,33.43875 L27.5668919,33.42375 Z" id="path3059" stroke="#FFFFFF" stroke-width="0.5" fill="#FFFFFF"></path>
                </g>
            </g>
        </g>
    </g>
</svg>