<?xml version="1.0" encoding="UTF-8"?>
<svg width="148px" height="148px" viewBox="0 0 148 148" version="1.1" xmlns="http://www.w3.org/2000/svg" xmlns:xlink="http://www.w3.org/1999/xlink">
    <!-- Generator: Sketch 52.3 (67297) - http://www.bohemiancoding.com/sketch -->
    <title>laravel-logo-light</title>
    <desc>Created with Sketch.</desc>
    <defs>
        <polygon id="path-1" points="0 0 93 0 93 66 0 66"></polygon>
    </defs>
    <g id="Symbols" stroke="none" stroke-width="1" fill="none" fill-rule="evenodd">
        <g id="tech-laravel-copy">
            <g id="Group-3" transform="translate(27.000000, 41.000000)">
                <mask id="mask-2" fill="white">
                    <use xlink:href="#path-1"></use>
                </mask>
                <g id="Clip-2"></g>
                <path d="M69.3636967,21.1921957 L78.1563943,34.1233991 L89.0865124,31.0220281 L79.6038301,18.6686566 L69.3636967,21.1921957 Z M3.66125263,5.50941468 L25.8067134,48.9764888 L44.1546794,43.7705791 L20.7837505,3.10529614 L3.66125263,5.50941468 Z M48.5548964,45.6180748 L58.3686152,62.6941342 L86.9677125,52.2451593 L76.9779896,37.5534337 L48.5548964,45.6180748 Z M57.7410529,66 C57.2492957,66 56.777638,65.7346871 56.5129681,65.2743762 L45.6844098,46.4325319 L25.4548948,52.1721933 C24.8094705,52.3560328 24.1292321,52.0480245 23.8151476,51.432008 L0.167413266,5.01634028 C-0.0523927971,4.58471718 -0.0559576297,4.06801984 0.157932328,3.63319162 C0.371822285,3.19816554 0.776317017,2.90008919 1.24065543,2.83479967 L21.3359582,0.0133425811 C21.9026529,-0.0660732213 22.4604354,0.213801203 22.7546479,0.72551279 L47.0249765,42.9561616 L75.2133595,34.9582345 L65.7990158,21.1124633 C65.5234239,20.7070747 65.4591431,20.1855499 65.6272212,19.7206885 C65.7952613,19.2558271 66.1740058,18.9085264 66.6375099,18.7944082 L79.8265942,15.5442562 C80.3646564,15.4113821 80.9272932,15.6141357 81.273044,16.0641982 L92.6860074,30.9320868 C92.9873495,31.3249714 93.0790112,31.8499388 92.9295537,32.3285308 C92.7801341,32.8071623 92.4097708,33.1750787 91.944105,33.3071614 L79.9210244,36.7185983 L90.4031492,52.1347606 C90.6634958,52.5175947 90.7361956,53.0056042 90.5998218,53.4526198 C90.4631067,53.8995958 90.1331701,54.2537816 89.7088033,54.4088937 L58.2138863,65.915915 C58.0582851,65.9728158 57.8985882,66 57.7410529,66 Z" id="Fill-1" fill="#EF533F" mask="url(#mask-2)"></path>
            </g>
        </g>
    </g>
</svg>