<?xml version="1.0" encoding="UTF-8"?>
<svg width="148px" height="148px" viewBox="0 0 148 148" version="1.1" xmlns="http://www.w3.org/2000/svg" xmlns:xlink="http://www.w3.org/1999/xlink">
    <!-- Generator: Sketch 52.3 (67297) - http://www.bohemiancoding.com/sketch -->
    <title>tech docker copy 2</title>
    <desc>Created with Sketch.</desc>
    <defs>
        <radialGradient cx="50%" cy="-50%" fx="50%" fy="-50%" r="99.999879%" id="radialGradient-1">
            <stop stop-color="#20C6B7" offset="0%"></stop>
            <stop stop-color="#4D9ABF" offset="100%"></stop>
        </radialGradient>
    </defs>
    <g id="tech-docker-copy-2" stroke="none" stroke-width="1" fill="none" fill-rule="evenodd">
        <rect id="Rectangle-9" fill-rule="nonzero" x="0" y="0" width="148" height="148"></rect>
        <g id="logomark" transform="translate(38.000000, 38.000000)" fill="url(#radialGradient-1)" fill-rule="nonzero">
            <path d="M52.1807786,24.9858772 L52.1544607,24.9746105 C52.1394219,24.9689772 52.1243832,24.9633438 52.1112243,24.9501994 C52.0675092,24.903296 52.0480641,24.8387814 52.0585885,24.7755658 L53.5117099,15.9011741 L60.3261534,22.710007 L53.2391321,25.7219673 C53.2194369,25.7299007 53.1983276,25.7337346 53.1770972,25.7332339 L53.1488995,25.7332339 C53.1395003,25.7276006 53.130101,25.7200895 53.1113026,25.7013117 C52.8475586,25.407975 52.5321595,25.1654801 52.1807786,24.9858772 Z M62.0650114,24.4450764 L69.3512963,31.7233544 C70.8645727,33.2368457 71.6221509,33.9917135 71.8984883,34.8667593 C71.9398449,34.9963262 71.9736821,35.1258931 72,35.2592155 L54.5869821,27.8926818 C54.5776248,27.8888221 54.568225,27.8850663 54.5587844,27.8814151 C54.48923,27.8532484 54.4083966,27.8213261 54.4083966,27.7499704 C54.4083966,27.6786148 54.4911099,27.6448147 54.5606642,27.616648 L54.5832224,27.6072591 L62.0650114,24.4450764 Z M71.7029843,37.5951747 C71.327015,38.3012203 70.5938748,39.0335547 69.3531762,40.2747678 L61.138247,48.4787917 L50.5133547,46.2686438 L50.4569593,46.2573772 C50.362967,46.2423549 50.2633352,46.2254549 50.2633352,46.1409548 C50.1817665,45.2559395 49.7357936,44.4445487 49.0320357,43.9007624 C48.9887992,43.8575734 49.0000783,43.7899733 49.0132373,43.7280065 C49.0132373,43.7186176 49.0132373,43.7092287 49.0169969,43.7017176 L51.0152738,31.4473207 L51.0227931,31.4060095 C51.0340722,31.3121204 51.0509908,31.2032092 51.1355839,31.2032092 C52.0006212,31.0957162 52.7862459,30.6458314 53.3162058,29.954485 C53.3331245,29.9357072 53.3444035,29.9150516 53.3669617,29.9037849 C53.4271168,29.8756182 53.498551,29.9037849 53.5605859,29.9300738 L71.7011044,37.5951747 L71.7029843,37.5951747 Z M59.2490013,50.3659614 L45.7404245,63.8596936 L48.0526357,49.6636714 L48.0563954,49.6448936 C48.0582752,49.6261158 48.0620349,49.6073379 48.0676745,49.5904379 C48.0864729,49.5453712 48.1353489,49.5265934 48.1823451,49.5078156 L48.2049033,49.4984267 C48.7111755,49.2826596 49.1589462,48.9499358 49.5113966,48.527614 C49.5565129,48.4750362 49.6110284,48.4243361 49.6805828,48.4149472 C49.6986351,48.4120035 49.7170459,48.4120035 49.7350983,48.4149472 L59.2471215,50.3678391 L59.2490013,50.3659614 Z M42.881178,66.715798 L41.3585024,68.2368004 L24.5244772,43.9345624 C24.5183897,43.9256733 24.5121222,43.9169086 24.5056787,43.9082735 C24.4793609,43.8725956 24.4511632,43.8369178 24.4568027,43.7956066 C24.4586825,43.7655621 24.477481,43.7392732 24.4981593,43.7167398 L24.5169578,43.6923287 C24.5677136,43.6172175 24.6109501,43.5421062 24.6579463,43.4613617 L24.6955432,43.3956393 L24.7011827,43.390006 C24.7275006,43.3449393 24.7519386,43.3017503 24.7970549,43.2773392 C24.8365317,43.2585614 24.8910472,43.2660725 24.9342837,43.2754614 L43.5842406,47.1174007 C43.636388,47.1255011 43.6855807,47.1468376 43.727109,47.1793675 C43.751547,47.2037786 43.7571865,47.2300676 43.762826,47.2601121 C44.0265322,48.2567635 44.7414427,49.0730055 45.6953082,49.4665044 C45.7479439,49.4927933 45.7253858,49.5510045 45.7009478,49.6129713 C45.688755,49.6401298 45.6793089,49.668437 45.6727501,49.6974714 C45.4377692,51.1245848 43.4225738,63.4015151 42.881178,66.715798 Z M39.7004778,69.8911252 C38.5782094,71.0008936 37.9165035,71.588639 37.1683246,71.8252394 C36.4306279,72.0582535 35.6389264,72.0582535 34.9012297,71.8252394 C34.0252213,71.5473278 33.2676431,70.79246 31.7543667,69.2789687 L14.8489073,52.3920868 L19.2646667,45.5513316 C19.285345,45.5175316 19.3060233,45.4874871 19.3398606,45.4630759 C19.3868567,45.4292759 19.4545312,45.4442981 19.5109266,45.4630759 C20.5244655,45.7685183 21.6126768,45.7134375 22.5901151,45.3072201 C22.640871,45.2884423 22.6916269,45.2752978 22.7311036,45.3109757 C22.7508444,45.328975 22.7685001,45.3491308 22.7837393,45.3710647 L39.7004778,69.893003 L39.7004778,69.8911252 Z M13.2190804,50.7640509 L9.34095716,46.8901893 L16.9994517,43.6266064 C17.0190274,43.6180797 17.0401313,43.613608 17.0614866,43.6134619 C17.1254014,43.6134619 17.1629984,43.6773065 17.1968356,43.7355177 C17.2738003,43.853796 17.3553214,43.9690529 17.4412156,44.0810293 L17.4656536,44.1110738 C17.4882118,44.1429961 17.473173,44.1749183 17.4506149,44.2049628 L13.2209603,50.7640509 L13.2190804,50.7640509 Z M7.62465732,45.1757755 L2.71825801,40.2747678 C1.88360617,39.4410332 1.27829561,38.8363878 0.857209995,38.3162425 L15.7756717,41.4070696 C15.7944119,41.4105389 15.8132134,41.4136691 15.832067,41.4164585 C15.9241795,41.4314807 16.0256912,41.4483807 16.0256912,41.5347587 C16.0256912,41.6286477 15.9147803,41.6718366 15.820788,41.7075145 L15.7775515,41.7262923 L7.62465732,45.1757755 Z M0,35.7962608 C0.0170016254,35.4805484 0.0738466801,35.1682442 0.169186183,34.8667593 C0.447403462,33.9917135 1.20310175,33.2368457 2.71825801,31.7233544 L8.99694525,25.4515668 C11.8878355,29.6425475 14.7865638,33.8281281 17.6931151,38.0082865 C17.7438709,38.0758866 17.8002663,38.1509978 17.7419911,38.2073312 C17.4675335,38.5096539 17.1930759,38.8401433 16.9994517,39.1987994 C16.9784464,39.2449008 16.9461138,39.2849491 16.9054594,39.3152219 C16.8810214,39.3302441 16.8547035,39.3246108 16.8265058,39.3189774 L16.8227461,39.3189774 L0,35.794383 L0,35.7962608 Z M10.677528,23.7728309 L19.1199185,15.3397177 C19.9132138,15.6871071 22.8006579,16.9057868 25.383567,17.9948996 C27.3386073,18.8211231 29.1207018,19.5722354 29.6808961,19.8163469 C29.7372915,19.8388803 29.7880473,19.8614136 29.8124853,19.9177471 C29.8275241,19.9515471 29.8200047,19.9947361 29.8124853,20.0304139 C29.5410182,21.2669704 29.9105048,22.5569881 30.795645,23.4629971 C30.8520404,23.5193305 30.795645,23.600075 30.746769,23.6695529 L30.7204512,23.7089863 L22.1483512,36.9717515 C22.1257931,37.0093071 22.1051147,37.0412294 22.0675178,37.0656406 C22.0224015,37.0938073 21.9584867,37.0806628 21.905851,37.0675183 C21.5724507,36.9802651 21.2297103,36.9336078 20.8850944,36.9285626 C20.5767996,36.9285626 20.2421869,36.984896 19.9038145,37.0468627 L19.9019347,37.0468627 C19.8643377,37.0524961 19.8305005,37.0600072 19.800423,37.0374738 C19.767203,37.0103553 19.7386307,36.9780088 19.7158299,36.941707 L10.677528,23.7728309 Z M20.8249393,13.6365706 L31.7543667,2.7191535 C33.2676431,1.20754003 34.0252213,0.450794397 34.9012297,0.174760632 C35.6389264,-0.0582535441 36.4306279,-0.0582535441 37.1683246,0.174760632 C38.044333,0.450794397 38.8019112,1.20754003 40.3151876,2.7191535 L42.6837942,5.0851572 L34.910629,17.1104649 C34.8913994,17.1454725 34.8651642,17.1761532 34.8335553,17.2005984 C34.7865591,17.2325206 34.7207645,17.2193762 34.6643691,17.2005984 C33.4201837,16.8234388 32.0698359,17.0833761 31.0550638,17.8953772 C31.004308,17.9479551 30.9291141,17.9179106 30.8651993,17.8897439 C29.8500822,17.4484654 21.954727,14.1154047 20.8249393,13.6365706 Z M44.3342994,6.73384867 L51.5115532,13.9032154 L49.7820945,24.60281 L49.7820945,24.6309767 C49.7805503,24.6553616 49.775485,24.6793954 49.7670557,24.7023323 C49.7482572,24.7398879 49.7106603,24.7473991 49.6730634,24.7586658 C49.3032959,24.8705468 48.9550379,25.0438496 48.6429075,25.2712999 C48.6294885,25.2808524 48.6169105,25.291532 48.6053106,25.3032222 C48.5846323,25.3257555 48.5639539,25.3464111 48.5301167,25.3501667 C48.5025769,25.3510166 48.4751313,25.3465536 48.4492833,25.3370222 L37.5123365,20.6951483 L37.4916582,20.6857594 C37.4221039,20.6575927 37.3393906,20.6237926 37.3393906,20.5524369 C37.2751059,19.9436309 37.0760475,19.356733 36.7566382,18.8342676 C36.7040025,18.7478897 36.6457273,18.6577562 36.6908436,18.5695005 L44.3342994,6.73384867 Z M36.942743,22.8940295 L47.1954257,27.231703 C47.2518211,27.2579919 47.313856,27.282403 47.338294,27.3406142 C47.3480773,27.3756229 47.3480773,27.4126391 47.338294,27.4476477 C47.3082165,27.5978702 47.2818986,27.7687482 47.2818986,27.9415041 L47.2818986,28.2288045 C47.2818986,28.3001602 47.2085846,28.3302047 47.1409102,28.3583714 L47.1202318,28.3658825 C45.4960445,29.0587836 24.3176941,38.0796421 24.2857367,38.0796421 C24.2537793,38.0796421 24.219942,38.0796421 24.1879846,38.0477199 C24.1315893,37.9913864 24.1879846,37.9125197 24.2387405,37.841164 C24.2477139,37.828787 24.2564876,37.8162669 24.2650584,37.8036084 L32.6905303,24.7718102 L32.705569,24.7492768 C32.7544451,24.6704101 32.8108404,24.5821544 32.9010731,24.5821544 L32.9856662,24.5952988 C33.1774105,24.6215878 33.3465967,24.6459989 33.5176627,24.6459989 C34.7959583,24.6459989 35.9802616,24.0244535 36.6946033,22.9616296 C36.7116229,22.9332481 36.7332184,22.9078695 36.7585181,22.8865184 C36.8092739,22.8489628 36.8844678,22.8677406 36.942743,22.8940295 Z M25.2012219,40.1414454 L48.2857367,30.3075078 C48.2857367,30.3075078 48.3195739,30.3075078 48.3515313,30.33943 C48.477481,30.4652413 48.5846323,30.5497415 48.6880238,30.6286083 L48.7387797,30.6605305 C48.7857758,30.6868195 48.832772,30.716864 48.8365317,30.7656863 C48.8365317,30.7844641 48.8365317,30.7957307 48.832772,30.8126308 L46.8551735,42.9468498 L46.8476541,42.9956721 C46.8344952,43.0895611 46.8213363,43.1965946 46.7329835,43.1965946 C45.6625876,43.2687641 44.6967931,43.8639054 44.1519543,44.7870749 L44.142555,44.8020971 C44.1162372,44.8452861 44.0917992,44.8865972 44.0485627,44.9091306 C44.0090859,44.9279084 43.9583301,44.9203973 43.9169734,44.9110084 L25.5076369,41.1178913 C25.4888384,41.1141358 25.2219002,40.1433231 25.2012219,40.1414454 Z" id="Shape"></path>
        </g>
    </g>
</svg>