<?xml version="1.0" encoding="UTF-8"?>
<svg width="148px" height="148px" viewBox="0 0 148 148" version="1.1" xmlns="http://www.w3.org/2000/svg" xmlns:xlink="http://www.w3.org/1999/xlink">
    <!-- Generator: Sketch 52.3 (67297) - http://www.bohemiancoding.com/sketch -->
    <title>nodejs-logo</title>
    <desc>Created with Sketch.</desc>
    <g id="Symbols" stroke="none" stroke-width="1" fill="none" fill-rule="evenodd">
        <g id="tech-node" fill-rule="nonzero">
            <rect id="Rectangle-9" x="0" y="0" width="148" height="148"></rect>
            <g id="nodejs-icon" transform="translate(40.000000, 34.000000)" fill="#8CC84B">
                <path d="M31.0750848,0.853481748 C32.9415837,-0.281912012 35.3730507,-0.287072894 37.2379302,0.853481748 C46.6206084,6.48744306 56.0065228,12.1128029 65.3875815,17.7502051 C67.1520941,18.8064654 68.3322136,20.8931813 68.314408,23.0538703 L68.314408,56.9505356 C68.327358,59.2006772 67.0306827,61.3372824 65.1690421,62.3694581 C55.8171222,67.9724554 46.470058,73.5823337 37.1197577,79.1853282 C35.2144059,80.3430868 32.7343749,80.2536294 30.8889204,79.0012561 C28.0851248,77.2740833 25.2764738,75.5555095 22.4726787,73.8300548 C21.8996165,73.4670735 21.2537077,73.1780641 20.8490028,72.5880015 C21.2067618,72.0753556 21.8461955,72.0117036 22.3658365,71.7880671 C23.5362429,71.3923993 24.6111391,70.7576095 25.6860351,70.1417442 C25.9579968,69.9439103 26.2898549,70.0196031 26.5504847,70.1967943 C28.9479574,71.6573242 31.3243826,73.1608604 33.7299495,74.6076285 C34.2431146,74.9224406 34.7627548,74.5044092 35.2014558,74.2446443 C44.3785419,68.7328254 53.5669613,63.2416492 62.7424307,57.7281064 C63.0823815,57.5543572 63.2701653,57.1707331 63.2426458,56.7750654 C63.2491342,45.5931553 63.2442545,34.4095271 63.24589,23.2276198 C63.2847428,22.7786232 63.0403006,22.3657526 62.6582607,22.1816812 C53.338708,16.6044896 44.0240216,11.0186965 34.7060963,5.43978432 C34.3726205,5.19894323 33.9420139,5.19722286 33.6085381,5.43807478 C24.2906128,11.0186965 14.9775448,16.6096504 5.65962004,22.1868423 C5.27919746,22.3709135 5.02342406,22.7769028 5.06875111,23.2276198 C5.07035981,34.4095271 5.06875111,45.5931553 5.06875111,56.7767835 C5.03637464,57.1724512 5.23710819,57.5474762 5.5754415,57.7177865 C8.06194807,59.2161599 10.5516924,60.7042134 13.0398179,62.1974297 C14.4417154,62.999088 16.1625204,63.4756085 17.7068741,62.8614642 C19.0699202,62.3419344 20.0250236,60.8642009 19.9991225,59.3262601 C20.0120725,48.2097229 19.9926474,37.0914647 20.0088363,25.9766489 C19.974841,25.4829248 20.4151598,25.075215 20.8668106,25.121663 C22.0614993,25.1130611 23.257807,25.1044593 24.4524957,25.125102 C24.9510919,25.1130611 25.2942816,25.6446309 25.2327665,26.1417955 C25.2279109,37.328863 25.2457165,48.5159331 25.224672,59.7030004 C25.2279082,62.6842702 24.0753101,65.9287439 21.4803427,67.3875528 C18.2831741,69.1474121 14.331636,68.774108 11.1733192,67.0864997 C8.43913314,65.6362954 5.82959601,63.9246054 3.14397479,62.371179 C1.2774759,61.3441633 -0.012723188,59.1989591 0.000227365574,56.9505356 L0.000227365574,23.0538703 C-0.0191984675,20.8484537 1.20786665,18.7238911 3.02741979,17.6831136 C12.3777207,12.0749565 21.7264027,6.46335904 31.0750848,0.853481748 Z" id="path3041"></path>
                <path d="M41.9126618,24.3796391 C46.3328166,24.1019422 51.0653105,24.2150778 55.0432743,26.3423741 C58.1228188,27.972558 59.8301648,31.3940594 59.8845614,34.7367069 C59.7985795,35.1875375 59.3160321,35.4360929 58.8755936,35.4052375 C57.5928906,35.403534 56.3101847,35.4223857 55.0274817,35.3966634 C54.4835162,35.4172469 54.1676663,34.9269783 54.0992325,34.4572931 C53.7307385,32.8579664 52.8375825,31.2740645 51.296934,30.5026843 C48.9315633,29.345614 46.1889274,29.4038953 43.6094813,29.4278942 C41.7266609,29.5256022 39.7017067,29.685021 38.1066616,30.7666675 C36.8818631,31.5860428 36.5098612,33.2402268 36.946789,34.5721436 C37.3591501,35.5286564 38.4891929,35.8372079 39.4139342,36.1217632 C44.7412794,37.4828206 50.3862328,37.3474008 55.6118065,39.1387167 C57.7753807,39.8689553 59.89158,41.2882968 60.6320758,43.5013026 C61.6006843,46.4668312 61.1760413,50.0117538 59.015972,52.3927468 C57.2647559,54.3520527 54.7133872,55.4182744 52.1690342,55.9976655 C48.7841662,56.7347634 45.2712076,56.753618 41.8336986,56.4262119 C38.6014938,56.0662328 35.2376876,55.2365714 32.742465,53.0852765 C30.6087206,51.2751033 29.5664122,48.4552777 29.669942,45.7331629 C29.6945,45.2737639 30.1630188,44.9532115 30.6139839,44.9909233 C31.9054609,44.9806458 33.1969408,44.9772105 34.4884178,44.9926268 C35.0043088,44.9566269 35.3868371,45.3920298 35.4131591,45.8668565 C35.6518012,47.3907624 36.2378785,48.990092 37.5977922,49.8934623 C40.2228609,51.5476464 43.5164808,51.4345107 46.5223254,51.4807939 C49.0122818,51.3727999 51.8075588,51.3402296 53.8395316,49.7323316 C54.91167,48.8152455 55.2292752,47.2810535 54.9397445,45.9611377 C54.62565,44.8469209 53.4324366,44.3275258 52.4076762,43.9881161 C47.1487648,42.3630755 41.4406409,42.9527527 36.2326152,41.1151537 C34.1181714,40.3849122 32.0739167,39.0050003 31.2614792,36.882846 C30.1279257,33.8796055 30.6473245,30.164978 33.0337512,27.8645506 C35.360518,25.5761219 38.7190609,24.6950337 41.9126618,24.3796249 L41.9126618,24.3796391 Z" id="path3043"></path>
            </g>
        </g>
    </g>
</svg>