<?xml version="1.0" encoding="UTF-8"?>
<svg width="148px" height="148px" viewBox="0 0 148 148" version="1.1" xmlns="http://www.w3.org/2000/svg" xmlns:xlink="http://www.w3.org/1999/xlink">
    <!-- Generator: Sketch 52.3 (67297) - http://www.bohemiancoding.com/sketch -->
    <title>vuetify copy 2</title>
    <desc>Created with Sketch.</desc>
    <g id="vuetify-copy-2" stroke="none" stroke-width="1" fill="none" fill-rule="evenodd">
        <g id="nuxt-light" transform="translate(26.000000, 38.000000)">
            <path d="M29.3245033,69.615894 L29.0860927,69.3774834 C28.6092715,68.4238411 28.6092715,67.4701987 28.6092715,66.5165563 L5.9602649,66.5165563 L39.8145695,6.43708609 L53.8807947,31.9470199 L58.410596,28.6092715 L44.3443709,3.09933775 C44.1059603,2.62251656 42.4370861,0 39.5761589,0 C38.384106,0 36.4768212,0.476821192 35.0463576,3.09933775 L0.953642384,63.8940397 C0.715231788,64.3708609 -0.715231788,67.2317881 0.715231788,69.615894 C1.19205298,70.807947 2.62251656,72 5.7218543,72 L34.3311258,72 C31.2317881,72 29.8013245,70.807947 29.3245033,69.615894 Z" id="Path" fill="#00C58E"></path>
            <path d="M94.1721854,64.1324503 L66.7549669,14.781457 C66.2781457,14.3046358 64.8476821,11.6821192 61.986755,11.6821192 C60.794702,11.6821192 59.1258278,12.1589404 57.4569536,14.781457 L53.8807947,20.5033113 L53.8807947,31.9470199 L61.986755,17.8807947 L89.1655629,66.5165563 L78.9139073,66.5165563 C79.0558984,67.4965753 78.889246,68.4964897 78.4370861,69.3774834 L78.4370861,69.615894 C77.0066225,72 73.9072848,72 73.4304636,72 L89.6423841,72 C90.1192053,72 93.218543,72 94.6490066,69.615894 C95.1258278,68.4238411 95.602649,66.5165563 94.1721854,64.1324503 Z" id="Path" fill="#108775"></path>
            <path d="M79.1523179,69.615894 L79.1523179,69.3774834 L79.3907285,68.9006623 C79.6291391,68.1854305 79.8675497,67.2317881 79.6291391,66.5165563 L78.6754967,63.8940397 L57.218543,26.2251656 L54.1192053,20.5033113 L53.8807947,20.5033113 L50.781457,26.2251656 L29.0860927,63.8940397 L28.3708609,66.5165563 C28.1938186,67.5740738 28.3609601,68.6604941 28.8476821,69.615894 C29.5629139,70.807947 30.9933775,72 33.8543046,72 L73.9072848,72 C74.6225166,72 77.7218543,72 79.1523179,69.615894 Z M53.8807947,31.9470199 L73.6688742,66.5165563 L34.3311258,66.5165563 L53.8807947,31.9470199 Z" id="Shape" fill="#2F495E" fill-rule="nonzero"></path>
        </g>
    </g>
</svg>