<?xml version="1.0" encoding="UTF-8"?>
<svg width="148px" height="148px" viewBox="0 0 148 148" version="1.1" xmlns="http://www.w3.org/2000/svg" xmlns:xlink="http://www.w3.org/1999/xlink">
    <!-- Generator: Sketch 52.3 (67297) - http://www.bohemiancoding.com/sketch -->
    <title>tech React</title>
    <desc>Created with Sketch.</desc>
    <g id="tech-React" stroke="none" stroke-width="1" fill="none" fill-rule="evenodd">
        <rect id="Rectangle-9" fill-rule="nonzero" x="0" y="0" width="148" height="148"></rect>
        <g id="reactjs-ar21" transform="translate(34.500000, 38.000000)">
            <g id="logo-(1)">
                <circle id="Oval" fill="#00D8FF" fill-rule="nonzero" cx="40" cy="35.505618" r="7.64044944"></circle>
                <path d="M40,19.7752809 C50.0194495,19.7752809 59.3272617,21.2161579 66.3453092,23.6375467 C74.8010606,26.5549312 80,30.9772979 80,34.9816388 C80,39.1545914 74.4900168,43.8524615 65.4097977,46.8676437 C58.5446689,49.1472557 49.5111584,50.3370787 40,50.3370787 C30.2486045,50.3370787 21.0145741,49.2201568 14.0737297,46.8424489 C5.29042287,43.8336772 0,39.0748326 0,34.9816388 C0,31.0097978 4.96390865,26.6217199 13.3008059,23.7086588 C20.345034,21.2474651 29.8826706,19.7752809 40,19.7752809 Z" id="Shape" stroke="#00D8FF" stroke-width="1.66271592"></path>
                <path d="M26.8233366,27.8800436 C31.8281711,19.1680309 37.722896,11.7956387 43.3211891,6.90479945 C50.0663893,1.01208172 56.4854104,-1.29582225 59.9462113,0.707636084 C63.5527739,2.79545527 64.8607627,9.93716159 62.9309066,19.3410826 C61.4718016,26.4509857 57.9877978,34.9011065 53.2368566,43.1713072 C48.3658849,51.6503944 42.7881175,59.1205854 37.2659775,63.9661834 C30.278188,70.0980977 23.5227249,72.3170122 19.9850273,70.2690591 C16.5523376,68.2817264 15.2394406,61.7701135 16.8862511,53.063476 C18.277681,45.7069108 21.7695678,36.6773131 26.8233366,27.8800436 Z" id="path10" stroke="#00D8FF" stroke-width="1.66271592"></path>
                <path d="M26.786886,43.1423037 C21.781084,34.4325439 18.3715434,25.6177446 16.9503204,18.3011399 C15.2379107,9.48574296 16.4486425,2.74558539 19.8968993,0.73489374 C23.4902303,-1.36051681 30.2886927,1.07018333 37.4215081,7.44965058 C42.8144713,12.2728004 48.3522121,19.527995 53.1042084,27.796081 C57.9762098,36.2729012 61.6278375,44.8607375 63.0481704,52.0884397 C64.8455776,61.2346437 63.390682,68.2229813 59.865883,70.2783484 C56.4456621,72.2727537 50.1870004,70.1612062 43.51329,64.3765642 C37.8745313,59.4890161 31.8417878,51.9372306 26.786886,43.1423037 Z" id="path12" stroke="#00D8FF" stroke-width="1.66271592"></path>
            </g>
        </g>
    </g>
</svg>