<?xml version="1.0" encoding="UTF-8"?>
<svg width="148px" height="148px" viewBox="0 0 148 148" version="1.1" xmlns="http://www.w3.org/2000/svg" xmlns:xlink="http://www.w3.org/1999/xlink">
    <!-- Generator: Sketch 52.3 (67297) - http://www.bohemiancoding.com/sketch -->
    <title>Revolut</title>
    <desc>Created with Sketch.</desc>
    <defs>
        <linearGradient x1="0.00468427354%" y1="49.9925356%" x2="100.052657%" y2="49.9925356%" id="linearGradient-1">
            <stop stop-color="#52C3E7" offset="0%"></stop>
            <stop stop-color="#0089CC" offset="100%"></stop>
        </linearGradient>
    </defs>
    <g id="Revolut" stroke="none" stroke-width="1" fill="none" fill-rule="evenodd">
        <g id="Revolut-primary" transform="translate(4.000000, 55.000000)" fill="url(#linearGradient-1)" fill-rule="nonzero">
            <path d="M15.1635693,5.86328112 C12.3169725,5.93627078 9.17841712,6.22822942 8.30254119,6.4471984 C9.17841712,6.22822942 12.3169725,5.93627078 15.1635693,5.86328112 Z M16.9153212,9.95070212 L15.3095486,9.95070212 C15.1635693,10.6076091 15.0905796,11.264516 15.01759,11.921423 L13.8497554,19.00142 L15.8204762,19.00142 C18.3751144,19.00142 20.2728456,16.8847199 20.2728456,13.6731748 C20.2728456,11.4104953 18.9590317,9.95070212 16.9153212,9.95070212 Z M38.6662401,17.6146165 C37.4984055,17.6146165 36.6955192,19.877296 36.2575813,21.7020375 L36.9144882,21.7020375 C38.3742814,21.7020375 39.542116,20.7531719 39.6880953,19.5853373 C39.6880953,19.439358 39.6880953,19.2933787 39.6880953,19.1473994 C39.6880953,18.7824511 39.6151056,18.4175028 39.3961367,18.1255441 C39.323147,17.8335855 39.0311884,17.6146165 38.6662401,17.6146165 Z M76.8398326,17.9065751 C76.766843,17.9065751 76.766843,17.8335855 76.6938533,17.8335855 C76.6208636,17.7605958 76.4748843,17.7605958 76.4018947,17.7605958 C76.1829257,17.7605958 75.9639567,17.8335855 75.8179774,17.9795648 C75.7449877,18.0525545 75.671998,18.0525545 75.5990084,18.1255441 C75.5260187,18.1985338 75.5260187,18.2715234 75.4530291,18.2715234 C75.0880808,18.7824511 74.7961221,19.2933787 74.6501428,19.877296 C74.5771531,19.9502856 74.5771531,20.096265 74.5041635,20.2422443 C74.3581842,20.6071926 74.2851945,21.0451305 74.1392152,21.4100789 C74.0662255,21.7020375 73.9932358,22.0669858 73.9202462,22.3589444 C73.7742669,23.3807997 73.6282875,24.4756446 73.6282875,25.5704895 C73.6282875,26.0814171 73.6282875,26.6653344 73.7012772,27.176262 C73.7012772,27.3222414 73.7012772,27.395231 73.7742669,27.5412104 C73.8472565,27.833169 73.9202462,28.1251276 73.9932358,28.4170863 C74.0662255,28.5630656 74.1392152,28.7090449 74.2122048,28.8550242 C74.4311738,29.2929622 74.6501428,29.5119312 74.9421014,29.5119312 C75.0880808,29.5119312 75.1610704,29.5119312 75.3070497,29.4389415 C75.4530291,29.3659519 75.5990084,29.2929622 75.7449877,29.1469829 C76.1829257,28.6360553 76.6208636,27.7601793 76.9858119,26.5923448 C77.0588016,26.3003861 77.1317913,26.0084275 77.2047809,25.7164688 C77.2777706,25.3515205 77.3507602,24.9865722 77.4237499,24.6216239 C77.4967396,24.1106963 77.5697292,23.5997687 77.5697292,23.088841 C77.6427189,22.5779134 77.6427189,22.1399755 77.6427189,21.6290478 C77.7157085,20.6071926 77.5697292,19.5123477 77.2047809,18.4904924 C77.2047809,18.3445131 77.0588016,18.0525545 76.8398326,17.9065751 Z M132.749913,24.3296653 L133.114861,21.8480168 C134.720634,21.7020375 135.961458,21.4100789 136.910323,20.7531719 C138.078158,20.0232753 139.537951,18.6364717 139.537951,15.9358543 C139.537951,14.4760611 139.173003,13.0892575 138.516096,11.8484333 C137.786199,10.5346194 136.399396,9.73173314 134.939603,9.73173314 C134.866613,9.73173314 134.793623,9.73173314 134.720634,9.73173314 C134.647644,7.54204331 132.822902,5.86328112 130.633213,5.79029146 C128.589502,5.79029146 126.545792,5.93627078 124.575071,6.22822942 C122.823319,6.52018806 121.436515,8.1259606 121.144557,9.87771246 C121.144557,9.95070212 116.473218,9.87771246 113.407653,9.87771246 C110.998994,9.87771246 109.75817,11.045547 109.75817,11.045547 C109.75817,11.045547 108.590335,9.51276415 105.45178,9.87771246 C103.918997,9.95070212 102.459204,10.1696711 100.926421,10.4616297 C101.218379,8.56389856 101.437348,6.66616738 101.510338,4.76843621 L101.510338,4.62245688 C101.510338,2.3597774 99.6855964,0.535035884 97.4229169,0.462046223 C94.4303409,0.462046223 90.9998268,0.899984187 89.2480749,1.26493249 C87.3503438,1.77586012 86.0365299,3.52761197 86.1095195,5.49833281 C86.1825092,7.25008467 85.3796229,12.5053402 85.3796229,12.5053402 C83.4818917,10.8995677 80.9272536,10.0236918 78.0076672,10.0236918 C75.3800394,10.0236918 72.7524116,10.6076091 70.4167425,11.8484333 C69.6138562,10.9725574 68.4460216,10.3886401 67.2781871,10.4616297 C64.9425179,10.4616297 63.1907661,10.4616297 61.5120039,10.6076091 C60.19819,10.6805987 59.0303554,11.4104953 58.3004588,12.5783299 C58.2274691,12.5053402 58.2274691,12.4323506 58.1544795,12.3593609 C57.4245829,11.045547 56.0377793,10.2426608 54.5779861,10.2426608 C51.5124203,10.2426608 46.1841751,11.1185367 45.9652061,11.264516 C44.1404646,10.4616297 42.1697438,10.0236918 40.1260333,10.0966814 C37.1334572,10.0236918 34.2138708,10.826578 31.7322223,12.3593609 C31.2942843,6.15523976 25.9660391,1.92183944 18.3751144,1.92183944 C18.3751144,1.92183944 9.10542746,2.28678774 7.42666527,2.65173604 C5.45594443,3.08967401 4.06914087,4.91441553 4.21512019,6.88513637 C4.21512019,8.27193992 4.14213053,9.73173314 3.85017189,11.264516 L1.14955444,28.6360553 C0.930585461,29.6579105 0.419657836,32.7964659 2.39037868,35.1321351 C3.19326494,36.0810007 4.65305816,37.1758456 7.20769628,37.1758456 C8.37553086,37.1758456 11.5140863,37.0298662 14.0687244,35.8620317 C14.7256313,35.570073 15.3095486,35.0591454 15.7474866,34.4752281 C17.1342901,36.0810007 19.1780006,37.2488352 22.1705767,37.2488352 C24.7982045,37.2488352 27.3528426,36.5919283 29.6885118,35.4240937 C31.8052119,36.6649179 34.2138708,37.3218249 36.6955192,37.2488352 C41.1478885,37.2488352 45.3082992,35.4970834 47.935927,32.5045073 C49.3957202,36.22698 52.0963376,37.1028559 54.2860275,37.1028559 C56.110769,37.1028559 58.3004588,36.8838869 60.4901486,35.789042 C62.3148901,34.9131661 63.1177764,31.92059 63.4827247,31.263683 C65.3074662,34.9131661 68.9569493,37.1758456 73.5552979,37.1758456 C77.2047809,37.1758456 80.7812743,36.008011 83.7008607,33.6723419 C83.9198297,34.0372902 84.1387987,34.3292488 84.3577677,34.6212074 C85.3066333,35.7160524 87.1313748,37.0298662 90.2699302,37.0298662 C92.5326097,37.1028559 94.7952892,36.445949 96.6200307,35.2051247 C97.6418859,36.22698 99.3206481,37.1758456 101.875286,37.1758456 C103.773017,37.1758456 105.670749,36.6649179 107.349511,35.789042 C108.590335,36.6649179 110.196108,37.1028559 112.093839,37.1028559 C115.086415,37.1028559 117.787032,36.0810007 119.538784,34.2562591 C120.998577,35.7160524 123.553215,37.1758456 127.932595,37.1758456 C131.947026,37.1758456 135.961458,34.6212074 138.005168,31.1906934 C139.610941,28.6360553 137.859189,24.1106963 132.749913,24.3296653 Z M27.5718116,13.6001852 C27.3528426,16.8117302 25.3091321,19.439358 22.1705767,21.1181202 L25.0171735,28.6360553 C25.8200598,30.6797658 26.3309874,31.482652 27.2068633,32.139559 C26.9878943,32.2855383 26.7689254,32.358528 26.5499564,32.4315176 C25.1631528,32.8694556 23.6303699,33.1614142 22.1705767,33.0884246 C20.7107835,33.0884246 18.7400627,32.7234763 17.4992384,29.1469829 L15.3825383,23.0158514 L13.2658381,23.0158514 L12.3169725,28.8550242 C12.1709932,29.5119312 12.0980036,30.1688381 12.0980036,30.8257451 L12.0980036,30.9717244 C12.0980036,31.3366727 12.1709932,31.701621 12.3169725,32.0665693 C12.3169725,32.0665693 12.3169725,32.0665693 12.3169725,32.0665693 C10.7112,32.7964659 8.52151018,33.0154349 7.20769628,33.0154349 C6.11285137,33.0154349 5.09099612,32.6504866 5.01800646,30.7527554 C5.01800646,30.2418278 5.09099612,29.7309002 5.16398578,29.2199725 L7.86460323,11.8484333 C8.08357221,10.5346194 8.22955153,9.14781585 8.22955153,7.83400196 C8.22955153,7.39606399 8.22955153,6.4471984 8.22955153,6.4471984 C9.10542746,6.22822942 12.2439829,5.86328112 15.0905796,5.86328112 C15.3095486,5.86328112 15.4555279,5.86328112 15.6015073,5.86328112 L18.2291351,5.86328112 C20.1268662,5.79029146 21.9516078,6.22822942 23.7033596,6.95812603 C24.1412976,7.17709501 24.6522252,7.46905365 25.0171735,7.7610123 C25.3821218,8.05297094 25.7470701,8.41791924 26.1120184,8.78286755 C26.5499564,9.36678483 26.9149047,9.95070212 27.2068633,10.6805987 C27.4258323,11.4104953 27.5718116,12.1403919 27.5718116,12.9432782 C27.5718116,13.1622472 27.5718116,13.3812162 27.5718116,13.6001852 Z M38.0093331,25.2785309 C37.7173745,25.2785309 37.4254158,25.3515205 37.2064468,25.3515205 C37.1334572,25.3515205 37.0604675,25.3515205 37.0604675,25.3515205 C36.7685089,25.3515205 36.4765502,25.3515205 36.1116019,25.3515205 L36.0386123,25.3515205 C36.0386123,25.4974999 36.0386123,25.6434792 36.0386123,25.7894585 C36.1845916,27.833169 37.0604675,29.5849209 38.9581987,29.5849209 C39.104178,29.5849209 39.2501573,29.5849209 39.3961367,29.5849209 C41.2208782,29.3659519 42.3157231,28.052138 43.2645887,28.052138 C43.7025266,28.1251276 44.1404646,28.271107 44.5054129,28.4900759 L45.4542785,29.0739932 C45.4542785,29.0739932 45.4542785,29.0739932 45.4542785,29.0739932 C44.7973716,30.0228588 43.9944853,30.8257451 42.97263,31.4096624 C41.0748989,32.6504866 38.885209,33.2344039 36.6225296,33.2344039 C31.8052119,33.2344039 28.8856255,30.5337864 28.6666565,26.2273965 C28.6666565,26.1544068 28.6666565,25.4974999 28.6666565,25.4974999 C28.6666565,20.0232753 32.2431499,14.0381231 40.1990229,14.0381231 C41.3668575,14.0381231 42.5346921,14.1841024 43.5565473,14.5490507 C43.5565473,14.5490507 43.5565473,14.5490507 43.5565473,14.5490507 C45.4542785,15.2059577 46.5491234,16.5927612 46.5491234,18.4175028 C46.6221131,20.6071926 45.2353095,24.6216239 38.0093331,25.2785309 Z M60.1252003,28.7820346 C59.4682934,29.8768795 58.8843761,31.0447141 58.4464381,32.2855383 C57.1326242,32.9424452 55.672831,33.0884246 54.2130378,33.0884246 C52.9722136,33.0884246 51.804379,32.5045073 51.2204617,29.2929622 L49.3957202,20.1692546 C49.0307719,18.3445131 48.4468546,16.5197716 47.716958,14.7680197 C48.3738649,14.6220404 49.0307719,14.4760611 49.6876788,14.4030714 C49.8336581,14.4030714 49.9796375,14.3300818 50.1256168,14.3300818 C50.1256168,14.3300818 50.1256168,14.3300818 50.1986065,14.3300818 C50.3445858,14.3300818 50.4905651,14.3300818 50.7095341,14.2570921 C50.7095341,14.2570921 50.7095341,14.2570921 50.7825237,14.2570921 C51.147472,14.2570921 51.5124203,14.1841024 51.9503583,14.1841024 C51.9503583,14.1841024 52.023348,14.1841024 52.023348,14.1841024 C52.1693273,14.1841024 52.3882963,14.1841024 52.5342756,14.1841024 C52.6072653,14.1841024 52.6802549,14.1841024 52.6802549,14.1841024 C52.8262342,14.1841024 52.9722136,14.1841024 53.1181929,14.1841024 C53.1911825,14.1841024 53.2641722,14.1841024 53.3371619,14.1841024 C53.4831412,14.1841024 53.6291205,14.1841024 53.7750998,14.1841024 C53.8480895,14.1841024 53.9210791,14.1841024 53.9940688,14.1841024 C54.2130378,14.1841024 54.4320068,14.1841024 54.6509758,14.1841024 C54.9429344,14.7680197 55.234893,15.351937 55.453862,15.9358543 C55.5268517,16.1548233 55.5998413,16.3008026 55.672831,16.5197716 C55.8188103,16.9577095 55.8918,17.3956475 55.9647896,17.8335855 L57.2056139,26.1544068 C58.2274691,24.183686 59.1763347,22.1399755 60.0522106,20.096265 C60.6361279,18.7094614 61.1470556,17.3226579 61.5120039,15.8628646 C61.6579832,15.351937 61.7309728,14.913999 61.8769522,14.4030714 C62.3148901,14.3300818 62.7528281,14.3300818 63.1907661,14.3300818 C63.409735,14.3300818 63.7016937,14.3300818 63.9206627,14.3300818 C64.1396317,14.3300818 64.285611,14.3300818 64.50458,14.3300818 C64.8695283,14.3300818 65.2344766,14.3300818 65.5264352,14.3300818 C65.5994249,14.3300818 65.6724145,14.3300818 65.7454042,14.3300818 C66.1833422,14.3300818 66.5482905,14.3300818 66.9862284,14.3300818 L67.2781871,14.3300818 C67.1322077,15.570906 66.8402491,16.7387406 66.3293215,17.9065751 C64.5775696,21.6290478 62.3878798,25.2055412 60.1252003,28.7820346 Z M82.8249848,28.8550242 C82.1680778,29.7309002 81.3651916,30.4607968 80.4893157,31.0447141 C80.4893157,31.0447141 80.4893157,31.0447141 80.4893157,31.0447141 C80.3433363,31.1906934 80.1243673,31.263683 79.978388,31.4096624 C79.978388,31.4096624 79.9053984,31.4096624 79.9053984,31.482652 C79.759419,31.5556417 79.6134397,31.701621 79.4674604,31.7746107 C79.4674604,31.7746107 79.3944707,31.7746107 79.3944707,31.8476003 C79.2484914,31.92059 79.1025121,31.9935797 78.8835431,32.0665693 C78.8835431,32.0665693 78.8105535,32.0665693 78.8105535,32.139559 C78.5915845,32.2125486 78.4456052,32.2855383 78.2266362,32.358528 C78.2266362,32.358528 78.2266362,32.358528 78.2266362,32.358528 C77.8616879,32.5045073 77.4237499,32.6504866 76.9858119,32.7964659 C76.9128223,32.7964659 76.9128223,32.7964659 76.8398326,32.8694556 C76.6938533,32.9424452 76.547874,32.9424452 76.4018947,33.0154349 C76.328905,33.0154349 76.2559153,33.0154349 76.1829257,33.0884246 C76.0369463,33.0884246 75.890967,33.1614142 75.7449877,33.1614142 C75.671998,33.1614142 75.5990084,33.1614142 75.5260187,33.2344039 C75.3800394,33.2344039 75.2340601,33.3073935 75.0880808,33.3073935 C75.0150911,33.3073935 74.9421014,33.3073935 74.8691118,33.3073935 C74.7231325,33.3073935 74.5771531,33.3073935 74.4311738,33.3073935 C74.3581842,33.3073935 74.2851945,33.3073935 74.2122048,33.3073935 C73.9932358,33.3073935 73.7742669,33.3073935 73.5552979,33.3073935 C73.2633392,33.3073935 73.0443703,33.3073935 72.7524116,33.3073935 C72.679422,33.3073935 72.6064323,33.3073935 72.460453,33.3073935 C72.3144737,33.3073935 72.0955047,33.2344039 71.9495253,33.2344039 C71.8765357,33.2344039 71.7305564,33.1614142 71.6575667,33.1614142 C71.5115874,33.1614142 71.3656081,33.0884246 71.2196287,33.0884246 C71.1466391,33.0884246 71.0006598,33.0154349 70.9276701,33.0154349 C70.7816908,32.9424452 70.6357115,32.9424452 70.5627218,32.8694556 C70.4897321,32.7964659 70.3437528,32.7964659 70.2707632,32.7234763 C70.1247838,32.6504866 70.0517942,32.6504866 69.9058148,32.5774969 C69.8328252,32.5045073 69.6868459,32.5045073 69.6138562,32.4315176 C69.5408665,32.358528 69.3948872,32.2855383 69.3218976,32.2125486 C69.2489079,32.139559 69.1759182,32.0665693 69.0299389,32.0665693 C68.9569493,31.9935797 68.8109699,31.92059 68.7379803,31.8476003 C68.6649906,31.7746107 68.592001,31.701621 68.5190113,31.6286314 C68.4460216,31.5556417 68.373032,31.482652 68.3000423,31.4096624 C68.2270527,31.3366727 68.154063,31.263683 68.0810733,31.1906934 C68.0080837,31.1177037 67.935094,31.0447141 67.8621043,30.9717244 C67.7891147,30.8987347 67.716125,30.8257451 67.6431354,30.6797658 C67.5701457,30.6067761 67.497156,30.5337864 67.4241664,30.3878071 C67.3511767,30.3148175 67.2781871,30.1688381 67.2781871,30.0958485 C67.2051974,30.0228588 67.2051974,29.8768795 67.1322077,29.8038898 C67.0592181,29.7309002 67.0592181,29.5849209 66.9862284,29.5119312 C66.9132388,29.4389415 66.9132388,29.2929622 66.8402491,29.2199725 C66.7672594,29.0739932 66.7672594,29.0010036 66.6942698,28.8550242 C66.6942698,28.7820346 66.6212801,28.6360553 66.6212801,28.5630656 C66.6212801,28.4170863 66.5482905,28.3440966 66.5482905,28.1981173 C66.5482905,28.1251276 66.4753008,27.9791483 66.4753008,27.9061587 C66.4023111,27.5412104 66.3293215,27.176262 66.3293215,26.8113137 C66.3293215,26.8113137 66.3293215,26.8113137 66.3293215,26.8113137 C66.3293215,26.5193551 66.3293215,26.2273965 66.3293215,25.9354378 C66.3293215,21.8480168 68.2270527,18.4175028 71.1466391,16.3737923 C71.6575667,16.008844 72.0955047,15.7168853 72.679422,15.4979163 C72.679422,15.4979163 72.679422,15.4979163 72.679422,15.4979163 C73.1903496,15.2789474 73.7742669,15.0599784 74.2851945,14.8410094 L74.3581842,14.8410094 C74.6501428,14.7680197 74.8691118,14.6950301 75.1610704,14.6220404 C75.1610704,14.6220404 75.2340601,14.6220404 75.2340601,14.6220404 C75.5260187,14.5490507 75.7449877,14.5490507 76.0369463,14.4760611 C76.0369463,14.4760611 76.109936,14.4760611 76.109936,14.4760611 C76.4018947,14.4030714 76.6938533,14.4030714 76.9128223,14.4030714 L77.1317913,14.4030714 C77.4237499,14.4030714 77.7157085,14.4030714 78.0076672,14.4030714 C78.2266362,14.4030714 78.5185948,14.4030714 78.7375638,14.4030714 C78.8105535,14.4030714 78.8835431,14.4030714 78.9565328,14.4030714 C79.1755018,14.4030714 79.3214811,14.4760611 79.5404501,14.4760611 C79.6134397,14.4760611 79.6134397,14.4760611 79.6864294,14.4760611 C79.9053984,14.5490507 80.1243673,14.5490507 80.3433363,14.6220404 C80.416326,14.6220404 80.4893157,14.6950301 80.5623053,14.6950301 C80.7082846,14.7680197 80.854264,14.7680197 81.0002433,14.8410094 C81.0732329,14.8410094 81.1462226,14.913999 81.2192123,14.913999 C81.3651916,14.9869887 81.5841606,15.0599784 81.7301399,15.132968 C81.8031295,15.132968 81.8761192,15.2059577 81.9491089,15.2789474 C82.0220985,15.351937 82.1680778,15.4249267 82.2410675,15.4979163 C82.3140572,15.570906 82.3870468,15.570906 82.4600365,15.6438957 C82.5330262,15.7168853 82.6060158,15.789875 82.7519951,15.8628646 C82.8979745,15.9358543 82.9709641,16.0818336 83.1169434,16.1548233 C83.1899331,16.2278129 83.2629228,16.3008026 83.3359124,16.3737923 C83.4089021,16.4467819 83.4818917,16.5197716 83.5548814,16.5927612 C83.6278711,16.6657509 83.6278711,16.6657509 83.7008607,16.7387406 C83.84684,16.9577095 84.065809,17.1766785 84.2117883,17.3956475 C84.2117883,17.3956475 84.2117883,17.3956475 84.2117883,17.3956475 C84.284778,17.5416268 84.3577677,17.6146165 84.4307573,17.7605958 C84.4307573,17.8335855 84.503747,17.8335855 84.503747,17.9065751 C85.0876643,19.1473994 85.4526126,20.4612133 85.3796229,21.8480168 C85.3066333,24.183686 84.4307573,26.7383241 82.8249848,28.8550242 Z M97.203948,7.46905365 C97.0579686,8.4909089 96.9119893,9.51276415 96.76601,10.5346194 L95.9631237,15.789875 L93.9194132,28.7820346 C93.9194132,28.9280139 93.8464236,29.0739932 93.8464236,29.2199725 C93.8464236,29.2199725 93.8464236,29.2929622 93.8464236,29.2929622 C93.8464236,29.4389415 93.8464236,29.5119312 93.8464236,29.6579105 C93.8464236,29.6579105 93.8464236,29.7309002 93.8464236,29.7309002 C93.8464236,29.8038898 93.9194132,29.8768795 93.9194132,29.9498692 C93.9194132,29.9498692 93.9194132,30.0228588 93.9194132,30.0228588 C93.9194132,30.0958485 93.9924029,30.1688381 94.0653925,30.2418278 C94.0653925,30.2418278 94.1383822,30.3148175 94.1383822,30.3148175 C94.2113719,30.3878071 94.2113719,30.3878071 94.2843615,30.4607968 C94.2843615,30.4607968 94.3573512,30.5337864 94.3573512,30.5337864 C94.6493098,30.7527554 95.0142581,30.8257451 95.3792064,30.8257451 C95.0872478,31.263683 94.7222995,31.6286314 94.2843615,31.8476003 C94.2113719,31.8476003 94.2113719,31.92059 94.1383822,31.92059 C94.0653925,31.9935797 93.9194132,32.0665693 93.8464236,32.139559 C93.7734339,32.2125486 93.7004442,32.2125486 93.6274546,32.2125486 C93.5544649,32.2855383 93.4084856,32.2855383 93.3354959,32.358528 C93.1895166,32.4315176 92.9705476,32.5045073 92.7515787,32.5774969 C92.678589,32.5774969 92.6055993,32.6504866 92.45962,32.6504866 C92.3136407,32.7234763 92.1676614,32.7234763 92.021682,32.7234763 C91.9486924,32.7234763 91.8757027,32.7234763 91.7297234,32.7964659 C91.5837441,32.7964659 91.4377648,32.8694556 91.2187958,32.8694556 C91.1458061,32.8694556 91.0728165,32.8694556 90.9998268,32.8694556 C90.7808578,32.8694556 90.4888992,32.8694556 90.2699302,32.8694556 C90.1969405,32.8694556 90.0509612,32.8694556 89.9779715,32.8694556 C89.9049819,32.8694556 89.9049819,32.8694556 89.8319922,32.8694556 C89.7590026,32.8694556 89.6860129,32.8694556 89.6130232,32.8694556 C89.5400336,32.8694556 89.5400336,32.8694556 89.4670439,32.8694556 C89.3940543,32.8694556 89.3210646,32.8694556 89.3210646,32.8694556 C89.2480749,32.8694556 89.2480749,32.8694556 89.1750853,32.8694556 C89.1020956,32.8694556 89.1020956,32.8694556 89.029106,32.8694556 C88.9561163,32.8694556 88.8831266,32.8694556 88.8831266,32.7964659 C88.810137,32.7964659 88.810137,32.7964659 88.7371473,32.7234763 C88.6641577,32.7234763 88.591168,32.6504866 88.591168,32.6504866 C88.591168,32.6504866 88.5181783,32.6504866 88.5181783,32.5774969 C88.4451887,32.5774969 88.372199,32.5045073 88.2992094,32.5045073 C88.2992094,32.5045073 88.2262197,32.5045073 88.2262197,32.5045073 C87.934261,32.358528 87.6423024,32.139559 87.4233334,31.8476003 C87.4233334,31.8476003 87.4233334,31.8476003 87.4233334,31.7746107 C87.3503438,31.701621 87.3503438,31.6286314 87.2773541,31.5556417 C87.2773541,31.5556417 87.2773541,31.482652 87.2043644,31.482652 C87.1313748,31.4096624 87.1313748,31.3366727 87.1313748,31.263683 C87.1313748,31.263683 87.1313748,31.1906934 87.1313748,31.1906934 C87.1313748,31.1177037 87.0583851,31.0447141 87.0583851,30.8987347 C87.0583851,30.8987347 87.0583851,30.8257451 87.0583851,30.8257451 C87.0583851,30.7527554 86.9853955,30.6067761 86.9853955,30.5337864 C86.9853955,30.5337864 86.9853955,30.4607968 86.9853955,30.4607968 C86.9853955,30.3148175 86.9853955,30.2418278 86.9853955,30.0958485 C86.9853955,29.7309002 86.9853955,29.4389415 87.0583851,29.0739932 L90.0509612,10.4616297 C90.1239509,10.2426608 90.1239509,10.0236918 90.1239509,9.73173314 C90.2699302,8.85585721 90.3429199,8.05297094 90.4159095,7.17709501 C90.4159095,6.52018806 90.4159095,5.86328112 90.4159095,5.06039485 C90.5618888,5.06039485 90.6348785,4.98740519 90.7808578,4.98740519 C90.9268371,4.98740519 91.0728165,4.91441553 91.2187958,4.91441553 C91.4377648,4.84142587 91.7297234,4.84142587 92.021682,4.76843621 C92.1676614,4.76843621 92.3136407,4.76843621 92.45962,4.69544655 C92.897558,4.62245688 93.3354959,4.62245688 93.8464236,4.54946722 C94.2113719,4.54946722 94.5033305,4.47647756 94.8682788,4.47647756 C95.7441547,4.4034879 96.6930203,4.4034879 97.5688963,4.4034879 C97.5688963,4.98740519 97.4959066,5.7173018 97.4959066,6.4471984 C97.2769376,6.95812603 97.203948,7.25008467 97.203948,7.46905365 Z M117.130125,30.8987347 C116.254249,32.2125486 114.356518,33.0884246 112.093839,33.0884246 C111.87487,33.0884246 111.582911,33.0884246 111.363942,33.0884246 C111.144973,33.0884246 110.926004,33.0154349 110.707035,32.9424452 C110.488066,32.8694556 110.269097,32.7964659 110.050128,32.7234763 C109.028273,32.2855383 108.444356,31.263683 108.736314,29.2929622 L108.809304,28.9280139 C108.736314,29.1469829 108.590335,29.2929622 108.444356,29.5119312 C108.225387,29.8768795 107.933428,30.2418278 107.714459,30.5337864 C107.4225,30.8257451 107.130542,31.1177037 106.838583,31.3366727 C106.692604,31.482652 106.546625,31.5556417 106.400645,31.701621 C106.108687,31.92059 105.743738,32.139559 105.45178,32.2855383 C104.867862,32.5774969 104.210955,32.8694556 103.554048,33.0154349 C103.26209,33.0884246 102.970131,33.1614142 102.678173,33.1614142 C102.386214,33.1614142 102.167245,33.2344039 101.875286,33.2344039 C101.729307,33.2344039 101.583328,33.2344039 101.364359,33.2344039 C101.291369,33.2344039 101.218379,33.2344039 101.218379,33.2344039 C101.14539,33.2344039 100.99941,33.2344039 100.926421,33.1614142 C100.853431,33.1614142 100.780441,33.1614142 100.707452,33.0884246 C100.634462,33.0884246 100.561472,33.0154349 100.488483,33.0154349 C100.415493,33.0154349 100.342503,32.9424452 100.269514,32.9424452 C100.269514,32.9424452 100.196524,32.9424452 100.196524,32.8694556 C98.5177619,32.139559 98.0068342,30.1688381 98.4447722,27.5412104 L99.6126068,20.096265 C99.6126068,19.877296 99.6855964,19.658327 99.6855964,19.5123477 C99.6855964,19.439358 99.6855964,19.3663684 99.6855964,19.2933787 C99.6855964,19.1473994 99.6855964,19.0744097 99.7585861,18.9284304 C99.7585861,18.8554407 99.7585861,18.7094614 99.7585861,18.6364717 C99.7585861,18.5634821 99.7585861,18.4904924 99.7585861,18.3445131 C99.8315757,17.9065751 99.8315757,17.5416268 99.8315757,17.1036889 C99.8315757,17.0306992 99.8315757,17.0306992 99.8315757,16.9577095 C99.8315757,16.8117302 99.8315757,16.6657509 99.8315757,16.5197716 C99.8315757,16.4467819 99.8315757,16.4467819 99.8315757,16.3737923 C99.8315757,16.2278129 99.8315757,16.0818336 99.8315757,15.9358543 C99.8315757,15.4979163 99.8315757,15.132968 99.7585861,14.6220404 C99.8315757,14.6220404 99.9045654,14.5490507 100.050545,14.5490507 C100.123534,14.5490507 100.196524,14.5490507 100.342503,14.4760611 L100.488483,14.4760611 C100.561472,14.4760611 100.634462,14.4760611 100.707452,14.4760611 C100.780441,14.4760611 100.780441,14.4760611 100.853431,14.4760611 C100.926421,14.4760611 100.99941,14.4760611 101.0724,14.4760611 C101.14539,14.4760611 101.14539,14.4760611 101.218379,14.4760611 C101.291369,14.4760611 101.364359,14.4760611 101.437348,14.4760611 C101.510338,14.4760611 101.583328,14.4760611 101.583328,14.4760611 C101.656317,14.4760611 101.729307,14.4760611 101.802297,14.4760611 C101.875286,14.4760611 101.948276,14.4760611 102.021266,14.4760611 C102.094255,14.4760611 102.167245,14.4760611 102.240235,14.4760611 L102.459204,14.4760611 C102.532193,14.4760611 102.605183,14.4760611 102.678173,14.4760611 L102.897141,14.4760611 C102.970131,14.4760611 103.043121,14.4760611 103.11611,14.4760611 C103.1891,14.4760611 103.26209,14.4760611 103.335079,14.4760611 L103.627038,14.4760611 L103.846007,14.4760611 C103.918997,14.4760611 103.991986,14.4760611 104.137966,14.4760611 L104.356935,14.4760611 C104.429924,14.4760611 104.575904,14.4760611 104.648893,14.4760611 C104.721883,14.4760611 104.794873,14.4760611 104.867862,14.4760611 C104.940852,14.4760611 105.086831,14.4760611 105.159821,14.4760611 C105.232811,14.4760611 105.3058,14.4760611 105.37879,14.4760611 C105.45178,14.4760611 105.597759,14.4760611 105.670749,14.4760611 C105.743738,14.4760611 105.816728,14.4760611 105.889718,14.4760611 C106.035697,14.4760611 106.108687,14.4760611 106.254666,14.4760611 C106.327656,14.4760611 106.400645,14.4760611 106.473635,14.4760611 C106.619614,14.4760611 106.838583,14.4760611 106.984562,14.4760611 C107.057552,16.0818336 106.692604,18.2715234 106.400645,20.3152339 L105.37879,26.5923448 C105.37879,26.7383241 105.232811,27.833169 105.232811,28.1251276 C105.232811,28.4170863 105.232811,28.7820346 105.3058,29.0739932 C105.3058,29.2199725 105.37879,29.3659519 105.45178,29.5849209 C105.524769,29.6579105 105.597759,29.8038898 105.670749,29.8038898 C105.670749,29.8038898 105.743738,29.8038898 105.743738,29.8038898 C105.962707,29.8038898 106.327656,29.5849209 106.765594,29.1469829 C107.4225,28.4900759 107.933428,27.6871897 108.371366,26.8843034 C108.517345,26.5193551 108.736314,26.2273965 108.882294,25.7894585 C109.028273,25.4245102 109.174252,24.9865722 109.320232,24.6216239 C109.393221,24.4026549 109.466211,24.183686 109.466211,23.964717 L109.977139,20.3882236 C110.050128,19.877296 110.123118,19.439358 110.196108,19.00142 C110.269097,18.3445131 110.342087,17.6876062 110.415077,16.9577095 C110.488066,16.3008026 110.561056,15.570906 110.561056,14.7680197 C111.436932,14.6950301 114.867446,14.2570921 117.495074,14.3300818 C117.422084,16.3008026 117.203115,18.2715234 116.838167,20.2422443 L115.451363,29.0010036 C115.451363,30.2418278 116.03528,30.8987347 117.130125,30.8987347 Z M121.217546,28.5630656 C121.217546,28.1251276 121.217546,27.6871897 121.290536,27.3222414 L122.750329,18.1985338 C122.458371,18.1985338 122.312391,18.2715234 122.166412,18.2715234 C121.801464,18.3445131 121.655484,18.3445131 121.509505,18.4175028 C121.290536,18.4904924 120.998577,18.4904924 120.779608,18.5634821 C120.560639,17.2496682 120.560639,15.9358543 120.779608,14.6220404 C121.071567,14.6220404 121.363526,14.6220404 121.801464,14.5490507 C122.020433,14.5490507 123.480226,14.5490507 123.553215,14.5490507 C124.064143,13.1622472 124.867029,11.9944126 125.158988,10.3886401 C125.596926,10.3156504 126.180843,10.2426608 126.764761,10.1696711 C127.056719,10.1696711 127.202699,10.0966814 127.421667,10.0966814 C127.640636,10.0966814 127.859605,10.0966814 128.151564,10.0236918 C128.881461,9.95070212 129.684347,9.95070212 130.633213,9.95070212 C130.560223,11.1915263 130.414244,12.7243092 130.195275,14.5490507 L131.509089,14.5490507 C133.552799,14.5490507 134.355685,14.3300818 135.012592,13.8191541 C135.377541,14.4760611 135.59651,15.2059577 135.59651,15.9358543 C135.59651,16.9577095 135.304551,17.6146165 132.093006,17.6876062 C131.874037,17.6876062 131.655068,17.6876062 131.363109,17.6876062 L129.684347,17.6876062 L128.224554,26.8113137 C128.224554,27.0302827 128.224554,27.0302827 128.224554,27.1032724 C128.224554,27.176262 128.224554,27.3222414 128.224554,27.395231 C128.224554,28.6360553 128.808471,29.6579105 129.757337,29.6579105 C131.29012,29.6579105 131.655068,28.4900759 132.238985,28.4900759 C133.625789,28.7090449 134.428675,29.5119312 134.428675,29.5119312 C133.40682,31.482652 130.779192,33.3073935 128.005585,33.3073935 C123.772184,33.2344039 121.363526,31.3366727 121.217546,28.5630656 Z" id="Revolut-logo-coloured_1_"></path>
        </g>
    </g>
</svg>