<?xml version="1.0" encoding="UTF-8"?>
<svg width="154px" height="154px" viewBox="0 0 154 154" version="1.1" xmlns="http://www.w3.org/2000/svg" xmlns:xlink="http://www.w3.org/1999/xlink">
    <!-- Generator: Sketch 63.1 (92452) - https://sketch.com -->
    <title>Artboard</title>
    <desc>Created with Sketch.</desc>
    <defs>
        <linearGradient x1="0.170666667%" y1="49.648%" x2="99.8186667%" y2="49.648%" id="linearGradient-1">
            <stop stop-color="#656565" offset="0%"></stop>
            <stop stop-color="#010101" offset="100%"></stop>
        </linearGradient>
        <linearGradient x1="0.170666667%" y1="49.82%" x2="99.8186667%" y2="49.82%" id="linearGradient-2">
            <stop stop-color="#656565" offset="0%"></stop>
            <stop stop-color="#010101" offset="100%"></stop>
        </linearGradient>
        <linearGradient x1="0.170666667%" y1="50.052%" x2="99.8186667%" y2="50.052%" id="linearGradient-3">
            <stop stop-color="#9F1C20" offset="0%"></stop>
            <stop stop-color="#ED2224" offset="100%"></stop>
        </linearGradient>
        <linearGradient x1="0.170666667%" y1="50.26%" x2="99.8186667%" y2="50.26%" id="linearGradient-4">
            <stop stop-color="#9F1C20" offset="0%"></stop>
            <stop stop-color="#ED2224" offset="100%"></stop>
        </linearGradient>
        <linearGradient x1="0.170666667%" y1="50.44%" x2="99.8186667%" y2="50.44%" id="linearGradient-5">
            <stop stop-color="#9F1C20" offset="0%"></stop>
            <stop stop-color="#ED2224" offset="100%"></stop>
        </linearGradient>
    </defs>
    <g id="Artboard" stroke="none" stroke-width="1" fill="none" fill-rule="evenodd">
        <g id="scala-logo" transform="translate(44.000000, 18.000000)" fill-rule="nonzero">
            <path d="M0,43.4 C0,43.4 66,50 66,61 L66,34.6 C66,34.6 66,23.6 0,17 L0,43.4 Z" id="Path" fill="url(#linearGradient-1)"></path>
            <path d="M0,79.4 C0,79.4 66,86 66,97 L66,70.6 C66,70.6 66,59.6 0,53 L0,79.4 Z" id="Path" fill="url(#linearGradient-2)"></path>
            <path d="M66,0 L66,26.4 C66,26.4 66,37.4 0,44 L0,17.6 C0,17.6 66,11 66,0" id="Path" fill="url(#linearGradient-3)"></path>
            <path d="M0,52.6 C0,52.6 66,46 66,35 L66,61.4 C66,61.4 66,72.4 0,79 L0,52.6 Z" id="Path" fill="url(#linearGradient-4)"></path>
            <path d="M0,114 L0,87.6 C0,87.6 66,81 66,70 L66,96.4 C66,96.4 66,107.4 0,114" id="Path" fill="url(#linearGradient-5)"></path>
        </g>
    </g>
</svg>