<?xml version="1.0" encoding="UTF-8"?>
<svg width="148px" height="148px" viewBox="0 0 148 148" version="1.1" xmlns="http://www.w3.org/2000/svg" xmlns:xlink="http://www.w3.org/1999/xlink">
    <!-- Generator: Sketch 52.3 (67297) - http://www.bohemiancoding.com/sketch -->
    <title>tech  shopify</title>
    <desc>Created with Sketch.</desc>
    <g id="tech--shopify" stroke="none" stroke-width="1" fill="none" fill-rule="evenodd">
        <rect id="Rectangle-9" fill-rule="nonzero" x="0" y="0" width="148" height="148"></rect>
        <g id="shopify-logo-icon-vector-copy" transform="translate(38.000000, 33.000000)">
            <path d="M63.0617208,15.9657565 C63.0051174,15.5536174 62.644707,15.3255148 62.346667,15.3004157 C62.0493391,15.2755304 55.7560398,14.8084157 55.7560398,14.8084157 C55.7560398,14.8084157 51.3853332,10.4629148 50.9055928,9.98189565 C50.42571,9.50116174 49.4881587,9.64740696 49.1241883,9.75457739 C49.0706464,9.77040696 48.1692643,10.048993 46.6782102,10.5110452 C45.2181989,6.30344696 42.6415703,2.43689739 38.1084582,2.43689739 C37.9831475,2.43689739 37.8544193,2.44196 37.72562,2.44930435 C36.4364156,0.74177913 34.8394171,0 33.4600033,0 C22.9002331,0 17.8552698,13.2203252 16.2734367,19.938407 C12.1700831,21.21176 9.25518691,22.11704 8.88274378,22.2341217 C6.5924072,22.9536539 6.51992639,23.0258852 6.21918087,25.1873339 C5.99283854,26.8236261 0,73.2376226 0,73.2376226 L46.6977188,82 L72,76.5182643 C72,76.5182643 63.117897,16.3778243 63.0620056,15.9657565 L63.0617208,15.9657565 Z M44.0973096,11.3104383 L40.1458951,12.535233 C40.1473903,12.2563617 40.1488143,11.9819826 40.1488143,11.6819339 C40.1488143,9.06691826 39.7862678,6.96144348 39.204855,5.2923513 C41.5404743,5.5859113 43.0960349,8.2474887 44.0973096,11.3104383 Z M36.307189,5.81087652 C36.9565972,7.44046609 37.3788085,9.77910609 37.3788085,12.9348939 C37.3788085,13.0963983 37.3773846,13.2439983 37.3760318,13.3933096 C34.8064518,14.1904209 32.0139471,15.055913 29.2153905,15.9241861 C30.7868285,9.85076696 33.7322692,6.91737739 36.307189,5.81087652 Z M33.1698665,2.83655826 C33.6256127,2.83655826 34.0847765,2.99150261 34.5241469,3.29440348 C31.1399055,4.88926783 27.5123763,8.90605565 25.9803826,16.927367 L19.5297331,18.928167 C21.3240959,12.8098974 25.5846574,2.83655826 33.1693681,2.83655826 L33.1698665,2.83655826 Z" id="Shape" fill="#95BF46" fill-rule="nonzero"></path>
            <path d="M62.4611614,15.6033219 C62.1673599,15.5785495 55.9487029,15.1135521 55.9487029,15.1135521 C55.9487029,15.1135521 51.6298355,10.7877487 51.1557851,10.3089099 C50.9784208,10.1306763 50.7391443,10.0394655 50.4890331,10 L47,82 L72,76.54368 C72,76.54368 63.2229627,16.6758469 63.1677342,16.2656469 C63.1118022,15.8553759 62.7556664,15.6283073 62.4611614,15.6033219" id="Path" fill="#5E8E3E"></path>
            <path d="M37,29.2363804 L34.0027886,38.6205746 C34.0027886,38.6205746 31.376783,37.1453848 28.1578194,37.1453848 C23.4387795,37.1453848 23.2012954,40.2625062 23.2012954,41.0480502 C23.2012954,45.3340201 33.8157151,46.9762397 33.8157151,57.0154499 C33.8157151,64.913943 29.056251,70 22.6389805,70 C14.9381192,70 11,64.9554124 11,64.9554124 L13.0619124,57.7844349 C13.0619124,57.7844349 17.1100869,61.4426752 20.5259051,61.4426752 C22.7578594,61.4426752 23.6657985,59.5929643 23.6657985,58.241391 C23.6657985,52.6506448 14.9576132,52.401252 14.9576132,43.2143977 C14.9576132,35.4823585 20.2301443,28 30.8733604,28 C34.9741343,28 37,29.2363804 37,29.2363804" id="Path" fill="#FFFFFF"></path>
        </g>
    </g>
</svg>