<?xml version="1.0" encoding="UTF-8"?>
<svg width="148px" height="148px" viewBox="0 0 148 148" version="1.1" xmlns="http://www.w3.org/2000/svg" xmlns:xlink="http://www.w3.org/1999/xlink">
    <!-- Generator: Sketch 52.3 (67297) - http://www.bohemiancoding.com/sketch -->
    <title>sketch-logo</title>
    <desc>Created with Sketch.</desc>
    <g id="Symbols" stroke="none" stroke-width="1" fill="none" fill-rule="evenodd">
        <g id="tech-Sketch">
            <g id="Sketch_Logo" transform="translate(34.000000, 38.000000)">
                <polygon id="Path" fill="#FDB300" points="17.4545455 2.34917954 40.0000001 0 62.5454547 2.34917954 80 25.4428089 40.0000001 71.3513514 0 25.4428089"></polygon>
                <g id="Group" transform="translate(0.000000, 25.945946)">
                    <polygon id="Path" fill="#EA6C00" points="16.1693401 0 39.9193909 45.3939053 0 0"></polygon>
                    <polygon id="Path" fill="#EA6C00" transform="translate(59.878978, 22.696953) scale(-1, 1) translate(-59.878978, -22.696953) " points="56.0886229 0 79.8386737 45.3939053 39.9192828 0"></polygon>
                    <polygon id="Path" fill="#FDAD00" points="16.1693401 0 63.6694416 0 39.9193909 45.3939053"></polygon>
                </g>
                <g id="Group">
                    <polygon id="Path" fill="#FDD231" points="39.9193909 0 17.4192893 2.29363694 16.1693401 24.8415663"></polygon>
                    <polygon id="Path" fill="#FDD231" transform="translate(51.794294, 12.420783) scale(-1, 1) translate(-51.794294, -12.420783) " points="63.669319 0 41.1692175 2.29363694 39.9192682 24.8415663"></polygon>
                    <polygon id="Path" fill="#FDAD00" transform="translate(71.129029, 13.567602) scale(-1, 1) translate(-71.129029, -13.567602) " points="62.4192828 24.8415663 79.8387752 2.29363694 78.5886229 24.8415663"></polygon>
                    <polygon id="Path" fill="#FDAD00" points="0 24.8415663 17.4192893 2.29363694 16.1693401 24.8415663"></polygon>
                    <polygon id="Path" fill="#FEEEB7" points="39.9193909 0 16.1693401 24.8415663 63.6694416 24.8415663"></polygon>
                </g>
            </g>
        </g>
    </g>
</svg>