<?xml version="1.0" encoding="UTF-8"?>
<svg width="148px" height="148px" viewBox="0 0 148 148" version="1.1" xmlns="http://www.w3.org/2000/svg" xmlns:xlink="http://www.w3.org/1999/xlink">
    <!-- Generator: Sketch 52.3 (67297) - http://www.bohemiancoding.com/sketch -->
    <title>Slack</title>
    <desc>Created with Sketch.</desc>
    <g id="Slack" stroke="none" stroke-width="1" fill="none" fill-rule="evenodd">
        <g id="slack-new-logo" transform="translate(38.000000, 38.000000)" fill-rule="nonzero">
            <path d="M25.9887616,8.21512341e-16 C22.0704661,0.00289043959 18.89934,3.17659311 18.902236,7.08735787 C18.89934,10.9981226 22.0733621,14.1718253 25.9916576,14.1747157 L33.0810811,14.1747157 L33.0810791,7.09024831 C33.0839751,3.17948355 29.909953,0.00578087918 25.9887616,0 C25.9916576,0 25.9916576,0 25.9887616,0 Z M25.9887616,18.9034749 L7.08942946,18.9034749 C3.17113397,18.9063653 -0.00288809111,22.080068 7.91442426e-06,25.9908328 C-0.00578409664,29.9015975 3.16823797,33.0753002 7.08653345,33.0810811 L25.9887616,33.0810811 C29.907057,33.0781906 33.0810791,29.904488 33.0781831,25.9937232 C33.0810791,22.080068 29.907057,18.9063653 25.9887616,18.9034749 Z" id="Shape" fill="#36C5F0"></path>
            <path d="M71.999998,25.9908328 C72.0028943,22.080068 68.8285943,18.9063653 64.9099558,18.9034749 C60.9913173,18.9063653 57.8170173,22.080068 57.8199136,25.9908328 L57.8199116,33.0810811 L64.9099558,33.0810811 C68.8285943,33.0781906 72.0028943,29.904488 71.999998,25.9908328 Z M53.096115,25.9908328 L53.096115,7.08735787 C53.0990113,3.17948355 49.9276076,0.00578087918 46.0089691,0 C42.0903305,0.00289043959 38.9160306,3.17659311 38.9189268,7.08735787 L38.9189268,25.9908328 C38.9131343,29.9015975 42.0874343,33.0753002 46.0060728,33.0810811 C49.9247113,33.0781906 53.0990113,29.904488 53.096115,25.9908328 Z" id="Shape" fill="#2EB67D"></path>
            <path d="M46.0083424,72 C49.9266379,71.9971098 53.10066,68.8236844 53.097764,64.9132613 C53.10066,61.0028382 49.9266379,57.8294128 46.0083424,57.8265227 L38.9189189,57.8265227 L38.9189209,64.9132613 C38.9160249,68.8207942 42.090047,71.9942196 46.0083424,72 Z M46.0083424,53.0952864 L64.9105705,53.0952864 C68.828866,53.0923963 72.0028881,49.9189709 71.9999921,46.0085478 C72.0057841,42.0981247 68.831762,38.9246993 64.9134665,38.9189189 L46.0112384,38.9189189 C42.092943,38.9218091 38.9189209,42.0952345 38.9218169,46.0056576 C38.9189209,49.9189709 42.090047,53.0923963 46.0083424,53.0952864 Z" id="Shape" fill="#ECB22E"></path>
            <path d="M1.98035285e-06,46.0062768 C-0.00289427872,49.9170416 3.17140567,53.0907442 7.0900442,53.0936347 C11.0086827,53.0907442 14.1829827,49.9170416 14.1800864,46.0062768 L14.1800884,38.9189189 L7.0900442,38.9189189 C3.17140567,38.9218094 -0.00289427872,42.095512 1.98035285e-06,46.0062768 Z M18.903885,46.0062768 L18.903885,64.9097517 C18.8980925,68.8205165 22.0723924,71.9942191 25.9910309,72 C29.9096695,71.9971096 33.0839694,68.8234069 33.0810732,64.9126421 L33.0810732,46.0120577 C33.0868657,42.1012929 29.9125657,38.9275902 25.9939272,38.9218094 C22.0723924,38.9218094 18.9009887,42.095512 18.903885,46.0062768 C18.903885,46.0062768 18.903885,46.0091672 18.903885,46.0062768 Z" id="Shape" fill="#E01E5A"></path>
        </g>
    </g>
</svg>