<?xml version="1.0" encoding="UTF-8"?>
<svg width="148px" height="148px" viewBox="0 0 148 148" version="1.1" xmlns="http://www.w3.org/2000/svg" xmlns:xlink="http://www.w3.org/1999/xlink">
    <!-- Generator: Sketch 52.3 (67297) - http://www.bohemiancoding.com/sketch -->
    <title>Stripe</title>
    <desc>Created with Sketch.</desc>
    <g id="Stripe" stroke="none" stroke-width="1" fill="none" fill-rule="evenodd">
        <g id="Stripe-logo---slate" transform="translate(14.000000, 49.000000)" fill="#32325D">
            <path d="M120,25.8 C120,17.2666667 115.866667,10.5333333 107.966667,10.5333333 C100.033333,10.5333333 95.2333333,17.2666667 95.2333333,25.7333333 C95.2333333,35.7666667 100.9,40.8333333 109.033333,40.8333333 C113,40.8333333 116,39.9333333 118.266667,38.6666667 L118.266667,32 C116,33.1333333 113.4,33.8333333 110.1,33.8333333 C106.866667,33.8333333 104,32.7 103.633333,28.7666667 L119.933333,28.7666667 C119.933333,28.3333333 120,26.6 120,25.8 Z M103.533333,22.6333333 C103.533333,18.8666667 105.833333,17.3 107.933333,17.3 C109.966667,17.3 112.133333,18.8666667 112.133333,22.6333333 L103.533333,22.6333333 Z" id="Shape"></path>
            <path d="M82.3666667,10.5333333 C79.1,10.5333333 77,12.0666667 75.8333333,13.1333333 L75.4,11.0666667 L68.0666667,11.0666667 L68.0666667,49.9333333 L76.4,48.1666667 L76.4333333,38.7333333 C77.6333333,39.6 79.4,40.8333333 82.3333333,40.8333333 C88.3,40.8333333 93.7333333,36.0333333 93.7333333,25.4666667 C93.7,15.8 88.2,10.5333333 82.3666667,10.5333333 Z M80.3666667,33.5 C78.4,33.5 77.2333333,32.8 76.4333333,31.9333333 L76.4,19.5666667 C77.2666667,18.6 78.4666667,17.9333333 80.3666667,17.9333333 C83.4,17.9333333 85.5,21.3333333 85.5,25.7 C85.5,30.1666667 83.4333333,33.5 80.3666667,33.5 Z" id="Shape"></path>
            <polygon id="Path" points="56.6 8.56666667 64.9666667 6.76666667 64.9666667 0 56.6 1.76666667"></polygon>
            <rect id="Rectangle" x="56.6" y="11.1" width="8.36666667" height="29.1666667"></rect>
            <path d="M47.6333333,13.5666667 L47.1,11.1 L39.9,11.1 L39.9,40.2666667 L48.2333333,40.2666667 L48.2333333,20.5 C50.2,17.9333333 53.5333333,18.4 54.5666667,18.7666667 L54.5666667,11.1 C53.5,10.7 49.6,9.96666667 47.6333333,13.5666667 Z" id="Path"></path>
            <path d="M30.9666667,3.86666667 L22.8333333,5.6 L22.8,32.3 C22.8,37.2333333 26.5,40.8666667 31.4333333,40.8666667 C34.1666667,40.8666667 36.1666667,40.3666667 37.2666667,39.7666667 L37.2666667,33 C36.2,33.4333333 30.9333333,34.9666667 30.9333333,30.0333333 L30.9333333,18.2 L37.2666667,18.2 L37.2666667,11.1 L30.9333333,11.1 L30.9666667,3.86666667 Z" id="Path"></path>
            <path d="M8.43333333,19.5666667 C8.43333333,18.2666667 9.5,17.7666667 11.2666667,17.7666667 C13.8,17.7666667 17,18.5333333 19.5333333,19.9 L19.5333333,12.0666667 C16.7666667,10.9666667 14.0333333,10.5333333 11.2666667,10.5333333 C4.5,10.5333333 0,14.0666667 0,19.9666667 C0,29.1666667 12.6666667,27.7 12.6666667,31.6666667 C12.6666667,33.2 11.3333333,33.7 9.46666667,33.7 C6.7,33.7 3.16666667,32.5666667 0.366666667,31.0333333 L0.366666667,38.9666667 C3.46666667,40.3 6.6,40.8666667 9.46666667,40.8666667 C16.4,40.8666667 21.1666667,37.4333333 21.1666667,31.4666667 C21.1333333,21.5333333 8.43333333,23.3 8.43333333,19.5666667 Z" id="Path"></path>
        </g>
    </g>
</svg>