<?xml version="1.0" encoding="UTF-8"?>
<svg width="148px" height="148px" viewBox="0 0 148 148" version="1.1" xmlns="http://www.w3.org/2000/svg" xmlns:xlink="http://www.w3.org/1999/xlink">
    <!-- Generator: Sketch 52.3 (67297) - http://www.bohemiancoding.com/sketch -->
    <title>vuetify copy</title>
    <desc>Created with Sketch.</desc>
    <defs>
        <linearGradient x1="-2.77777778%" y1="32%" x2="100%" y2="67.5555556%" id="linearGradient-1">
            <stop stop-color="#2298BD" offset="0%"></stop>
            <stop stop-color="#0ED7B5" offset="100%"></stop>
        </linearGradient>
    </defs>
    <g id="vuetify-copy" stroke="none" stroke-width="1" fill="none" fill-rule="evenodd">
        <g id="tailwind-css-seeklogo.com" transform="translate(27.000000, 46.000000)" fill="url(#linearGradient-1)" fill-rule="nonzero">
            <path d="M46.5454545,-1.0658141e-14 C34.1333333,-1.0658141e-14 26.3757576,6.20606062 23.2727273,18.6181818 C27.9272727,12.4121212 33.3575757,10.0848485 39.5636364,11.6363636 C43.1045385,12.5215892 45.6354047,15.0903811 48.4367516,17.9339636 C53.0002749,22.5660983 58.2819771,27.9272727 69.8181818,27.9272727 C82.2303029,27.9272727 89.9878789,21.7212121 93.0909091,9.30909091 C88.4363636,15.5151515 83.0060607,17.8424243 76.8,16.2909091 C73.2590978,15.4056835 70.7282316,12.8368916 67.9268847,9.99330909 C63.3633615,5.3611744 58.0816593,-1.0658141e-14 46.5454545,-1.0658141e-14 Z M23.2727273,27.9272727 C10.8606061,27.9272727 3.1030303,34.1333333 0,46.5454545 C4.65454545,40.3393938 10.0848485,38.0121211 16.2909091,39.5636364 C19.8318115,40.4488618 22.3626775,43.0176538 25.1640243,45.8612364 C29.7275475,50.4933709 35.0092498,55.8545455 46.5454545,55.8545455 C58.9575756,55.8545455 66.7151516,49.6484847 69.8181818,37.2363636 C65.1636364,43.4424244 59.7333335,45.7696971 53.5272727,44.2181818 C49.9863705,43.3329564 47.4555044,40.7641644 44.6541575,37.9205818 C40.0906342,33.2884471 34.808932,27.9272727 23.2727273,27.9272727 Z" id="Shape"></path>
        </g>
    </g>
</svg>