<?xml version="1.0" encoding="UTF-8"?>
<svg width="148px" height="148px" viewBox="0 0 148 148" version="1.1" xmlns="http://www.w3.org/2000/svg" xmlns:xlink="http://www.w3.org/1999/xlink">
    <!-- Generator: Sketch 52.3 (67297) - http://www.bohemiancoding.com/sketch -->
    <title>uxpin-logo-light</title>
    <desc>Created with Sketch.</desc>
    <g id="Symbols" stroke="none" stroke-width="1" fill="none" fill-rule="evenodd">
        <g id="tech-Sketch-Copy-2" fill="#FFFFFF">
            <g id="uxpin-dark" transform="translate(25.000000, 53.000000)">
                <path d="M4.9,0.6 L4.9,28.6 C4.9,29.8 4.9,31 5,32.1 C5.1,33.2 5.3,34.2 5.6,35 C6,35.8 6.5,36.4 7.3,36.9 C8,37.4 9.1,37.6 10.5,37.6 C12.7,37.6 14.3,36.9 15.1,35.6 C15.9,34.3 16.4,32 16.4,28.9 L16.4,0.6 L20.8,0.6 L20.8,28.6 C20.8,29.3 20.8,30.1 20.7,31.1 C20.7,32 20.5,33 20.4,33.9 C20.2,34.8 19.9,35.8 19.5,36.7 C19.1,37.6 18.5,38.4 17.7,39.1 C16.9,39.8 16,40.4 14.8,40.8 C13.6,41.2 12.2,41.5 10.4,41.5 C7.9,41.5 6,41.1 4.6,40.3 C3.2,39.5 2.2,38.5 1.6,37.3 C1,36.1 0.6,34.7 0.5,33.2 C0.4,31.7 0.3,30.2 0.3,28.7 L0.3,0.7 L4.9,0.7 L4.9,0.6 Z" id="Path"></path>
                <polygon id="Path" points="24.9 0.6 29.8 0.6 35.2 15 40.8 0.6 45.3 0.6 37.4 19 46.3 40.6 41.1 40.6 34.7 24 28.3 40.7 23.8 40.7 32.6 19.8"></polygon>
                <path d="M50.2,0.6 L58,0.6 C60.1,0.6 61.9,0.8 63.4,1.2 C64.8,1.6 66.1,2.5 67.2,3.8 C67.5,4.2 67.8,4.6 68.1,5.1 C68.4,5.6 68.7,6.2 69,6.9 C69.3,7.6 69.5,8.4 69.6,9.3 C69.8,10.2 69.8,11.3 69.8,12.5 C69.8,14.1 69.6,15.6 69.2,17 C68.8,18.4 68.2,19.7 67.3,20.8 C66.4,21.9 65.3,22.7 63.9,23.4 C62.5,24 60.8,24.3 58.7,24.3 L54.8,24.3 L54.8,40.6 L50.2,40.6 L50.2,0.6 Z M54.8,20.5 L58.6,20.5 C59.5,20.5 60.4,20.4 61.2,20.2 C62,20 62.7,19.6 63.3,19.1 C63.9,18.5 64.4,17.7 64.7,16.7 C65,15.7 65.2,14.3 65.2,12.7 C65.2,10.7 64.9,9.1 64.4,8 C63.9,6.9 63.2,6.1 62.5,5.6 C61.8,5.1 61,4.8 60.2,4.7 C59.4,4.6 58.8,4.6 58.2,4.6 L54.7,4.6 L54.7,20.5 L54.8,20.5 Z" id="Shape" fill-rule="nonzero"></path>
                <path d="M77.8,0.6 L77.8,5.7 L73.3,5.7 L73.3,0.6 L77.8,0.6 Z M73.5,11 L77.6,11 L77.6,40.6 L73.5,40.6 L73.5,11 Z" id="Shape" fill-rule="nonzero"></path>
                <path d="M82.3,11 L86.1,11 L86.1,15.5 C86.2,15.2 86.4,14.7 86.7,14.1 C87,13.5 87.4,12.9 87.9,12.4 C88.4,11.8 89.1,11.3 89.8,10.9 C90.6,10.5 91.5,10.3 92.6,10.3 C93.9,10.3 95,10.6 95.9,11.1 C96.8,11.7 97.6,12.4 98,13.3 C98.5,14.2 98.8,15.4 98.9,17 C99,18.5 99,20.1 99,21.8 L99,40.6 L95,40.6 L95,21.9 C95,21 95,20.1 94.9,19.1 C94.9,18.2 94.7,17.4 94.5,16.6 C94.3,15.9 93.9,15.3 93.4,14.8 C92.9,14.3 92.2,14.1 91.3,14.1 C90.2,14.1 89.4,14.4 88.7,15.1 C88.1,15.8 87.6,16.6 87.3,17.5 C87,18.5 86.8,19.5 86.7,20.6 C86.6,21.7 86.6,22.7 86.6,23.5 L86.6,40.6 L82.5,40.6 L82.5,11 L82.3,11 Z" id="Path"></path>
            </g>
        </g>
    </g>
</svg>