<?xml version="1.0" encoding="UTF-8"?>
<svg width="148px" height="148px" viewBox="0 0 148 148" version="1.1" xmlns="http://www.w3.org/2000/svg" xmlns:xlink="http://www.w3.org/1999/xlink">
    <!-- Generator: Sketch 52.3 (67297) - http://www.bohemiancoding.com/sketch -->
    <title>Xamarin</title>
    <desc>Created with Sketch.</desc>
    <g id="Xamarin" stroke="none" stroke-width="1" fill="none" fill-rule="evenodd">
        <g id="xamarin" transform="translate(30.000000, 35.000000)" fill="#3498DB" fill-rule="nonzero">
            <path d="M25.3914375,0 C23.01475,0.00515625 20.68825,1.354375 19.492,3.41240625 L0.8834375,35.7372812 C-0.29459375,37.8008125 -0.29459375,40.4982187 0.8834375,42.56175 L19.492,74.8869687 C20.68825,76.945 23.01475,78.2945625 25.3914375,78.299375 L62.6085625,78.299375 C64.98525,78.2942187 67.31175,76.945 68.508,74.8869687 L87.1165625,42.56175 C88.2945938,40.4982187 88.29425,37.8008125 87.1165625,35.7372812 L68.508,3.41240625 C67.31175,1.35403125 64.98525,0.0048125 62.6085625,0 L25.3914375,0 Z M25.7293437,18.9107188 C25.7805625,18.9055625 25.8341875,18.9055625 25.8854062,18.9107188 L32.3045937,18.9107188 C32.5945097,18.9201246 32.859411,19.077353 33.0065313,19.3273438 L43.8961875,38.7327187 C43.9511875,38.8289687 43.98625,38.9355312 43.9993125,39.0455312 C44.0130625,38.9355312 44.048125,38.8289687 44.103125,38.7327187 L54.9666563,19.3273438 C55.1189454,19.0700171 55.3953635,18.9117655 55.694375,18.9107188 L62.1139063,18.9107188 C62.682125,18.9155313 63.1080313,19.6315625 62.841625,20.1348125 L52.2118438,39.1496875 L62.841625,58.1384375 C63.133125,58.6444375 62.69725,59.3934687 62.1139063,59.3886562 L55.694375,59.3886562 C55.3899623,59.3822315 55.1122953,59.2132966 54.9666563,58.9459062 L44.103125,39.5401875 C44.048125,39.4442812 44.0130625,39.337375 43.9996563,39.2277187 C43.986277,39.3378249 43.9511033,39.444164 43.8961875,39.5405312 L33.0061875,58.9459062 C32.8654155,59.2054688 32.5998095,59.3731652 32.3049375,59.3886562 L25.8850625,59.3886562 C25.3017187,59.3938125 24.8658437,58.6444375 25.1573437,58.1384375 L35.787125,39.1496875 L25.1573437,20.1348125 C24.902625,19.6755625 25.213375,19.0086875 25.729,18.9107187 L25.7293437,18.9107188 Z" id="Shape"></path>
        </g>
    </g>
</svg>